<svg width="30" height="34" viewBox="0 0 30 34" fill="none" xmlns="http://www.w3.org/2000/svg">
<path fill-rule="evenodd" clip-rule="evenodd" d="M21.2207 0C21.8576 0 22.3745 0.516921 22.3745 1.15384L22.3752 2.45816C24.6215 2.61217 26.4872 3.3816 27.8076 4.70475C29.2491 6.15244 30.0076 8.23397 29.9999 10.7309V24.7662C29.9999 29.8923 26.7445 33.077 21.5061 33.077H8.49381C3.25537 33.077 0 29.8477 0 24.6493V10.7278C0 5.89274 2.90315 2.78913 7.63795 2.45869L7.63889 1.15384C7.63889 0.516921 8.15582 0 8.79274 0C9.42966 0 9.94658 0.516921 9.94658 1.15384L9.94612 2.42922H20.0661L20.0668 1.15384C20.0668 0.516921 20.5838 0 21.2207 0ZM27.6922 13.6984H2.30768V24.6493C2.30768 28.597 4.5046 30.7693 8.49381 30.7693H21.5061C25.4953 30.7693 27.6923 28.637 27.6923 24.7662L27.6922 13.6984ZM21.8479 23.3788C22.4848 23.3788 23.0018 23.8958 23.0018 24.5327C23.0018 25.1696 22.4848 25.6865 21.8479 25.6865C21.211 25.6865 20.6879 25.1696 20.6879 24.5327C20.6879 23.8958 21.1972 23.3788 21.8341 23.3788H21.8479ZM15.021 23.3788C15.6579 23.3788 16.1749 23.8958 16.1749 24.5327C16.1749 25.1696 15.6579 25.6865 15.021 25.6865C14.3841 25.6865 13.861 25.1696 13.861 24.5327C13.861 23.8958 14.3703 23.3788 15.0072 23.3788H15.021ZM8.17981 23.3788C8.81674 23.3788 9.33366 23.8958 9.33366 24.5327C9.33366 25.1696 8.81674 25.6865 8.17981 25.6865C7.54289 25.6865 7.01828 25.1696 7.01828 24.5327C7.01828 23.8958 7.52905 23.3788 8.16597 23.3788H8.17981ZM21.8479 17.3993C22.4848 17.3993 23.0018 17.9162 23.0018 18.5532C23.0018 19.1901 22.4848 19.707 21.8479 19.707C21.211 19.707 20.6879 19.1901 20.6879 18.5532C20.6879 17.9162 21.1972 17.3993 21.8341 17.3993H21.8479ZM15.021 17.3993C15.6579 17.3993 16.1749 17.9162 16.1749 18.5532C16.1749 19.1901 15.6579 19.707 15.021 19.707C14.3841 19.707 13.861 19.1901 13.861 18.5532C13.861 17.9162 14.3703 17.3993 15.0072 17.3993H15.021ZM8.17981 17.3993C8.81674 17.3993 9.33366 17.9162 9.33366 18.5532C9.33366 19.1901 8.81674 19.707 8.17981 19.707C7.54289 19.707 7.01828 19.1901 7.01828 18.5532C7.01828 17.9162 7.52905 17.3993 8.16597 17.3993H8.17981ZM20.0661 4.73691H9.94612L9.94658 6.2169C9.94658 6.85382 9.42966 7.37074 8.79274 7.37074C8.15582 7.37074 7.63889 6.85382 7.63889 6.2169L7.63808 4.77183C4.19158 5.06135 2.30768 7.15052 2.30768 10.7278V11.3907H27.6922L27.6923 10.7278C27.6984 8.82781 27.1876 7.3509 26.1737 6.33551C25.2838 5.44292 23.9828 4.90983 22.3758 4.77257L22.3745 6.2169C22.3745 6.85382 21.8576 7.37074 21.2207 7.37074C20.5838 7.37074 20.0668 6.85382 20.0668 6.2169L20.0661 4.73691Z" fill="white" fill-opacity="0.54"/>
</svg>
