<svg width="42" height="47" viewBox="0 0 42 47" fill="none" xmlns="http://www.w3.org/2000/svg">
<path d="M20.7041 0C19.068 0 17.7461 1.28954 17.7461 2.8857V4.61711C10.9982 5.95175 5.9142 11.7772 5.9142 18.757V20.4524C5.9142 24.6907 4.31504 28.7848 1.431 31.9591L0.74697 32.7076C-0.0295005 33.5552 -0.214374 34.7726 0.257054 35.8097C0.728483 36.8467 1.79151 37.514 2.95621 37.514H38.452C39.6167 37.514 40.6705 36.8467 41.1512 35.8097C41.6318 34.7726 41.4377 33.5552 40.6613 32.7076L39.9772 31.9591C37.0932 28.7848 35.494 24.6997 35.494 20.4524V18.757C35.494 11.7772 30.41 5.95175 23.6621 4.61711V2.8857C23.6621 1.28954 22.3402 0 20.7041 0ZM24.8915 44.4848C26.0007 43.4027 26.6201 41.9328 26.6201 40.3997H14.7881C14.7881 41.9328 15.4075 43.4027 16.5167 44.4848C17.626 45.5669 19.1327 46.1711 20.7041 46.1711C22.2755 46.1711 23.7823 45.5669 24.8915 44.4848Z" fill="#434040"/>
</svg>
