<svg width="35" height="35" viewBox="0 0 35 35" fill="none" xmlns="http://www.w3.org/2000/svg">
<path d="M21.3182 12.7273H13.6818C13.4287 12.7273 13.1859 12.8278 13.0069 13.0069C12.8278 13.1859 12.7273 13.4287 12.7273 13.6818V21.3182C12.7273 21.5713 12.8278 21.8141 13.0069 21.9931C13.1859 22.1722 13.4287 22.2727 13.6818 22.2727H21.3182C21.5713 22.2727 21.8141 22.1722 21.9931 21.9931C22.1722 21.8141 22.2727 21.5713 22.2727 21.3182V13.6818C22.2727 13.4287 22.1722 13.1859 21.9931 13.0069C21.8141 12.8278 21.5713 12.7273 21.3182 12.7273ZM20.3636 20.3636H14.6364V14.6364H20.3636V20.3636ZM34.0455 20.3636H31.1818V14.6364H34.0455C34.2986 14.6364 34.5414 14.5358 34.7204 14.3568C34.8994 14.1778 35 13.935 35 13.6818C35 13.4287 34.8994 13.1859 34.7204 13.0069C34.5414 12.8278 34.2986 12.7273 34.0455 12.7273H31.1818V6.04545C31.1818 5.45475 30.9472 4.88823 30.5295 4.47053C30.1118 4.05284 29.5453 3.81818 28.9545 3.81818H22.2727V0.954545C22.2727 0.701384 22.1722 0.458592 21.9931 0.27958C21.8141 0.100568 21.5713 0 21.3182 0C21.065 0 20.8222 0.100568 20.6432 0.27958C20.4642 0.458592 20.3636 0.701384 20.3636 0.954545V3.81818H14.6364V0.954545C14.6364 0.701384 14.5358 0.458592 14.3568 0.27958C14.1778 0.100568 13.935 0 13.6818 0C13.4287 0 13.1859 0.100568 13.0069 0.27958C12.8278 0.458592 12.7273 0.701384 12.7273 0.954545V3.81818H6.04545C5.45475 3.81818 4.88823 4.05284 4.47053 4.47053C4.05284 4.88823 3.81818 5.45475 3.81818 6.04545V12.7273H0.954545C0.701384 12.7273 0.458592 12.8278 0.27958 13.0069C0.100568 13.1859 0 13.4287 0 13.6818C0 13.935 0.100568 14.1778 0.27958 14.3568C0.458592 14.5358 0.701384 14.6364 0.954545 14.6364H3.81818V20.3636H0.954545C0.701384 20.3636 0.458592 20.4642 0.27958 20.6432C0.100568 20.8222 0 21.065 0 21.3182C0 21.5713 0.100568 21.8141 0.27958 21.9931C0.458592 22.1722 0.701384 22.2727 0.954545 22.2727H3.81818V28.9545C3.81818 29.5453 4.05284 30.1118 4.47053 30.5295C4.88823 30.9472 5.45475 31.1818 6.04545 31.1818H12.7273V34.0455C12.7273 34.2986 12.8278 34.5414 13.0069 34.7204C13.1859 34.8994 13.4287 35 13.6818 35C13.935 35 14.1778 34.8994 14.3568 34.7204C14.5358 34.5414 14.6364 34.2986 14.6364 34.0455V31.1818H20.3636V34.0455C20.3636 34.2986 20.4642 34.5414 20.6432 34.7204C20.8222 34.8994 21.065 35 21.3182 35C21.5713 35 21.8141 34.8994 21.9931 34.7204C22.1722 34.5414 22.2727 34.2986 22.2727 34.0455V31.1818H28.9545C29.5453 31.1818 30.1118 30.9472 30.5295 30.5295C30.9472 30.1118 31.1818 29.5453 31.1818 28.9545V22.2727H34.0455C34.2986 22.2727 34.5414 22.1722 34.7204 21.9931C34.8994 21.8141 35 21.5713 35 21.3182C35 21.065 34.8994 20.8222 34.7204 20.6432C34.5414 20.4642 34.2986 20.3636 34.0455 20.3636ZM29.2727 28.9545C29.2727 29.0389 29.2392 29.1199 29.1795 29.1795C29.1199 29.2392 29.0389 29.2727 28.9545 29.2727H6.04545C5.96107 29.2727 5.88014 29.2392 5.82047 29.1795C5.7608 29.1199 5.72727 29.0389 5.72727 28.9545V6.04545C5.72727 5.96107 5.7608 5.88014 5.82047 5.82047C5.88014 5.7608 5.96107 5.72727 6.04545 5.72727H28.9545C29.0389 5.72727 29.1199 5.7608 29.1795 5.82047C29.2392 5.88014 29.2727 5.96107 29.2727 6.04545V28.9545Z" fill="black"/>
</svg>
