<svg width="32" height="30" viewBox="0 0 32 30" fill="none" xmlns="http://www.w3.org/2000/svg">
<path d="M31 19.0007H1V28.7507H31V19.0007Z" stroke="black" stroke-width="2" stroke-linejoin="round"/>
<path d="M24.625 25.7507C25.1223 25.7507 25.5992 25.5532 25.9508 25.2016C26.3025 24.8499 26.5 24.373 26.5 23.8757C26.5 23.3785 26.3025 22.9015 25.9508 22.5499C25.5992 22.1983 25.1223 22.0007 24.625 22.0007C24.1277 22.0007 23.6508 22.1983 23.2992 22.5499C22.9475 22.9015 22.75 23.3785 22.75 23.8757C22.75 24.373 22.9475 24.8499 23.2992 25.2016C23.6508 25.5532 24.1277 25.7507 24.625 25.7507Z" fill="#0A0A0A"/>
<path d="M1 19.0007L4.7785 1H27.265L31 19" stroke="black" stroke-width="2" stroke-linejoin="round"/>
<path d="M5.5 23.8757H18.25" stroke="black" stroke-width="2" stroke-linecap="round"/>
</svg>
