<svg width="199" height="100" viewBox="0 0 199 100" fill="none" xmlns="http://www.w3.org/2000/svg">
<g filter="url(#filter0_i_10_165)">
<path d="M199 99.7021C199 73.2595 188.517 47.8999 169.857 29.2021C151.197 10.5043 125.889 2.0199e-06 99.5 2.35334e-08C73.111 -1.97283e-06 47.8028 10.5043 29.1429 29.2021C10.483 47.8998 4.11961e-06 73.2595 1.34977e-07 99.7021H24.875C24.875 79.8701 32.7373 60.8504 46.7322 46.8271C60.7271 32.8038 79.7082 24.9255 99.5 24.9255C119.292 24.9255 138.273 32.8038 152.268 46.8271C166.263 60.8504 174.125 79.8701 174.125 99.7021H199Z" fill="#1D4ED8"/>
<path d="M51.3103 12.4735C35.7195 21.1218 22.7326 33.807 13.7067 49.2037C4.68083 64.6004 -0.0527947 82.1435 0.000444172 100L24.8753 99.9255C24.8354 86.5332 28.3856 73.3758 35.155 61.8283C41.9244 50.2808 51.6646 40.7669 63.3578 34.2807L51.3103 12.4735Z" fill="#BAE6FD"/>
<path d="M149.25 13.3576C134.162 4.62868 117.051 0.0226093 99.6284 8.30236e-05C82.206 -0.0224433 65.0832 4.53936 49.9726 13.2292L62.3544 34.8474C73.6874 28.3301 86.5295 24.9087 99.5963 24.9256C112.663 24.9425 125.496 28.397 136.812 34.9437L149.25 13.3576Z" fill="#60A5FA"/>
</g>
<defs>
<filter id="filter0_i_10_165" x="0" y="0" width="199" height="104" filterUnits="userSpaceOnUse" color-interpolation-filters="sRGB">
<feFlood flood-opacity="0" result="BackgroundImageFix"/>
<feBlend mode="normal" in="SourceGraphic" in2="BackgroundImageFix" result="shape"/>
<feColorMatrix in="SourceAlpha" type="matrix" values="0 0 0 0 0 0 0 0 0 0 0 0 0 0 0 0 0 0 127 0" result="hardAlpha"/>
<feOffset dy="4"/>
<feGaussianBlur stdDeviation="2"/>
<feComposite in2="hardAlpha" operator="arithmetic" k2="-1" k3="1"/>
<feColorMatrix type="matrix" values="0 0 0 0 0 0 0 0 0 0 0 0 0 0 0 0 0 0 0.25 0"/>
<feBlend mode="normal" in2="shape" result="effect1_innerShadow_10_165"/>
</filter>
</defs>
</svg>
