<svg width="47" height="43" viewBox="0 0 47 43" fill="none" xmlns="http://www.w3.org/2000/svg">
<path d="M46.1307 0H0.802669C0.589788 0 0.385625 0.0845664 0.235096 0.235096C0.0845664 0.385625 0 0.589788 0 0.802669V27.887C0.000279837 27.9925 0.0213426 28.0969 0.0619839 28.1942C0.102625 28.2915 0.162048 28.3799 0.236856 28.4542C0.311665 28.5286 0.400391 28.5875 0.497965 28.6275C0.595539 28.6675 0.700047 28.6879 0.805515 28.6876H5.55392C5.76681 28.6876 5.97097 28.7721 6.1215 28.9227C6.27203 29.0732 6.35659 29.2774 6.35659 29.4902V35.0406C6.35659 35.2535 6.44116 35.4576 6.59169 35.6082C6.74222 35.7587 6.94638 35.8433 7.15926 35.8433H12.7182C12.931 35.8433 13.1352 35.9278 13.2857 36.0784C13.4363 36.2289 13.5208 36.4331 13.5208 36.6459V42.1963C13.5208 42.4092 13.6054 42.6133 13.7559 42.7639C13.9065 42.9144 14.1106 42.999 14.3235 42.999H32.6112C32.8241 42.999 33.0283 42.9144 33.1788 42.7639C33.3294 42.6133 33.4139 42.4092 33.4139 42.1963V36.6459C33.4139 36.4331 33.4985 36.2289 33.649 36.0784C33.7995 35.9278 34.0037 35.8433 34.2166 35.8433H39.7755C39.9884 35.8433 40.1925 35.7587 40.3431 35.6082C40.4936 35.4576 40.5782 35.2535 40.5782 35.0406V29.4902C40.5782 29.3847 40.599 29.2802 40.6394 29.1827C40.6798 29.0853 40.7391 28.9967 40.8138 28.9222C40.8884 28.8476 40.9771 28.7885 41.0746 28.7483C41.1722 28.708 41.2767 28.6874 41.3823 28.6876H46.1307C46.3435 28.6876 46.5477 28.603 46.6982 28.4525C46.8488 28.3019 46.9333 28.0978 46.9333 27.8849V0.802669C46.9333 0.589788 46.8488 0.385625 46.6982 0.235096C46.5477 0.0845664 46.3435 0 46.1307 0ZM6.83264 11.0097C6.83264 11.2225 6.74808 11.4267 6.59755 11.5772C6.44702 11.7278 6.24286 11.8123 6.02997 11.8123H3.38857C3.17569 11.8123 2.97153 11.7278 2.821 11.5772C2.67047 11.4267 2.5859 11.2225 2.5859 11.0097V4.28019C2.5859 4.06731 2.67047 3.86314 2.821 3.71261C2.97153 3.56209 3.17569 3.47752 3.38857 3.47752H6.02997C6.24286 3.47752 6.44702 3.56209 6.59755 3.71261C6.74808 3.86314 6.83264 4.06731 6.83264 4.28019V11.0097ZM13.0853 11.0097C13.0853 11.2225 13.0008 11.4267 12.8502 11.5772C12.6997 11.7278 12.4956 11.8123 12.2827 11.8123H9.64198C9.4291 11.8123 9.22494 11.7278 9.07441 11.5772C8.92388 11.4267 8.83931 11.2225 8.83931 11.0097V4.28019C8.83931 4.06731 8.92388 3.86314 9.07441 3.71261C9.22494 3.56209 9.4291 3.47752 9.64198 3.47752H12.2834C12.4961 3.47771 12.7001 3.56236 12.8505 3.71287C13.0009 3.86338 13.0853 4.06743 13.0853 4.28019V11.0097ZM19.338 11.0097C19.338 11.2225 19.2535 11.4267 19.1029 11.5772C18.9524 11.7278 18.7483 11.8123 18.5354 11.8123H15.8947C15.6818 11.8123 15.4776 11.7278 15.3271 11.5772C15.1766 11.4267 15.092 11.2225 15.092 11.0097V4.28019C15.092 4.06731 15.1766 3.86314 15.3271 3.71261C15.4776 3.56209 15.6818 3.47752 15.8947 3.47752H18.5361C18.6417 3.47724 18.7463 3.49779 18.8439 3.538C18.9415 3.57822 19.0303 3.6373 19.105 3.71186C19.1798 3.78642 19.2391 3.875 19.2796 3.97253C19.3201 4.07005 19.3409 4.1746 19.3409 4.28019L19.338 11.0097ZM25.5907 11.0097C25.5907 11.2225 25.5062 11.4267 25.3557 11.5772C25.2051 11.7278 25.001 11.8123 24.7881 11.8123H22.1474C21.9345 11.8123 21.7303 11.7278 21.5798 11.5772C21.4293 11.4267 21.3447 11.2225 21.3447 11.0097V4.28019C21.3447 4.06731 21.4293 3.86314 21.5798 3.71261C21.7303 3.56209 21.9345 3.47752 22.1474 3.47752H24.7888C25.0017 3.47752 25.2058 3.56209 25.3564 3.71261C25.5069 3.86314 25.5915 4.06731 25.5915 4.28019L25.5907 11.0097ZM31.8434 11.0097C31.8434 11.2225 31.7589 11.4267 31.6084 11.5772C31.4578 11.7278 31.2537 11.8123 31.0408 11.8123H28.4001C28.2945 11.8126 28.1899 11.792 28.0923 11.7518C27.9946 11.7116 27.9059 11.6525 27.8311 11.578C27.7564 11.5034 27.6971 11.4148 27.6566 11.3173C27.6161 11.2198 27.5953 11.1152 27.5953 11.0097V4.28019C27.5953 4.06731 27.6798 3.86314 27.8304 3.71261C27.9809 3.56209 28.1851 3.47752 28.398 3.47752H31.0394C31.1449 3.47724 31.2496 3.49779 31.3472 3.538C31.4448 3.57822 31.5335 3.6373 31.6083 3.71186C31.6831 3.78642 31.7424 3.875 31.7829 3.97253C31.8233 4.07005 31.8442 4.1746 31.8442 4.28019L31.8434 11.0097ZM38.0961 11.0097C38.0961 11.2225 38.0116 11.4267 37.8611 11.5772C37.7105 11.7278 37.5064 11.8123 37.2935 11.8123H34.6528C34.4399 11.8123 34.2357 11.7278 34.0852 11.5772C33.9347 11.4267 33.8501 11.2225 33.8501 11.0097V4.28019C33.8501 4.06731 33.9347 3.86314 34.0852 3.71261C34.2357 3.56209 34.4399 3.47752 34.6528 3.47752H37.2942C37.5071 3.47752 37.7112 3.56209 37.8618 3.71261C38.0123 3.86314 38.0969 4.06731 38.0969 4.28019L38.0961 11.0097ZM44.3489 11.0097C44.3489 11.2225 44.2643 11.4267 44.1138 11.5772C43.9632 11.7278 43.7591 11.8123 43.5462 11.8123H40.9055C40.6926 11.8123 40.4884 11.7278 40.3379 11.5772C40.1874 11.4267 40.1028 11.2225 40.1028 11.0097V4.28019C40.1028 4.06731 40.1874 3.86314 40.3379 3.71261C40.4884 3.56209 40.6926 3.47752 40.9055 3.47752H43.5469C43.7598 3.47752 43.9639 3.56209 44.1145 3.71261C44.265 3.86314 44.3496 4.06731 44.3496 4.28019L44.3489 11.0097Z" fill="white"/>
</svg>
