<svg width="34" height="34" viewBox="0 0 34 34" fill="none" xmlns="http://www.w3.org/2000/svg">
<path d="M19.8333 28.3333V31.875M14.1667 28.3333V31.875M19.8333 5.66667V2.125M14.1667 5.66667V2.125M9.91667 17H6.375M27.625 17H24.0833M9.91667 9.20833H6.375M27.625 9.20833H24.0833M9.91667 24.7917H6.375M27.625 24.7917H24.0833M9.91667 27.4833V6.51667C9.91667 6.29123 10.0062 6.07503 10.1656 5.91563C10.325 5.75622 10.5412 5.66667 10.7667 5.66667H23.2333C23.345 5.66667 23.4555 5.68865 23.5586 5.73137C23.6617 5.77409 23.7554 5.8367 23.8344 5.91563C23.9133 5.99456 23.9759 6.08826 24.0186 6.19139C24.0613 6.29451 24.0833 6.40504 24.0833 6.51667V27.4833C24.0833 27.595 24.0613 27.7055 24.0186 27.8086C23.9759 27.9117 23.9133 28.0054 23.8344 28.0844C23.7554 28.1633 23.6617 28.2259 23.5586 28.2686C23.4555 28.3113 23.345 28.3333 23.2333 28.3333H10.7667C10.5412 28.3333 10.325 28.2438 10.1656 28.0844C10.0062 27.925 9.91667 27.7088 9.91667 27.4833Z" stroke="black" stroke-width="1.5" stroke-linecap="round" stroke-linejoin="round"/>
</svg>
