<svg width="16" height="27" viewBox="0 0 16 27" fill="none" xmlns="http://www.w3.org/2000/svg">
<path d="M8 2.07692C7.09069 2.07692 6.21862 2.40515 5.57563 2.9894C4.93265 3.57365 4.57143 4.36606 4.57143 5.19231V15.551L4.19086 15.8604C3.32817 16.5614 2.72006 17.4839 2.44702 18.5059C2.17398 19.5278 2.24887 20.601 2.66178 21.5834C3.0747 22.5658 3.80616 23.4111 4.75939 24.0075C5.71262 24.6039 6.84267 24.9232 8 24.9232C9.15733 24.9232 10.2874 24.6039 11.2406 24.0075C12.1938 23.4111 12.9253 22.5658 13.3382 21.5834C13.7511 20.601 13.826 19.5278 13.553 18.5059C13.2799 17.4839 12.6718 16.5614 11.8091 15.8604L11.4286 15.551V5.19231C11.4286 4.36606 11.0673 3.57365 10.4244 2.9894C9.78138 2.40515 8.90931 2.07692 8 2.07692ZM2.28572 5.19231C2.28572 3.81523 2.88776 2.49454 3.95939 1.52079C5.03103 0.547046 6.48448 0 8 0C9.51552 0 10.969 0.547046 12.0406 1.52079C13.1122 2.49454 13.7143 3.81523 13.7143 5.19231V14.6434C14.8168 15.6658 15.5625 16.9612 15.858 18.3672C16.1535 19.7732 15.9856 21.2272 15.3753 22.5468C14.7651 23.8664 13.7396 24.993 12.4276 25.7852C11.1155 26.5774 9.5753 27 8 27C6.4247 27 4.88447 26.5774 3.57242 25.7852C2.26038 24.993 1.23494 23.8664 0.624684 22.5468C0.0144258 21.2272 -0.153485 19.7732 0.142006 18.3672C0.437498 16.9612 1.18324 15.6658 2.28572 14.6434V5.19231ZM6.85714 9.34616C6.85714 9.07074 6.97755 8.80661 7.19188 8.61186C7.40621 8.41711 7.6969 8.3077 8 8.3077C8.3031 8.3077 8.5938 8.41711 8.80812 8.61186C9.02245 8.80661 9.14286 9.07074 9.14286 9.34616V16.7919C9.9057 17.0369 10.5487 17.5191 10.9581 18.1532C11.3676 18.7873 11.5171 19.5325 11.3804 20.2571C11.2436 20.9817 10.8293 21.639 10.2107 22.1129C9.59213 22.5868 8.80909 22.8467 8 22.8467C7.19091 22.8467 6.40787 22.5868 5.78929 22.1129C5.17071 21.639 4.75642 20.9817 4.61965 20.2571C4.48287 19.5325 4.63243 18.7873 5.04188 18.1532C5.45132 17.5191 6.09429 17.0369 6.85714 16.7919V9.34616Z" fill="black"/>
</svg>
