<svg width="24" height="24" viewBox="0 0 24 24" fill="none" xmlns="http://www.w3.org/2000/svg">
<g clip-path="url(#clip0_23_52)">
<path fill-rule="evenodd" clip-rule="evenodd" d="M8.36571 0C7.91106 0 7.47502 0.180612 7.15353 0.502103C6.83204 0.823594 6.65143 1.25963 6.65143 1.71429V9C6.65143 9.45466 6.83204 9.89069 7.15353 10.2122C7.47502 10.5337 7.91106 10.7143 8.36571 10.7143H15.6514C16.1061 10.7143 16.5421 10.5337 16.8636 10.2122C17.1851 9.89069 17.3657 9.45466 17.3657 9V1.71429C17.3657 1.25963 17.1851 0.823594 16.8636 0.502103C16.5421 0.180612 16.1061 0 15.6514 0L8.36571 0ZM1.71429 13.2857C1.25963 13.2857 0.823594 13.4663 0.502103 13.7878C0.180612 14.1093 0 14.5453 0 15L0 22.2857C0 22.7404 0.180612 23.1764 0.502103 23.4979C0.823594 23.8194 1.25963 24 1.71429 24H9C9.45466 24 9.89069 23.8194 10.2122 23.4979C10.5337 23.1764 10.7143 22.7404 10.7143 22.2857V15C10.7143 14.5453 10.5337 14.1093 10.2122 13.7878C9.89069 13.4663 9.45466 13.2857 9 13.2857H1.71429ZM13.2857 15C13.2857 14.5453 13.4663 14.1093 13.7878 13.7878C14.1093 13.4663 14.5453 13.2857 15 13.2857H22.2857C22.7404 13.2857 23.1764 13.4663 23.4979 13.7878C23.8194 14.1093 24 14.5453 24 15V22.2857C24 22.7404 23.8194 23.1764 23.4979 23.4979C23.1764 23.8194 22.7404 24 22.2857 24H15C14.5453 24 14.1093 23.8194 13.7878 23.4979C13.4663 23.1764 13.2857 22.7404 13.2857 22.2857V15Z" fill="#DC323A"/>
</g>
<defs>
<clipPath id="clip0_23_52">
<rect width="24" height="24" fill="white"/>
</clipPath>
</defs>
</svg>
