<svg width="24" height="24" viewBox="0 0 24 24" fill="none" xmlns="http://www.w3.org/2000/svg">
<path d="M10.5235 1.33595C9.3797 1.5422 8.31095 2.12345 7.50939 2.97188C5.62033 4.96876 5.49845 8.04845 7.22345 10.1906C9.47345 12.9891 13.7766 12.8953 15.9235 9.99845C16.7203 8.92501 17.1094 7.52813 16.9688 6.23438C16.8281 4.90313 16.3031 3.79688 15.375 2.85938C14.5969 2.07188 13.5516 1.52345 12.4781 1.33595C12 1.25157 10.9781 1.25157 10.5235 1.33595Z" fill="#DC323A"/>
<path d="M18.2156 12.2859C16.6219 12.5016 15.2766 13.7016 14.8828 15.2625C14.7891 15.6234 14.7656 15.8344 14.7656 16.3031V16.8891L13.5516 18.0891C12.525 19.1016 12.3281 19.3172 12.2859 19.4766C12.2578 19.5844 12.2344 20.1797 12.2344 20.8828C12.2344 22.0594 12.2391 22.1156 12.3422 22.3125C12.3984 22.4297 12.5156 22.5703 12.6047 22.6266C12.7594 22.7344 12.7922 22.7344 14.1141 22.7344C14.9484 22.7344 15.5109 22.7156 15.5953 22.6828C15.6656 22.6594 16.2656 22.0969 16.9313 21.4359L18.1313 20.2359L18.7594 20.2312C19.4953 20.2219 19.8469 20.1422 20.4609 19.8516C21.4875 19.3687 22.2797 18.4406 22.5938 17.3437C22.8234 16.5516 22.7625 15.4922 22.4438 14.7234C22.1438 14.0062 21.4547 13.2 20.8313 12.8344C20.0438 12.375 19.0688 12.1687 18.2156 12.2859ZM19.1953 15.2766C19.4438 15.3891 19.7156 15.6984 19.7859 15.9469C19.9922 16.7156 19.3359 17.4516 18.5625 17.3203C17.9063 17.2078 17.4844 16.4203 17.7609 15.8203C18.0047 15.2859 18.6656 15.0328 19.1953 15.2766Z" fill="#DC323A"/>
<path d="M9.79688 13.1719C7.8 13.3641 6.01406 13.8281 4.52344 14.5547C3.74063 14.9344 3.15469 15.3281 2.64844 15.8062C1.99219 16.425 1.63125 16.9547 1.40156 17.6484C1.29375 17.9625 1.28906 18.0375 1.28906 19.2422V20.5078L1.41563 20.775C1.575 21.1172 1.875 21.4172 2.23125 21.5906L2.50781 21.7266L6.87656 21.7406L11.2453 21.75L11.2594 20.5219L11.2734 19.2891L11.4281 18.9609C11.5641 18.675 11.7047 18.5109 12.6563 17.5547C13.6969 16.5094 13.7344 16.4672 13.7344 16.2891C13.7344 15.4359 14.0578 14.3062 14.4938 13.6266C14.5734 13.5047 14.625 13.3922 14.6109 13.3734C14.5922 13.3594 14.2875 13.3078 13.9359 13.2562C13.1906 13.1531 10.5656 13.1016 9.79688 13.1719Z" fill="#DC323A"/>
</svg>
