<?xml version="1.0" standalone="no"?>
<!DOCTYPE svg PUBLIC "-//W3C//DTD SVG 20010904//EN"
 "http://www.w3.org/TR/2001/REC-SVG-20010904/DTD/svg10.dtd">
<svg version="1.0" xmlns="http://www.w3.org/2000/svg"
 width="512.000000pt" height="512.000000pt" viewBox="0 0 512.000000 512.000000"
 preserveAspectRatio="xMidYMid meet">

<g transform="translate(0.000000,512.000000) scale(0.100000,-0.100000)"
fill="#000000" stroke="none">
<path d="M2187 5018 c-17 -18 -31 -61 -57 -181 -18 -87 -38 -161 -44 -166 -6
-4 -51 -18 -101 -31 -156 -39 -357 -124 -519 -218 l-68 -40 -141 89 c-98 62
-150 89 -171 89 -27 0 -62 -31 -279 -248 -216 -216 -247 -251 -247 -278 0 -21
27 -73 89 -171 l89 -141 -40 -68 c-97 -167 -179 -362 -221 -523 -13 -50 -28
-96 -33 -100 -5 -5 -79 -24 -164 -42 -118 -25 -160 -39 -177 -56 -23 -22 -23
-22 -23 -373 0 -351 0 -351 23 -373 17 -17 60 -31 177 -56 85 -18 160 -37 166
-42 6 -5 17 -35 24 -66 32 -147 124 -374 214 -532 l53 -94 -88 -140 c-63 -98
-89 -150 -89 -171 0 -27 31 -62 248 -279 216 -216 251 -247 278 -247 21 0 73
27 171 89 l140 88 104 -58 c165 -94 411 -191 541 -214 21 -4 41 -12 46 -19 6
-6 25 -81 43 -166 25 -117 39 -160 56 -177 22 -23 22 -23 371 -23 322 0 352 1
372 18 18 14 30 51 59 181 23 106 41 167 51 172 8 4 60 20 114 34 164 45 356
128 536 233 l35 20 139 -89 c98 -62 149 -89 170 -89 27 0 63 32 279 248 216
216 247 251 247 278 0 21 -27 73 -89 171 l-88 140 53 94 c91 159 202 437 220
551 4 21 12 42 18 47 6 5 81 24 166 42 117 25 160 39 178 56 22 22 22 22 22
373 0 351 0 351 -22 373 -18 17 -61 31 -178 56 -85 18 -160 37 -166 42 -6 5
-17 35 -24 66 -32 147 -124 374 -214 532 l-53 94 88 140 c63 98 89 150 89 171
0 27 -31 62 -248 279 -216 216 -251 247 -278 247 -21 0 -73 -27 -170 -88
l-140 -89 -114 63 c-167 93 -417 192 -532 210 -21 4 -42 12 -47 18 -5 6 -24
81 -42 166 -25 117 -39 160 -56 178 -22 22 -22 22 -373 22 -351 0 -351 0 -373
-22z m657 -265 c40 -188 45 -202 68 -214 11 -6 71 -24 133 -39 199 -51 406
-138 578 -245 41 -26 84 -45 100 -45 19 0 75 30 164 86 l135 87 181 -181 180
-180 -86 -136 c-55 -86 -87 -147 -87 -164 0 -15 20 -60 45 -99 110 -177 193
-375 246 -587 24 -97 37 -131 53 -141 12 -7 90 -28 174 -46 l152 -33 0 -256 0
-257 -147 -32 c-189 -41 -181 -39 -194 -63 -6 -11 -24 -71 -39 -133 -51 -201
-146 -423 -250 -584 -24 -37 -40 -74 -40 -92 0 -21 27 -72 86 -165 l87 -136
-181 -181 -180 -180 -136 86 c-86 55 -147 87 -164 87 -15 0 -60 -20 -99 -45
-172 -107 -379 -194 -578 -245 -62 -15 -122 -33 -133 -39 -23 -12 -28 -26 -68
-213 l-28 -128 -256 0 -256 0 -34 152 c-18 84 -38 160 -44 170 -13 22 -36 30
-163 62 -186 47 -367 123 -547 230 -51 31 -105 56 -120 56 -17 0 -78 -32 -162
-86 l-136 -87 -180 181 -181 180 87 136 c58 92 86 144 86 165 0 18 -19 60 -49
108 -109 176 -185 355 -237 560 -23 89 -42 144 -54 154 -10 9 -89 31 -174 49
l-156 33 0 257 0 256 152 34 c84 18 160 38 170 44 22 14 24 18 59 153 50 199
121 367 235 559 30 50 54 103 54 118 0 17 -32 78 -86 162 l-87 136 181 181
180 180 136 -86 c83 -53 147 -87 163 -87 14 0 67 24 117 54 193 115 361 185
561 236 62 15 122 33 133 39 23 12 28 26 68 214 l28 127 256 0 256 0 28 -127z"/>
<path d="M2415 4074 c-406 -58 -664 -182 -926 -443 -230 -231 -366 -487 -425
-806 -26 -138 -26 -392 0 -530 59 -319 194 -574 425 -806 231 -230 487 -366
806 -425 138 -26 392 -26 530 0 319 59 575 195 806 425 230 231 366 487 425
806 25 135 26 402 1 530 -123 628 -588 1101 -1206 1226 -92 19 -366 33 -436
23z m366 -170 c343 -58 658 -249 865 -523 79 -104 185 -315 218 -433 120 -421
39 -862 -221 -1205 -30 -40 -58 -73 -62 -73 -3 0 -17 26 -31 57 -32 74 -123
171 -198 211 -93 50 -157 62 -324 62 l-148 0 0 47 c0 44 3 49 70 116 65 64
140 184 140 223 0 11 18 14 73 14 96 0 154 21 205 73 135 137 74 340 -120 401
-16 5 -15 11 7 77 45 131 30 310 -36 441 -41 82 -145 186 -227 227 -172 87
-383 76 -536 -27 -26 -18 -50 -32 -53 -32 -3 0 -24 16 -46 36 -148 134 -375
97 -462 -76 -61 -120 -69 -327 -22 -538 l24 -102 -26 -7 c-108 -26 -191 -127
-191 -233 0 -63 23 -114 75 -165 58 -59 102 -75 203 -75 68 0 70 -1 77 -27 13
-56 77 -153 140 -216 62 -60 65 -66 65 -110 l0 -47 -148 0 c-167 0 -231 -12
-324 -62 -75 -40 -166 -137 -198 -211 -14 -31 -28 -57 -32 -57 -4 0 -32 33
-62 72 -260 350 -340 785 -220 1206 33 118 139 329 218 433 205 272 521 464
861 523 111 20 330 20 446 0z m-578 -395 c12 -7 54 -43 93 -80 92 -88 111 -90
190 -18 87 78 149 103 259 104 80 0 97 -3 157 -32 134 -63 209 -179 216 -334
3 -65 0 -100 -13 -140 -10 -30 -19 -56 -21 -57 -1 -2 -95 71 -209 162 -225
181 -243 189 -290 141 -17 -16 -25 -35 -25 -58 0 -18 -12 -57 -26 -85 -41 -82
-74 -96 -301 -130 l-191 -27 -16 75 c-36 161 -31 336 12 419 30 58 111 88 165
60z m627 -561 l130 -103 -2 -191 -3 -190 -37 -76 c-45 -91 -103 -147 -196
-191 -61 -29 -76 -32 -162 -32 -86 0 -101 3 -162 32 -93 44 -151 100 -196 191
l-37 76 -3 172 -4 172 29 6 c15 3 80 13 143 22 62 8 138 25 167 35 60 23 140
91 168 143 11 20 23 36 28 36 4 0 66 -46 137 -102z m-830 -308 l0 -80 -55 0
c-67 0 -105 29 -105 80 0 51 38 80 105 80 l55 0 0 -80z m1255 55 c16 -15 25
-36 25 -55 0 -51 -38 -80 -105 -80 l-55 0 0 80 0 80 55 0 c46 0 60 -4 80 -25z
m-695 -690 c41 0 95 4 119 8 l43 8 -3 -80 c-4 -85 -18 -114 -73 -155 -39 -29
-133 -29 -172 0 -55 41 -69 70 -73 155 l-3 80 43 -8 c24 -4 78 -8 119 -8z
m-287 -218 c30 -66 81 -118 150 -154 45 -23 64 -27 137 -27 73 0 92 4 137 27
69 36 120 88 150 155 l25 54 167 -4 166 -3 63 -34 c35 -19 75 -48 89 -65 34
-40 70 -120 79 -172 l6 -41 -83 -61 c-157 -114 -346 -197 -544 -238 -123 -25
-385 -26 -505 -1 -196 41 -402 130 -548 238 l-84 62 7 46 c14 94 74 181 156
226 73 39 94 43 261 44 l147 1 24 -53z"/>
</g>
</svg>
