<svg width="24" height="25" viewBox="0 0 24 25" fill="none" xmlns="http://www.w3.org/2000/svg">
<path d="M10.3323 0.0708177C9.0526 0.301591 7.85677 0.951953 6.9599 1.90127C4.84622 4.13558 4.70986 7.58145 6.63996 9.97835C9.15749 13.1095 13.9723 13.0046 16.3744 9.76331C17.266 8.56224 17.7014 6.99927 17.544 5.55169C17.3867 4.06215 16.7992 2.82437 15.7608 1.7754C14.8901 0.89426 13.7205 0.280612 12.5194 0.0708177C11.9845 -0.0235897 10.8411 -0.0235897 10.3323 0.0708177Z" fill="#DC323A"/>
<path d="M17.8902 12.3175C17.6752 12.3857 17.3972 12.6741 17.3343 12.8944C17.308 12.9941 17.2818 13.3402 17.2818 13.6654V14.2476L16.9304 14.363C16.7311 14.4312 16.4374 14.5518 16.2695 14.641L15.9653 14.7983L15.509 14.3525C14.9846 13.8333 14.8902 13.7756 14.5807 13.7756C14.1034 13.7756 13.7573 14.1217 13.7573 14.599C13.7573 14.9085 13.815 15.0029 14.3342 15.5273L14.78 15.9836L14.6227 16.2879C14.5335 16.4557 14.4129 16.7494 14.3447 16.9435L14.2293 17.3001H13.6471C13.3219 17.3001 12.9758 17.3263 12.8656 17.3526C12.6086 17.426 12.3202 17.7512 12.273 18.0291C12.2258 18.3071 12.4041 18.69 12.6611 18.8578C12.8237 18.968 12.9024 18.9785 13.537 18.9785H14.2345L14.3185 19.2827C14.3657 19.4453 14.4915 19.7547 14.5912 19.9645L14.78 20.3474L14.3027 20.8299C13.7887 21.3491 13.6943 21.5432 13.773 21.9103C13.8779 22.4138 14.4653 22.6918 14.9426 22.4663C15.0318 22.4243 15.3045 22.1883 15.5405 21.9523L15.9758 21.517L16.3587 21.711C16.5685 21.8159 16.8622 21.9313 17.0091 21.9733L17.2818 22.0415V22.6761C17.2818 23.2268 17.2975 23.3369 17.4024 23.5415C17.6175 23.9768 18.0843 24.1342 18.5196 23.9296C18.871 23.7618 18.9287 23.6044 18.9602 22.7915L18.9864 22.0624L19.364 21.9418C19.5738 21.8789 19.8675 21.753 20.0249 21.6638L20.3081 21.5065L20.7487 21.9523C20.9899 22.1988 21.2627 22.4296 21.3571 22.4715C22.0546 22.7705 22.7522 22.0729 22.4532 21.3754C22.4113 21.281 22.1805 21.0082 21.934 20.767L21.4882 20.3264L21.6455 20.0432C21.7347 19.8858 21.8606 19.5921 21.9235 19.3823L22.0441 19.0047L22.7732 18.9785C23.5861 18.947 23.7435 18.8893 23.9113 18.5379C24.1159 18.1026 23.9585 17.6358 23.5232 17.4155C23.3186 17.3158 23.2085 17.3001 22.6578 17.3001H22.0232L21.955 17.0274C21.913 16.8805 21.7976 16.5868 21.6927 16.377L21.4987 15.9941L21.934 15.5588C22.17 15.3228 22.406 15.0501 22.448 14.9609C22.6735 14.4836 22.3955 13.8962 21.892 13.7913C21.5249 13.7126 21.3308 13.807 20.8116 14.321L20.3291 14.7983L19.9462 14.6095C19.7364 14.5098 19.427 14.384 19.2644 14.3368L18.9602 14.2528V13.5553C18.9602 12.9207 18.9497 12.842 18.8395 12.6794C18.7189 12.4906 18.3308 12.2598 18.1472 12.2703C18.0895 12.2703 17.9741 12.2965 17.8902 12.3175ZM19.0808 16.0518C19.4217 16.2144 19.9462 16.6865 20.135 17.0064C20.4864 17.6096 20.5284 18.4645 20.2347 19.0991C20.0039 19.5869 19.6158 19.9855 19.128 20.2215C18.7923 20.3893 18.6822 20.4156 18.2836 20.4365C17.5126 20.4732 17.0091 20.2739 16.4846 19.7232C16.0126 19.2302 15.8552 18.8211 15.8552 18.1288C15.8604 17.1637 16.3849 16.4032 17.3185 16.0099C17.5913 15.8945 17.6857 15.884 18.1997 15.8945C18.6927 15.9102 18.8185 15.9312 19.0808 16.0518Z" fill="#DC323A"/>
<path d="M9.51941 13.3192C7.34804 13.508 5.28682 14.0482 3.61895 14.8612C2.75355 15.286 2.06647 15.7423 1.50527 16.2721C0.786728 16.9539 0.382875 17.5518 0.125877 18.3228C0.00524486 18.6742 0 18.7581 0 20.1061V21.5222L0.141611 21.8211C0.319936 22.204 0.655607 22.5397 1.05422 22.7337L1.36366 22.8858L7.20119 22.9016L13.0387 22.912L12.9076 22.718C12.7135 22.4243 12.5929 21.905 12.6349 21.5222C12.6716 21.1603 12.8919 20.6725 13.1541 20.3683L13.3377 20.1585L12.9233 20.1008C12.1786 19.9907 11.6121 19.5868 11.3132 18.9364C11.1978 18.6847 11.1715 18.5641 11.1715 18.1655C11.1715 17.7459 11.1873 17.6567 11.3341 17.3525C11.6541 16.6812 12.273 16.2563 13.0125 16.2091L13.4006 16.1829L13.1436 15.9049C12.5562 15.265 12.4618 14.342 12.8971 13.6129L13.0702 13.3245L12.9128 13.293C12.6873 13.2458 10.1068 13.2668 9.51941 13.3192Z" fill="#DC323A"/>
</svg>
