<svg width="42" height="38" viewBox="0 0 42 38" fill="none" xmlns="http://www.w3.org/2000/svg">
<path fill-rule="evenodd" clip-rule="evenodd" d="M21 1H41V7H21V1ZM1 31H21V37H1V31ZM41 16H1V22H41V16Z" fill="#202224"/>
<path d="M41 1H41.25V0.75H41V1ZM21 1V0.75H20.75V1H21ZM41 7V7.25H41.25V7H41ZM21 7H20.75V7.25H21V7ZM21 31H21.25V30.75H21V31ZM1 31V30.75H0.75V31H1ZM21 37V37.25H21.25V37H21ZM1 37H0.75V37.25H1V37ZM1 16V15.75H0.75V16H1ZM41 16H41.25V15.75H41V16ZM1 22H0.75V22.25H1V22ZM41 22V22.25H41.25V22H41ZM41 0.75H21V1.25H41V0.75ZM41.25 7V1H40.75V7H41.25ZM21 7.25H41V6.75H21V7.25ZM20.75 1V7H21.25V1H20.75ZM21 30.75H1V31.25H21V30.75ZM21.25 37V31H20.75V37H21.25ZM1 37.25H21V36.75H1V37.25ZM0.75 31V37H1.25V31H0.75ZM1 16.25H41V15.75H1V16.25ZM1.25 22V16H0.75V22H1.25ZM41 21.75H1V22.25H41V21.75ZM40.75 16V22H41.25V16H40.75Z" fill="white"/>
</svg>
