<svg width="263" height="30" viewBox="0 0 263 30" fill="none" xmlns="http://www.w3.org/2000/svg">
<path d="M6.5918 14.3613C6.5918 20.209 9.1875 23.1328 14.3789 23.1328C19.4414 23.1328 21.9727 20.209 21.9727 14.3613C21.9727 8.60742 19.4414 5.73047 14.3789 5.73047C9.1875 5.73047 6.5918 8.60742 6.5918 14.3613ZM1.75781 14.4668C1.75781 5.94727 5.96484 1.6875 14.3789 1.6875C22.6641 1.6875 26.8066 5.94727 26.8066 14.4668C26.8066 22.9395 22.6641 27.1758 14.3789 27.1758C6.33984 27.1758 2.13281 22.9395 1.75781 14.4668ZM47.6543 1.86328V5.90625H40.4473V27H35.7891V5.90625H28.582V1.86328H47.6543ZM66.7441 1.86328V5.90625H59.5371V27H54.8789V5.90625H47.6719V1.86328H66.7441Z" fill="#DC323A"/>
<path d="M95.0625 22.957C100.277 22.957 102.885 19.8867 102.885 13.7461C102.885 8.51953 100.277 5.90625 95.0625 5.90625H89.877V22.957H95.0625ZM85.2188 27V1.86328H95.0625C103.383 1.86328 107.543 5.82422 107.543 13.7461C107.543 22.582 103.383 27 95.0625 27H85.2188ZM110.197 21.252C110.197 17.584 112.869 15.75 118.213 15.75C119.467 15.75 120.721 15.8672 121.975 16.1016V14.7129C121.975 13.0605 120.785 12.2344 118.406 12.2344C116.391 12.2344 114.152 12.5273 111.691 13.1133V9.42188C114.152 8.83594 116.391 8.54297 118.406 8.54297C123.891 8.54297 126.633 10.5703 126.633 14.625V27H123.926L122.273 25.3477C120.668 26.4492 118.898 27 116.965 27C112.453 27 110.197 25.084 110.197 21.252ZM121.975 19.2656C120.803 19.0312 119.549 18.9141 118.213 18.9141C115.975 18.9141 114.855 19.6758 114.855 21.1992C114.855 22.8398 115.793 23.6602 117.668 23.6602C119.215 23.6602 120.65 23.1797 121.975 22.2188V19.2656ZM131.045 26.1211V22.2539C133.096 23.0742 135.463 23.4844 138.146 23.4844C140.15 23.4844 141.152 22.8398 141.152 21.5508C141.152 20.3203 140.479 19.7051 139.131 19.7051H135.791C132.041 19.7051 130.166 17.8594 130.166 14.168C130.166 10.3008 132.902 8.36719 138.375 8.36719C140.695 8.36719 142.881 8.71875 144.932 9.42188V13.2891C142.881 12.4688 140.654 12.0586 138.252 12.0586C135.732 12.0586 134.473 12.7031 134.473 13.9922C134.473 15.2227 135.205 15.8379 136.67 15.8379H139.658C143.76 15.8379 145.811 17.6836 145.811 21.375C145.811 25.2422 143.197 27.1758 137.971 27.1758C135.404 27.1758 133.096 26.8242 131.045 26.1211ZM149.08 27V1.86328H153.738V10.8984C155.191 9.32812 157.049 8.54297 159.311 8.54297C163.682 8.54297 165.867 10.8164 165.867 15.3633V27H161.209V15.3633C161.209 13.3242 160.195 12.3047 158.168 12.3047C156.656 12.3047 155.18 12.9082 153.738 14.1152V27H149.08ZM174.938 22.7285C176.004 23.0684 177.24 23.2383 178.646 23.2383C181.459 23.2383 182.865 21.252 182.865 17.2793C182.865 14.0332 181.652 12.4102 179.227 12.4102C177.656 12.4102 176.227 12.7266 174.938 13.3594V22.7285ZM170.279 1.86328H174.938V9.94922C176.332 9.01172 177.885 8.54297 179.596 8.54297C184.846 8.54297 187.471 11.4961 187.471 17.4023C187.471 23.8008 184.465 27 178.453 27C175.922 27 173.197 26.748 170.279 26.2441V1.86328ZM194.766 17.7012C194.766 21.5566 196.26 23.4844 199.248 23.4844C202.236 23.4844 203.73 21.5566 203.73 17.7012C203.73 13.9395 202.236 12.0586 199.248 12.0586C196.26 12.0586 194.766 13.9395 194.766 17.7012ZM190.107 17.7715C190.107 11.584 193.154 8.49023 199.248 8.49023C205.342 8.49023 208.389 11.584 208.389 17.7715C208.389 23.9473 205.342 27.0352 199.248 27.0352C193.178 27.0352 190.131 23.9473 190.107 17.7715ZM211.025 21.252C211.025 17.584 213.697 15.75 219.041 15.75C220.295 15.75 221.549 15.8672 222.803 16.1016V14.7129C222.803 13.0605 221.613 12.2344 219.234 12.2344C217.219 12.2344 214.98 12.5273 212.52 13.1133V9.42188C214.98 8.83594 217.219 8.54297 219.234 8.54297C224.719 8.54297 227.461 10.5703 227.461 14.625V27H224.754L223.102 25.3477C221.496 26.4492 219.727 27 217.793 27C213.281 27 211.025 25.084 211.025 21.252ZM222.803 19.2656C221.631 19.0312 220.377 18.9141 219.041 18.9141C216.803 18.9141 215.684 19.6758 215.684 21.1992C215.684 22.8398 216.621 23.6602 218.496 23.6602C220.043 23.6602 221.479 23.1797 222.803 22.2188V19.2656ZM231.873 27V8.54297H235.477L236.057 10.8984C237.674 9.32812 239.385 8.54297 241.189 8.54297V12.3047C239.455 12.3047 237.902 13.0254 236.531 14.4668V27H231.873ZM255.516 13.3594C254.555 12.7266 253.348 12.4102 251.895 12.4102C249 12.4102 247.553 14.0332 247.553 17.2793C247.553 21.1348 249.059 23.0625 252.07 23.0625C253.289 23.0625 254.438 22.8926 255.516 22.5527V13.3594ZM260.174 25.8926C257.35 26.6309 254.59 27 251.895 27C245.93 27 242.947 23.8008 242.947 17.4023C242.947 11.4961 245.865 8.54297 251.701 8.54297C252.943 8.54297 254.215 8.83594 255.516 9.42188V1.86328H260.174V25.8926Z" fill="black"/>
</svg>
