<svg width="24" height="20" viewBox="0 0 24 20" fill="none" xmlns="http://www.w3.org/2000/svg">
<path d="M0 2C0 0.895431 0.895431 0 2 0H22C23.1046 0 24 0.895431 24 2V3.45455C24 4.55911 23.1046 5.45455 22 5.45455H2C0.89543 5.45455 0 4.55911 0 3.45455V2ZM0 9.27273C0 8.16816 0.895431 7.27273 2 7.27273H22C23.1046 7.27273 24 8.16816 24 9.27273V10.7273C24 11.8318 23.1046 12.7273 22 12.7273H2C0.89543 12.7273 0 11.8318 0 10.7273V9.27273ZM0 16.5455C0 15.4409 0.895431 14.5455 2 14.5455H22C23.1046 14.5455 24 15.4409 24 16.5455V18C24 19.1046 23.1046 20 22 20H2C0.89543 20 0 19.1046 0 18V16.5455Z" fill="#DC323A"/>
</svg>
