<svg width="24" height="23" viewBox="0 0 24 23" fill="none" xmlns="http://www.w3.org/2000/svg">
<path d="M11.9444 15.1221C15.6875 15.1221 18.8836 15.9025 18.8836 19.0257C18.8836 22.1476 15.708 22.9565 11.9444 22.9565C8.20129 22.9565 5.00519 22.176 5.00519 19.0542C5.00519 15.931 8.18078 15.1221 11.9444 15.1221ZM17.9292 13.2414C19.3602 13.2065 20.8987 13.465 21.4672 13.6485C22.6716 13.9599 23.4638 14.5956 23.792 15.5195C24.0694 16.278 24.0694 17.158 23.792 17.9152C23.2899 19.3483 21.6713 19.8083 21.0423 19.9271C20.9123 19.953 20.8078 19.8044 20.8215 19.6325C21.1429 15.6617 18.5866 13.779 17.9253 13.3461C17.8969 13.3267 17.8911 13.297 17.894 13.2789C17.896 13.266 17.9077 13.2453 17.9292 13.2414ZM6.07157 13.242C6.09306 13.2458 6.1038 13.2665 6.10576 13.2781C6.10869 13.2975 6.10282 13.3259 6.07547 13.3466C5.4132 13.7795 2.85691 15.6622 3.17827 19.6318C3.19195 19.8049 3.08841 19.9522 2.95849 19.9277C2.32943 19.8088 0.710869 19.3488 0.208792 17.9157C-0.0695973 17.1572 -0.0695973 16.2786 0.208792 15.5201C0.536998 14.5961 1.32821 13.9604 2.53261 13.6477C3.10208 13.4655 4.63957 13.2071 6.07157 13.242ZM11.9444 0C14.4929 0 16.5364 2.70065 16.5364 6.07322C16.5364 9.44451 14.4929 12.1477 11.9444 12.1477C9.39592 12.1477 7.35245 9.44451 7.35245 6.07322C7.35245 2.70065 9.39592 0 11.9444 0ZM18.1783 1.01281C20.6398 1.01281 22.5729 4.07655 21.9145 7.48919C21.4701 9.78667 19.8613 11.3127 18.0689 11.2507C17.8891 11.2442 17.7123 11.2223 17.5414 11.1835C17.4173 11.1551 17.3548 10.9703 17.4252 10.8333C18.1089 9.5024 18.4987 7.90139 18.4987 6.1828C18.4987 4.38926 18.0728 2.71719 17.3333 1.34619C17.3099 1.30355 17.2923 1.23765 17.3157 1.18854C17.3353 1.14849 17.3714 1.12781 17.4056 1.11747C17.6547 1.05028 17.9106 1.01281 18.1783 1.01281ZM5.82102 1.01268C6.08866 1.01268 6.34458 1.05015 6.59465 1.11734C6.62786 1.12768 6.66498 1.14965 6.68451 1.18841C6.70698 1.23752 6.69037 1.30342 6.66693 1.34606C5.92749 2.71706 5.5016 4.38913 5.5016 6.18267C5.5016 7.90126 5.89135 9.50227 6.57511 10.8332C6.64544 10.9702 6.58292 11.155 6.45887 11.1834C6.28695 11.2234 6.11113 11.2441 5.9314 11.2506C4.13896 11.3126 2.53017 9.78655 2.08572 7.48906C1.42638 4.07642 3.35947 1.01268 5.82102 1.01268Z" fill="#DC323A"/>
</svg>
