<svg width="619" height="619" viewBox="0 0 619 619" fill="none" xmlns="http://www.w3.org/2000/svg">
<path d="M270.667 20.2667C268.267 31.4667 265.6 41.6 264.8 42.9333C263.067 45.8667 260 46.9333 242.667 51.3333C217.467 57.7333 195.333 67.0667 169.867 82.1333C163.2 86.1333 156.133 89.3333 154.267 89.3333C152.133 89.3333 143.6 84.8 132.533 77.7333L114.4 66.2667L90.4 90.2667L66.2667 114.4L77.8667 132.533C85.6 144.8 89.3333 151.733 89.3333 154.533C89.3333 156.933 86.6667 162.667 82.4 169.6C68.8 191.467 57.6 218 51.2 243.067C47.0667 259.867 45.6 263.733 42.8 265.2C41.6 265.867 31.4667 268.267 20.4 270.8L0 275.2V309.333V343.467L17.0667 347.2C42 352.533 43.8667 353.2 45.4667 356.267C46.2667 357.733 48.6667 365.733 50.6667 374C57.4667 400.8 70.1333 430.4 84 451.867C87.2 456.8 89.3333 461.733 89.3333 464.133C89.3333 466.933 85.7333 473.733 77.8667 486.133L66.2667 504.267L90.1333 528.133C103.467 541.6 114.8 551.733 115.733 551.333C116.667 551.067 124.933 545.867 134.133 540C144 533.733 152.267 529.333 154.267 529.333C156.267 529.333 163.2 532.533 169.867 536.533C195.6 551.867 218 561.2 244.667 568C252.933 570 260.933 572.4 262.4 573.2C265.467 574.8 266.133 576.667 271.467 601.6L275.2 618.667H309.333H343.467L347.2 601.6C352.533 576.667 353.2 574.8 356.267 573.2C357.733 572.4 365.733 570 374 568C400.8 561.2 430 548.8 451.067 535.2C456.667 531.6 461.6 529.333 464.133 529.333C466.933 529.333 473.733 532.933 486.133 540.8L504.267 552.4L528.4 528.267L552.4 504.267L540.933 486.133C533.6 474.667 529.333 466.533 529.333 464.267C529.333 462.267 532 456.267 535.333 451.067C549.6 428.133 561.2 400.533 568 374C570 365.733 572.4 357.733 573.2 356.267C574.933 353.067 573.867 353.333 599.067 347.867L618.667 343.6V309.333V275.067L599.067 270.8C574.133 265.333 574.933 265.6 573.2 262.4C572.4 260.933 570 252.933 568 244.667C561.2 217.867 548.533 188.267 534.667 166.8C531.467 161.867 529.333 156.933 529.333 154.533C529.333 151.733 532.933 144.933 540.8 132.533L552.4 114.4L528.267 90.4L504.267 66.2667L486.133 77.8667C473.733 85.7333 466.933 89.3333 464.133 89.3333C461.733 89.3333 456.8 87.2 451.867 84C430.8 70.4 400.8 57.4667 375.733 51.3333C358.933 47.0667 354.933 45.6 353.467 42.8C352.8 41.6 350.4 31.4667 347.867 20.2667L343.467 -1.19209e-05H309.333H275.2L270.667 20.2667ZM348.133 110.533C389.333 118.8 422 136.533 452.133 166.533C482.8 197.333 500.933 231.467 508.8 274C512.133 291.867 512.133 327.467 508.8 344.667C494.133 421.067 440.4 481.333 367.733 503.2C347.067 509.467 334.267 511.2 310 511.333C284.133 511.333 269.2 509.067 246.933 501.867C214.933 491.467 191.333 476.8 166.533 452.133C135.867 421.333 117.733 387.2 109.867 344.667C106.4 326.267 106.4 292.4 109.867 274C117.733 231.467 135.6 197.467 166.533 166.533C201.333 131.867 236 115.2 290 107.467C299.333 106.133 335.867 108 348.133 110.533Z" fill="#DC323A"/>
<path d="M282 130C244.8 136.133 208.533 154.133 182.267 179.733C163.733 197.733 146 226.267 137.6 251.6C130.667 272.267 128.667 284.8 128.667 309.333C128.8 340.8 133.733 362.133 147.467 390C154.133 403.467 170.667 428 172.933 428C173.6 428 175.467 424.533 177.333 420.4C181.6 410.533 193.733 397.6 203.733 392.267C216.133 385.6 224.667 384 246.933 384H266.667V377.6C266.667 371.6 266.267 370.933 258 362.8C249.467 354.533 241.067 341.733 239.333 334.267C238.4 330.8 238.133 330.667 229.067 330.667C215.6 330.667 209.733 328.533 202 320.667C195.067 313.867 192 307.067 192 298.667C192 284.533 203.067 271.067 217.467 267.6L220.933 266.667L217.733 253.067C211.467 224.933 212.533 197.333 220.667 181.333C232.267 158.267 262.533 153.333 282.267 171.2C285.2 173.867 288 176 288.4 176C288.8 176 292 174.133 295.467 171.733C310.267 161.733 332.267 157.733 349.733 161.867C376 168 397.2 188.933 403.333 214.933C406.533 228.267 406 245.733 402 257.2C399.067 266 398.933 266.8 401.067 267.467C417.067 272.533 426.667 284.4 426.667 298.933C426.667 311.067 416.933 324.667 405.467 328.667C402.267 329.733 395.2 330.667 390 330.667H380.4L378.933 335.733C376.667 343.333 367.6 356.667 359.333 364.4C352.4 370.8 352 371.6 352 377.6V384H371.733C394 384 402.533 385.6 414.933 392.267C424.933 397.6 437.067 410.533 441.333 420.4C443.2 424.533 445.067 428 445.467 428C446 428 449.733 423.6 453.733 418.267C514.133 338.667 498.4 224.933 418.667 164.8C397.467 148.8 372.533 137.467 346 131.733C329.733 128.267 298.133 127.467 282 130Z" fill="#DC323A"/>
<path d="M246.667 183.733C241.2 186.8 237.867 192.8 235.867 203.467C234 213.067 235.067 233.067 238.133 246.667L240.267 256.667L265.067 253.067C278.667 251.067 291.333 248.8 293.333 248C301.6 244.533 309.2 233.333 309.333 224.267C309.333 221.467 310.533 218.8 312.667 216.667C318.933 210.267 321.333 211.333 351.333 235.467C366.533 247.6 379.067 257.333 379.2 257.067C379.467 256.933 380.667 253.467 382 249.467C383.733 244.133 384.133 239.467 383.733 230.8C382.8 210.133 372.8 194.667 354.933 186.267C346.933 182.4 344.667 182 334 182C319.333 182.133 311.067 185.467 299.467 195.867C288.933 205.467 286.4 205.2 274.133 193.467C268.933 188.533 263.333 183.733 261.733 182.8C257.467 180.667 251.867 180.933 246.667 183.733Z" fill="#DC323A"/>
<path d="M323.333 248.8C319.6 255.733 308.933 264.8 300.933 267.867C297.067 269.2 286.933 271.467 278.667 272.533C270.267 273.733 261.6 275.067 259.6 275.467L255.733 276.267L256.267 299.2L256.667 322.133L261.6 332.267C267.6 344.4 275.333 351.867 287.733 357.733C295.867 361.6 297.867 362 309.333 362C320.8 362 322.8 361.6 330.933 357.733C343.333 351.867 351.067 344.4 357.067 332.267L362 322.133L362.4 296.8L362.667 271.333L345.333 257.6C335.867 250.133 327.6 244 327.067 244C326.4 244 324.8 246.133 323.333 248.8Z" fill="#DC323A"/>
<path d="M216.667 291.333C214.533 293.333 213.333 296.133 213.333 298.667C213.333 305.467 218.4 309.333 227.333 309.333H234.667V298.667V288H227.333C221.2 288 219.333 288.533 216.667 291.333Z" fill="#DC323A"/>
<path d="M384 298.667V309.333H391.333C400.267 309.333 405.333 305.467 405.333 298.667C405.333 291.867 400.267 288 391.333 288H384V298.667Z" fill="#DC323A"/>
<path d="M288.133 391.867C288.667 403.2 290.533 407.067 297.867 412.533C303.067 416.4 315.6 416.4 320.8 412.533C328.133 407.067 330 403.2 330.533 391.867L330.933 381.2L325.2 382.267C322 382.8 314.8 383.333 309.333 383.333C303.867 383.333 296.667 382.8 293.467 382.267L287.733 381.2L288.133 391.867Z" fill="#DC323A"/>
<path d="M224.533 406.533C218.267 408.133 206.8 414.8 203.2 419.067C198.267 424.933 193.733 434.667 192.667 441.467L191.733 447.6L202.933 455.733C223.6 470.933 248.8 481.867 275.333 487.467C291.6 490.933 326.533 490.933 342.667 487.6C369.467 482 395.733 470.667 415.867 455.867L426.933 447.6L426.133 442.133C424.933 435.2 420.133 424.533 415.6 419.2C413.733 416.933 408.4 413.067 403.733 410.533L395.333 406L373.2 405.6L350.933 405.067L347.6 412.267C343.6 421.2 336.8 428.133 327.6 432.933C321.6 436 319.067 436.533 309.333 436.533C299.6 436.533 297.067 436 291.067 432.933C281.867 428.133 275.067 421.2 271.067 412.4L267.867 405.333L248.267 405.467C237.467 405.6 226.8 406 224.533 406.533Z" fill="#DC323A"/>
</svg>
