<svg width="27" height="27" viewBox="0 0 27 27" fill="none" xmlns="http://www.w3.org/2000/svg">
<path d="M24.75 9.585V4.4775C24.75 2.89125 24.03 2.25 22.2413 2.25H17.6962C15.9075 2.25 15.1875 2.89125 15.1875 4.4775V9.57375C15.1875 11.1713 15.9075 11.8013 17.6962 11.8013H22.2413C24.03 11.8125 24.75 11.1713 24.75 9.585Z" stroke="white" stroke-width="1.5" stroke-linecap="round" stroke-linejoin="round"/>
<path d="M24.75 22.2413V17.6962C24.75 15.9075 24.03 15.1875 22.2413 15.1875H17.6962C15.9075 15.1875 15.1875 15.9075 15.1875 17.6962V22.2413C15.1875 24.03 15.9075 24.75 17.6962 24.75H22.2413C24.03 24.75 24.75 24.03 24.75 22.2413Z" stroke="white" stroke-width="1.5" stroke-linecap="round" stroke-linejoin="round"/>
<path d="M11.8125 9.585V4.4775C11.8125 2.89125 11.0925 2.25 9.30375 2.25H4.75875C2.97 2.25 2.25 2.89125 2.25 4.4775V9.57375C2.25 11.1713 2.97 11.8013 4.75875 11.8013H9.30375C11.0925 11.8125 11.8125 11.1713 11.8125 9.585Z" stroke="white" stroke-width="1.5" stroke-linecap="round" stroke-linejoin="round"/>
<path d="M11.8125 22.2413V17.6962C11.8125 15.9075 11.0925 15.1875 9.30375 15.1875H4.75875C2.97 15.1875 2.25 15.9075 2.25 17.6962V22.2413C2.25 24.03 2.97 24.75 4.75875 24.75H9.30375C11.0925 24.75 11.8125 24.03 11.8125 22.2413Z" stroke="white" stroke-width="1.5" stroke-linecap="round" stroke-linejoin="round"/>
</svg>
