<svg width="24" height="24" viewBox="0 0 24 24" fill="none" xmlns="http://www.w3.org/2000/svg">
<path d="M11.1329 0.862513C10.3407 1.07345 9.72668 1.41564 9.18762 1.96408C8.42825 2.72814 7.96887 3.81564 7.96887 4.83283C7.96887 5.35314 8.08137 5.40939 9.01887 5.38126C9.70325 5.36251 9.74075 5.33439 9.80168 4.8047C9.82043 4.60314 9.86731 4.36408 9.89543 4.27033C10.0689 3.74064 10.4814 3.18751 10.9126 2.91564C12.1689 2.11408 13.8845 2.74689 14.3532 4.18595C14.4329 4.42501 14.4564 4.64064 14.4751 5.40001L14.4939 6.32345L11.0579 6.33751C7.86106 6.35157 7.60325 6.35626 7.42981 6.43595C7.19075 6.54376 7.00325 6.72189 6.87668 6.96095C6.77356 7.14845 6.77356 7.17189 6.7595 10.3547C6.74543 13.8891 6.74543 13.8938 7.03606 14.2219C7.11106 14.311 7.27512 14.4328 7.397 14.4938L7.61731 14.6016L11.8829 14.6156C14.4939 14.625 16.2611 14.611 16.4439 14.5828C16.8282 14.5219 17.1282 14.311 17.297 13.9922L17.4142 13.7625V10.5C17.4142 6.8672 17.4282 7.0172 17.0861 6.6797C16.9032 6.49689 16.7673 6.42657 16.4486 6.35626L16.3267 6.32814L16.2986 5.38126C16.2657 4.32657 16.1767 3.83439 15.9001 3.22501C15.4032 2.12814 14.4189 1.26564 13.2423 0.890638C12.9845 0.81095 12.7642 0.782825 12.2345 0.768763C11.6298 0.750013 11.5079 0.759388 11.1329 0.862513ZM12.5392 8.99533C12.9751 9.1922 13.2142 9.66095 13.1204 10.1438C13.0736 10.3875 13.0501 10.4297 12.8157 10.6875L12.6657 10.8516L12.647 11.686L12.6329 12.525L12.4782 12.661C12.2626 12.8531 11.9579 12.8531 11.7611 12.661L11.6251 12.525V11.7422C11.6251 10.9453 11.6017 10.8188 11.4329 10.6969C11.3111 10.6125 11.1236 10.2703 11.0907 10.0688C11.0204 9.68439 11.2829 9.20158 11.6673 9.00001C11.8876 8.88283 12.2907 8.87814 12.5392 8.99533Z" fill="#DC323A"/>
<path d="M2.12362 17.7281C1.97362 17.8031 1.92205 18.0047 1.92205 18.525V18.9938L1.60799 18.8156C0.923617 18.4313 0.956429 18.4453 0.815804 18.4922C0.647054 18.5531 0.539242 18.7406 0.581429 18.9047C0.604867 19.0031 0.722054 19.0969 1.10643 19.3172L1.59862 19.6078L1.12987 19.8797C0.872054 20.0344 0.637679 20.1985 0.609554 20.2547C0.525179 20.4141 0.600179 20.625 0.764242 20.6953C0.937679 20.7656 0.993929 20.7516 1.49549 20.461C1.69705 20.3438 1.87518 20.25 1.88924 20.25C1.9033 20.25 1.92205 20.4891 1.93143 20.7844C1.9408 21.2297 1.95955 21.3328 2.03455 21.4172C2.1658 21.5625 2.40487 21.5485 2.52674 21.3938C2.61112 21.286 2.62518 21.2016 2.62518 20.7375V20.2078L3.07518 20.4703C3.57205 20.761 3.76424 20.7938 3.90018 20.6203C4.10174 20.3766 3.98924 20.2031 3.42674 19.8797C3.19237 19.7438 3.00018 19.6219 3.00018 19.6031C3.00018 19.5844 3.20174 19.4578 3.44549 19.3172C3.89549 19.0641 3.98455 18.9797 3.98455 18.7969C3.98455 18.6703 3.78299 18.4688 3.65174 18.4688C3.59549 18.4688 3.34705 18.586 3.10799 18.7266C2.86424 18.8672 2.65799 18.9844 2.64862 18.9844C2.63924 18.9844 2.62518 18.7313 2.6158 18.4219C2.60174 17.8219 2.57362 17.7469 2.34393 17.7C2.2783 17.686 2.17987 17.7 2.12362 17.7281Z" fill="#DC323A"/>
<path d="M8.55958 17.7703C8.43771 17.8641 8.43771 17.8781 8.43771 18.4312C8.43771 18.8719 8.42365 18.9891 8.37677 18.9703C8.34396 18.9562 8.12833 18.8391 7.89865 18.7078C7.66896 18.5766 7.43458 18.4687 7.37833 18.4687C7.20958 18.4687 7.06427 18.6187 7.06896 18.7922C7.07365 18.9984 7.12052 19.0453 7.63146 19.3453L8.07208 19.6078L7.94083 19.6875C7.86583 19.7344 7.65021 19.8562 7.4674 19.9641C7.21427 20.1094 7.11583 20.1937 7.0924 20.2875C7.05021 20.4469 7.06896 20.5312 7.15802 20.6344C7.28927 20.7797 7.49552 20.7328 7.96896 20.4609L8.41427 20.2031L8.43771 20.7937C8.46115 21.4406 8.49865 21.5156 8.77521 21.5156C9.01427 21.5156 9.06583 21.3891 9.09396 20.7656L9.1174 20.2031L9.55802 20.4609C10.0315 20.7375 10.2424 20.7844 10.3736 20.6344C10.4815 20.5172 10.4768 20.2734 10.3596 20.1703C10.3127 20.1234 10.0924 19.9781 9.87208 19.8516C9.65177 19.725 9.48302 19.6078 9.49708 19.5891C9.50646 19.5703 9.70802 19.4437 9.93771 19.3125C10.1721 19.1812 10.383 19.0312 10.4065 18.9844C10.5283 18.7547 10.383 18.4687 10.144 18.4687C10.0783 18.4687 9.82521 18.5859 9.58615 18.7266C9.3424 18.8672 9.13615 18.9844 9.12208 18.9844C9.10802 18.9844 9.09396 18.7312 9.09396 18.4266C9.09396 17.8781 9.08927 17.8641 8.97208 17.7703C8.90177 17.7141 8.81271 17.6719 8.76583 17.6719C8.71896 17.6719 8.6299 17.7141 8.55958 17.7703Z" fill="#DC323A"/>
<path d="M15.028 17.7703C14.9108 17.8641 14.9061 17.8781 14.9061 18.4266C14.9061 18.7312 14.892 18.9844 14.878 18.9844C14.8639 18.9844 14.6577 18.8672 14.4139 18.7266C14.1748 18.5859 13.9217 18.4687 13.8561 18.4687C13.617 18.4687 13.4717 18.7547 13.5936 18.9844C13.617 19.0312 13.828 19.1812 14.0623 19.3125C14.292 19.4437 14.4936 19.5703 14.503 19.5891C14.517 19.6078 14.3483 19.725 14.128 19.8516C13.9077 19.9781 13.6873 20.1234 13.6405 20.1703C13.5186 20.2781 13.5186 20.5359 13.6311 20.6391C13.7811 20.775 13.978 20.7328 14.442 20.4609L14.8827 20.2031L14.9061 20.7656C14.9342 21.3891 14.9858 21.5156 15.2248 21.5156C15.5014 21.5156 15.5389 21.4406 15.5623 20.7937L15.5858 20.2031L16.0311 20.4609C16.5045 20.7328 16.7108 20.7797 16.842 20.6344C16.9311 20.5312 16.9498 20.4469 16.9077 20.2875C16.8795 20.1891 16.767 20.0953 16.4014 19.8844L15.9233 19.6031L16.3686 19.3406C16.8842 19.0406 16.9264 18.9984 16.9311 18.7922C16.9358 18.6234 16.7905 18.4687 16.6217 18.4687C16.5702 18.4687 16.317 18.5859 16.0639 18.7266C15.8155 18.8672 15.5952 18.9844 15.5858 18.9844C15.5717 18.9844 15.5623 18.7312 15.5623 18.4266C15.5623 17.8781 15.5577 17.8641 15.4405 17.7703C15.3702 17.7141 15.2811 17.6719 15.2342 17.6719C15.1873 17.6719 15.0983 17.7141 15.028 17.7703Z" fill="#DC323A"/>
<path d="M21.5109 17.7609C21.4078 17.8453 21.3984 17.8875 21.3844 18.4172C21.375 18.7313 21.3609 18.9844 21.3516 18.9844C21.3469 18.9844 21.1406 18.8672 20.9016 18.7266C20.6578 18.5859 20.4141 18.4688 20.3531 18.4688C20.2078 18.4688 20.0156 18.6703 20.0156 18.8203C20.0156 18.9797 20.1141 19.0688 20.5922 19.3406C20.8172 19.4672 21 19.5844 21 19.6031C21 19.6172 20.8125 19.7438 20.5781 19.875C20.3484 20.0063 20.1234 20.1609 20.0859 20.2172C19.9875 20.3578 19.9969 20.5125 20.1094 20.625C20.2641 20.7797 20.4656 20.7422 20.9297 20.4656L21.3516 20.2125L21.375 20.7656C21.4031 21.3938 21.4594 21.5156 21.7266 21.5156C21.9984 21.5156 22.0547 21.3938 22.0688 20.7656L22.0875 20.2125L22.5188 20.4656C23.0906 20.7984 23.3344 20.7984 23.4188 20.4563C23.4656 20.2781 23.3438 20.1469 22.8797 19.8797C22.6453 19.7438 22.4531 19.6219 22.4531 19.6031C22.4531 19.5844 22.6313 19.4672 22.8516 19.3406C23.2688 19.1063 23.4375 18.9422 23.4375 18.7875C23.4375 18.6656 23.2313 18.4688 23.1 18.4688C23.0391 18.4688 22.7906 18.5859 22.5469 18.7219L22.1016 18.9797L22.0734 18.4547C22.0453 17.8641 22.0266 17.7984 21.8625 17.7234C21.6984 17.6531 21.6375 17.6578 21.5109 17.7609Z" fill="#DC323A"/>
<path d="M0.1875 22.9266C0.01875 22.9969 0 23.0484 0 23.4703C0 23.7563 0.01875 23.8734 0.075 23.925C0.140625 23.9906 0.403125 24 2.29219 24C4.07812 24 4.45312 23.9906 4.49531 23.9344C4.53281 23.8922 4.54687 23.7141 4.5375 23.4328C4.52344 23.0203 4.51875 22.9922 4.40625 22.9359C4.26094 22.8609 0.370312 22.8516 0.1875 22.9266Z" fill="#DC323A"/>
<path d="M6.67011 22.9219C6.61386 22.9453 6.54824 23.0063 6.52011 23.0578C6.44043 23.2031 6.45449 23.775 6.54355 23.8969L6.61386 24H8.76074C10.7014 24 10.917 23.9906 10.9732 23.9203C11.0154 23.8688 11.0389 23.7188 11.0389 23.4563C11.0389 22.8516 11.2357 22.8984 8.82168 22.8891C7.69668 22.8844 6.72636 22.8984 6.67011 22.9219Z" fill="#DC323A"/>
<path d="M13.1295 22.9312C13.0592 22.9687 12.9982 23.0578 12.9701 23.1562C12.9186 23.3578 12.9561 23.8406 13.0311 23.9297C13.0826 23.9906 13.4107 24 15.2389 24H17.3857L17.4561 23.8969C17.5686 23.7375 17.5592 23.1516 17.442 23.0109L17.3529 22.8984L15.2951 22.8844C13.7248 22.8797 13.2139 22.8891 13.1295 22.9312Z" fill="#DC323A"/>
<path d="M19.5935 22.9359C19.481 22.9922 19.4763 23.0203 19.4623 23.4328C19.4529 23.7141 19.467 23.8922 19.5045 23.9344C19.5467 23.9906 19.9217 24 21.7076 24C23.5967 24 23.8592 23.9906 23.9248 23.925C23.981 23.8734 23.9998 23.7562 23.9998 23.4703C23.9998 23.0391 23.981 22.9969 23.7982 22.9266C23.5967 22.8469 19.7482 22.8562 19.5935 22.9359Z" fill="#DC323A"/>
</svg>
