<svg width="30" height="30" viewBox="0 0 30 30" fill="none" xmlns="http://www.w3.org/2000/svg">
<path d="M9.07499 2.5H20.9125C21.725 2.5 22.45 2.52503 23.1 2.61253C26.5625 3.00003 27.5 4.62501 27.5 9.07501V16.975C27.5 21.425 26.5625 23.05 23.1 23.4375C22.45 23.525 21.7375 23.55 20.9125 23.55H9.07499C8.26249 23.55 7.53749 23.525 6.88749 23.4375C3.42499 23.05 2.4875 21.425 2.4875 16.975V9.07501C2.4875 4.62501 3.42499 3.00003 6.88749 2.61253C7.53749 2.52503 8.26249 2.5 9.07499 2.5Z" stroke="white" stroke-width="1.5" stroke-linecap="round" stroke-linejoin="round"/>
<path d="M16.975 10.4H21.575" stroke="white" stroke-width="1.5" stroke-linecap="round" stroke-linejoin="round"/>
<path d="M8.425 17.6375H8.44999H21.5875" stroke="white" stroke-width="1.5" stroke-linecap="round" stroke-linejoin="round"/>
<path d="M8.75 27.5H21.25" stroke="white" stroke-width="1.5" stroke-linecap="round" stroke-linejoin="round"/>
<path d="M8.99338 10.375H9.00461" stroke="white" stroke-width="2" stroke-linecap="round" stroke-linejoin="round"/>
<path d="M13.1181 10.375H13.1294" stroke="white" stroke-width="2" stroke-linecap="round" stroke-linejoin="round"/>
</svg>
