<svg width="24" height="24" viewBox="0 0 24 24" fill="none" xmlns="http://www.w3.org/2000/svg">
<path d="M6.79544 12.0058L15.2874 3.27877C15.3574 3.20844 15.4126 3.12494 15.4501 3.03311C15.4875 2.94128 15.5063 2.84293 15.5055 2.74377C15.5047 2.6446 15.4842 2.54659 15.4453 2.45539C15.4063 2.36419 15.3497 2.28163 15.2786 2.21247C15.2075 2.14331 15.1234 2.08894 15.0312 2.05249C14.939 2.01604 14.8404 1.99825 14.7413 2.00014C14.6421 2.00202 14.5443 2.02356 14.4536 2.06349C14.3628 2.10342 14.2808 2.16095 14.2124 2.23277L5.21244 11.4828C5.07622 11.6228 5 11.8104 5 12.0058C5 12.2011 5.07622 12.3888 5.21244 12.5288L14.2124 21.7788C14.2808 21.8506 14.3628 21.9081 14.4536 21.948C14.5443 21.988 14.6421 22.0095 14.7413 22.0114C14.8404 22.0133 14.939 21.9955 15.0312 21.959C15.1234 21.9226 15.2075 21.8682 15.2786 21.7991C15.3497 21.7299 15.4063 21.6473 15.4453 21.5561C15.4842 21.4649 15.5047 21.3669 15.5055 21.2678C15.5063 21.1686 15.4875 21.0703 15.4501 20.9784C15.4126 20.8866 15.3574 20.8031 15.2874 20.7328L6.79544 12.0058Z" fill="white"/>
</svg>
