<svg width="33" height="41" viewBox="0 0 33 41" fill="none" xmlns="http://www.w3.org/2000/svg">
<path fill-rule="evenodd" clip-rule="evenodd" d="M16.4064 0C14.0443 0 11.7789 0.938334 10.1087 2.60858C8.43844 4.27883 7.5001 6.54417 7.5001 8.90625C7.5001 11.2683 8.43844 13.5337 10.1087 15.2039C11.7789 16.8742 14.0443 17.8125 16.4064 17.8125C18.7684 17.8125 21.0338 16.8742 22.704 15.2039C24.3743 13.5337 25.3126 11.2683 25.3126 8.90625C25.3126 6.54417 24.3743 4.27883 22.704 2.60858C21.0338 0.938334 18.7684 0 16.4064 0ZM10.3126 8.90625C10.3126 7.29009 10.9546 5.74012 12.0974 4.59732C13.2402 3.45452 14.7902 2.8125 16.4064 2.8125C18.0225 2.8125 19.5725 3.45452 20.7153 4.59732C21.8581 5.74012 22.5001 7.29009 22.5001 8.90625C22.5001 10.5224 21.8581 12.0724 20.7153 13.2152C19.5725 14.358 18.0225 15 16.4064 15C14.7902 15 13.2402 14.358 12.0974 13.2152C10.9546 12.0724 10.3126 10.5224 10.3126 8.90625ZM16.4064 20.625C12.0695 20.625 8.07198 21.6112 5.11135 23.2762C2.19385 24.9187 0.000104816 27.405 0.000104816 30.4688V30.66C-0.00177018 32.8387 -0.00364535 35.5725 2.39448 37.5262C3.57385 38.4862 5.22573 39.1706 7.45698 39.6206C9.69198 40.0744 12.6076 40.3125 16.4064 40.3125C20.2051 40.3125 23.1189 40.0744 25.3576 39.6206C27.5889 39.1706 29.2389 38.4862 30.4201 37.5262C32.8182 35.5725 32.8145 32.8387 32.8126 30.66V30.4688C32.8126 27.405 30.6189 24.9187 27.7032 23.2762C24.7407 21.6112 20.7451 20.625 16.4064 20.625ZM2.8126 30.4688C2.8126 28.8731 3.97885 27.1406 6.48948 25.7288C8.95698 24.3413 12.4595 23.4375 16.4082 23.4375C20.3532 23.4375 23.8557 24.3413 26.3232 25.7288C28.8357 27.1406 30.0001 28.8731 30.0001 30.4688C30.0001 32.9212 29.9251 34.3013 28.6426 35.3438C27.9489 35.91 26.7864 36.4631 24.7989 36.8644C22.817 37.2656 20.1076 37.5 16.4064 37.5C12.7051 37.5 9.99385 37.2656 8.01385 36.8644C6.02636 36.4631 4.86385 35.91 4.1701 35.3456C2.8876 34.3012 2.8126 32.9212 2.8126 30.4688Z" fill="#00E096"/>
</svg>
