<svg width="60" height="60" viewBox="0 0 60 60" fill="none" xmlns="http://www.w3.org/2000/svg">
<path opacity="0.21" fill-rule="evenodd" clip-rule="evenodd" d="M0 30V37C0 49.7025 10.2975 60 23 60H30H37C49.7025 60 60 49.7025 60 37V30V23C60 10.2975 49.7025 0 37 0H30H23C10.2975 0 0 10.2975 0 23V30Z" fill="#91CDFB"/>
<path d="M25.1 15H16.4C15.9029 15 15.5 15.4029 15.5 15.9V21.6C15.5 22.0971 15.9029 22.5 16.4 22.5H25.1C25.5971 22.5 26 22.0971 26 21.6V15.9C26 15.4029 25.5971 15 25.1 15Z" stroke="#0791F8" stroke-width="1.5"/>
<path d="M33.35 37.5H24.65C24.1529 37.5 23.75 37.9029 23.75 38.4V44.1C23.75 44.5971 24.1529 45 24.65 45H33.35C33.8471 45 34.25 44.5971 34.25 44.1V38.4C34.25 37.9029 33.8471 37.5 33.35 37.5Z" stroke="#0791F8" stroke-width="1.5"/>
<path d="M41.6 15H32.9C32.4029 15 32 15.4029 32 15.9V21.6C32 22.0971 32.4029 22.5 32.9 22.5H41.6C42.0971 22.5 42.5 22.0971 42.5 21.6V15.9C42.5 15.4029 42.0971 15 41.6 15Z" stroke="#0791F8" stroke-width="1.5"/>
<path d="M20.75 22.5V27.75C20.75 28.5456 21.0661 29.3087 21.6287 29.8713C22.1913 30.4339 22.9544 30.75 23.75 30.75H34.25C35.0456 30.75 35.8087 30.4339 36.3713 29.8713C36.9339 29.3087 37.25 28.5456 37.25 27.75V22.5M29 30.75V37.5" stroke="#0791F8" stroke-width="1.5"/>
</svg>
