<svg width="60" height="60" viewBox="0 0 60 60" fill="none" xmlns="http://www.w3.org/2000/svg">
<path opacity="0.21" fill-rule="evenodd" clip-rule="evenodd" d="M0 30V37C0 49.7025 10.2975 60 23 60H30H37C49.7025 60 60 49.7025 60 37V30V23C60 10.2975 49.7025 0 37 0H30H23C10.2975 0 0 10.2975 0 23V30Z" fill="#FAB6C4"/>
<g clip-path="url(#clip0_27_205)">
<path d="M44 26.5H20C16.691 26.5 14 23.809 14 20.5C14 17.191 16.691 14.5 20 14.5H44C47.309 14.5 50 17.191 50 20.5C50 23.809 47.309 26.5 44 26.5ZM20 16C17.519 16 15.5 18.019 15.5 20.5C15.5 22.981 17.519 25 20 25H44C46.481 25 48.5 22.981 48.5 20.5C48.5 18.019 46.481 16 44 16H20Z" fill="#110638"/>
<path d="M44 37H20C16.691 37 14 34.309 14 31C14 27.691 16.691 25 20 25H44C47.309 25 50 27.691 50 31C50 34.309 47.309 37 44 37ZM20 26.5C17.519 26.5 15.5 28.519 15.5 31C15.5 33.481 17.519 35.5 20 35.5H44C46.481 35.5 48.5 33.481 48.5 31C48.5 28.519 46.481 26.5 44 26.5H20Z" fill="#110638"/>
<path d="M44 47.5H20C16.691 47.5 14 44.809 14 41.5C14 38.191 16.691 35.5 20 35.5H44C47.309 35.5 50 38.191 50 41.5C50 44.809 47.309 47.5 44 47.5ZM20 37C17.519 37 15.5 39.019 15.5 41.5C15.5 43.981 17.519 46 20 46H44C46.481 46 48.5 43.981 48.5 41.5C48.5 39.019 46.481 37 44 37H20Z" fill="#110638"/>
<path d="M20.75 33.25C19.5095 33.25 18.5 32.2405 18.5 31C18.5 29.7595 19.5095 28.75 20.75 28.75C21.9905 28.75 23 29.7595 23 31C23 32.2405 21.9905 33.25 20.75 33.25ZM28.25 33.25C27.0095 33.25 26 32.2405 26 31C26 29.7595 27.0095 28.75 28.25 28.75C29.4905 28.75 30.5 29.7595 30.5 31C30.5 32.2405 29.4905 33.25 28.25 33.25Z" fill="#FF7A55"/>
<path d="M20.75 22.75C19.5095 22.75 18.5 21.7405 18.5 20.5C18.5 19.2595 19.5095 18.25 20.75 18.25C21.9905 18.25 23 19.2595 23 20.5C23 21.7405 21.9905 22.75 20.75 22.75ZM20.75 19.75C20.5511 19.75 20.3603 19.829 20.2197 19.9697C20.079 20.1103 20 20.3011 20 20.5C20 20.6989 20.079 20.8897 20.2197 21.0303C20.3603 21.171 20.5511 21.25 20.75 21.25C20.9489 21.25 21.1397 21.171 21.2803 21.0303C21.421 20.8897 21.5 20.6989 21.5 20.5C21.5 20.3011 21.421 20.1103 21.2803 19.9697C21.1397 19.829 20.9489 19.75 20.75 19.75ZM28.25 22.75C27.0095 22.75 26 21.7405 26 20.5C26 19.2595 27.0095 18.25 28.25 18.25C29.4905 18.25 30.5 19.2595 30.5 20.5C30.5 21.7405 29.4905 22.75 28.25 22.75ZM28.25 19.75C28.0511 19.75 27.8603 19.829 27.7197 19.9697C27.579 20.1103 27.5 20.3011 27.5 20.5C27.5 20.6989 27.579 20.8897 27.7197 21.0303C27.8603 21.171 28.0511 21.25 28.25 21.25C28.4489 21.25 28.6397 21.171 28.7803 21.0303C28.921 20.8897 29 20.6989 29 20.5C29 20.3011 28.921 20.1103 28.7803 19.9697C28.6397 19.829 28.4489 19.75 28.25 19.75ZM28.25 43.75C27.0095 43.75 26 42.7405 26 41.5C26 40.2595 27.0095 39.25 28.25 39.25C29.4905 39.25 30.5 40.2595 30.5 41.5C30.5 42.7405 29.4905 43.75 28.25 43.75ZM28.25 40.75C28.0511 40.75 27.8603 40.829 27.7197 40.9697C27.579 41.1103 27.5 41.3011 27.5 41.5C27.5 41.6989 27.579 41.8897 27.7197 42.0303C27.8603 42.171 28.0511 42.25 28.25 42.25C28.4489 42.25 28.6397 42.171 28.7803 42.0303C28.921 41.8897 29 41.6989 29 41.5C29 41.3011 28.921 41.1103 28.7803 40.9697C28.6397 40.829 28.4489 40.75 28.25 40.75ZM20.75 43.75C19.5095 43.75 18.5 42.7405 18.5 41.5C18.5 40.2595 19.5095 39.25 20.75 39.25C21.9905 39.25 23 40.2595 23 41.5C23 42.7405 21.9905 43.75 20.75 43.75ZM20.75 40.75C20.5511 40.75 20.3603 40.829 20.2197 40.9697C20.079 41.1103 20 41.3011 20 41.5C20 41.6989 20.079 41.8897 20.2197 42.0303C20.3603 42.171 20.5511 42.25 20.75 42.25C20.9489 42.25 21.1397 42.171 21.2803 42.0303C21.421 41.8897 21.5 41.6989 21.5 41.5C21.5 41.3011 21.421 41.1103 21.2803 40.9697C21.1397 40.829 20.9489 40.75 20.75 40.75Z" fill="#110638"/>
</g>
<defs>
<clipPath id="clip0_27_205">
<rect width="36" height="36" fill="white" transform="translate(14 13)"/>
</clipPath>
</defs>
</svg>
