<svg width="60" height="60" viewBox="0 0 60 60" fill="none" xmlns="http://www.w3.org/2000/svg">
<path opacity="0.21" fill-rule="evenodd" clip-rule="evenodd" d="M0 30V37C0 49.7025 10.2975 60 23 60H30H37C49.7025 60 60 49.7025 60 37V30V23C60 10.2975 49.7025 0 37 0H30H23C10.2975 0 0 10.2975 0 23V30Z" fill="#FEC53D"/>
<path opacity="0.4" d="M30 36.6667V39.84C30 42.3333 29 43.3333 26.4933 43.3333H20.16C17.6666 43.3333 16.6666 42.3333 16.6666 39.84V33.5067C16.6666 31 17.6666 30 20.16 30H23.3333V33.16C23.3333 35.6667 24.3333 36.6667 26.8266 36.6667H30Z" fill="#EA9010"/>
<path opacity="0.6" d="M36.6667 30V33.16C36.6667 35.6667 35.6667 36.6667 33.16 36.6667H26.8267C24.3334 36.6667 23.3334 35.6667 23.3334 33.16V26.8267C23.3334 24.3333 24.3334 23.3333 26.8267 23.3333H30V26.4933C30 29 31 30 33.4934 30H36.6667Z" fill="#EA9010"/>
<path d="M43.3333 20.16V26.4933C43.3333 29 42.3333 30 39.8267 30H33.4933C31 30 30 29 30 26.4933V20.16C30 17.6667 31 16.6667 33.4933 16.6667H39.8267C42.3333 16.6667 43.3333 17.6667 43.3333 20.16Z" fill="#EA9010"/>
</svg>
