<svg width="60" height="60" viewBox="0 0 60 60" fill="none" xmlns="http://www.w3.org/2000/svg">
<path opacity="0.3" fill-rule="evenodd" clip-rule="evenodd" d="M0 30V37C0 49.7025 10.2975 60 23 60H30H37C49.7025 60 60 49.7025 60 37V30V23C60 10.2975 49.7025 0 37 0H30H23C10.2975 0 0 10.2975 0 23V30Z" fill="#4AD991"/>
<path opacity="0.4" d="M36.9125 24.7125C36.825 24.7 36.7375 24.7 36.65 24.7125C34.7125 24.65 33.175 23.0625 33.175 21.1125C33.175 19.125 34.7875 17.5 36.7875 17.5C38.775 17.5 40.4 19.1125 40.4 21.1125C40.3875 23.0625 38.85 24.65 36.9125 24.7125Z" fill="#00D9C0"/>
<path opacity="0.4" d="M40.9875 33.375C39.5875 34.3125 37.625 34.6625 35.8125 34.425C36.2875 33.4 36.5375 32.2625 36.55 31.0625C36.55 29.8125 36.275 28.625 35.75 27.5875C37.6 27.3375 39.5625 27.6875 40.975 28.625C42.95 29.925 42.95 32.0625 40.9875 33.375Z" fill="#00D9C0"/>
<path opacity="0.4" d="M23.05 24.7125C23.1375 24.7 23.225 24.7 23.3125 24.7125C25.25 24.65 26.7875 23.0625 26.7875 21.1125C26.7875 19.125 25.175 17.5 23.175 17.5C21.1875 17.5 19.5625 19.1125 19.5625 21.1125C19.575 23.0625 21.1125 24.65 23.05 24.7125Z" fill="#00D9C0"/>
<path opacity="0.4" d="M23.1875 31.0625C23.1875 32.275 23.45 33.425 23.925 34.4625C22.1625 34.65 20.325 34.275 18.975 33.3875C17 32.075 17 29.9375 18.975 28.625C20.3125 27.725 22.2 27.3625 23.975 27.5625C23.4625 28.6125 23.1875 29.8 23.1875 31.0625Z" fill="#00D9C0"/>
<path d="M30.15 34.8375C30.05 34.825 29.9375 34.825 29.825 34.8375C27.525 34.7625 25.6875 32.875 25.6875 30.55C25.6875 28.175 27.6 26.25 29.9875 26.25C32.3625 26.25 34.2875 28.175 34.2875 30.55C34.2875 32.875 32.4625 34.7625 30.15 34.8375Z" fill="#00D9C0"/>
<path d="M26.0875 37.425C24.2 38.6875 24.2 40.7625 26.0875 42.0125C28.2375 43.45 31.7625 43.45 33.9125 42.0125C35.8 40.75 35.8 38.675 33.9125 37.425C31.775 35.9875 28.25 35.9875 26.0875 37.425Z" fill="#00D9C0"/>
</svg>
