<svg width="210" height="182" viewBox="0 0 210 182" fill="none" xmlns="http://www.w3.org/2000/svg">
<g opacity="0.4">
<path d="M18.0031 168.094L17.8442 168.002L0.00341797 157.679L18.0025 147.264L18.1616 147.357L36.0022 157.679L18.0031 168.094Z" fill="white"/>
<path d="M1.27759 157.679L18.003 167.356L34.7278 157.679L18.0024 148.002L1.27759 157.679Z" fill="white"/>
</g>
<path d="M101.745 145.907L68.4123 126.621C67.1908 125.914 67.344 124.679 68.7544 123.863L104.084 103.368C105.495 102.552 107.628 102.463 108.85 103.17L142.183 122.457C143.404 123.164 143.251 124.398 141.841 125.214L106.511 145.709C105.101 146.526 102.967 146.614 101.745 145.907Z" fill="#9CB8C8"/>
<path d="M103.82 139.57C102.868 139.57 101.952 139.37 101.252 138.965L67.9183 119.678C67.08 119.193 66.5996 118.444 66.5996 117.623C66.5996 116.697 67.2047 115.816 68.2599 115.205L103.589 94.7113C105.299 93.7214 107.826 93.6342 109.344 94.5126L142.677 113.799C143.515 114.284 143.996 115.033 143.996 115.854C143.996 116.78 143.391 117.661 142.335 118.272L107.006 138.766C106.086 139.299 104.929 139.57 103.82 139.57Z" fill="#A0BBCB"/>
<path d="M102.24 137.25C103.155 137.78 104.92 137.687 106.017 137.052L141.346 116.557C141.84 116.271 142.02 115.98 142.02 115.854C142.02 115.78 141.917 115.647 141.689 115.514L108.356 96.2276C107.441 95.6976 105.675 95.7906 104.578 96.4258L69.2493 116.92C68.7549 117.206 68.5757 117.497 68.5757 117.623C68.5757 117.697 68.6778 117.831 68.9065 117.963L102.24 137.25Z" fill="#A0BBCB"/>
<path d="M104.151 44.3877C104.151 44.3877 85.8507 46.135 74.8286 46.9833L104.063 130.425L142.732 108.073C142.739 108.069 142.745 108.065 142.751 108.062L142.82 108.022L142.819 108.019C143.303 107.713 143.609 107.047 143.609 106.106V24.5489C143.609 23.6877 143.351 22.7606 142.937 21.9459L104.151 44.3877Z" fill="#396CAA"/>
<path d="M141.214 19.9635L107.207 0.286772C106.616 -0.055353 106.076 -0.0800745 105.658 0.152609L105.658 0.152416L66.8333 22.5995L68.6624 29.3839L78.397 57.1686L80.2296 58.2289L142.939 21.9449C142.503 21.0878 141.892 20.3558 141.214 19.9635Z" fill="#CCE7FC"/>
<path d="M102.418 130.349L68.4108 110.672C67.0883 109.907 66.0161 107.854 66.0161 106.087V24.5297C66.0161 22.7626 67.0883 21.9503 68.4108 22.7156L102.418 42.3923C103.74 43.1574 104.813 45.2106 104.813 46.9777V128.535C104.813 130.302 103.74 131.114 102.418 130.349Z" fill="#5793CE"/>
<path d="M103.147 41.9823L69.1397 22.3056C68.3742 21.8629 67.6944 21.9511 67.2561 22.4444C67.5986 22.39 67.992 22.4734 68.4109 22.7156L102.418 42.3923C103.74 43.1576 104.813 45.2106 104.813 46.9777V128.535C104.813 129.279 104.621 129.851 104.302 130.21C105.041 130.093 105.541 129.332 105.541 128.125V46.5678C105.541 44.8006 104.469 42.7477 103.147 41.9823Z" fill="white"/>
<path d="M100.278 125.439L70.5498 108.238C69.3937 107.569 68.4565 105.774 68.4565 104.23V28.4861C68.4565 26.9413 69.3937 26.2312 70.5498 26.9001L100.278 44.1012C101.434 44.7701 102.372 46.5649 102.372 48.1097V123.853C102.372 125.398 101.434 126.108 100.278 125.439Z" fill="url(#paint0_linear_53_999)"/>
<path d="M100.278 125.439L70.5498 108.238C69.3937 107.569 68.4565 105.774 68.4565 104.23V28.4861C68.4565 26.9413 69.3937 26.2312 70.5498 26.9001L100.278 44.1012C101.434 44.7701 102.372 46.5649 102.372 48.1097V123.853C102.372 125.398 101.434 126.108 100.278 125.439Z" fill="url(#paint1_linear_53_999)"/>
<path d="M100.278 125.439L70.5498 108.238C69.3937 107.569 68.4565 105.774 68.4565 104.23V28.4861C68.4565 26.9413 69.3937 26.2312 70.5498 26.9001L100.278 44.1012C101.434 44.7701 102.372 46.5649 102.372 48.1097V123.853C102.372 125.398 101.434 126.108 100.278 125.439Z" fill="#5C84C6" fill-opacity="0.68"/>
<path d="M101.25 124.866L71.5211 107.665C70.365 106.996 69.4279 105.202 69.4279 103.657V27.9134C69.4279 27.3867 69.539 26.9599 69.7284 26.6488C68.9808 26.6431 68.4565 27.331 68.4565 28.4861V104.23C68.4565 105.774 69.3937 107.569 70.5498 108.238L100.278 125.439C101.04 125.88 101.705 125.719 102.071 125.118C101.819 125.116 101.541 125.035 101.25 124.866Z" fill="#396CAA"/>
<path d="M100.278 90.6641L89.2288 84.2707L71.6055 94.4678L102.372 112.269V94.6727C102.372 93.1278 101.435 91.3331 100.278 90.6641Z" fill="#5C84C6" fill-opacity="0.68"/>
<path d="M100.278 75.1432L89.2288 68.7497L71.6055 78.9468L102.372 96.7484V79.1517C102.372 77.6068 101.435 75.8121 100.278 75.1432Z" fill="#5C84C6" fill-opacity="0.68"/>
<path d="M100.278 59.6222L89.2288 53.2288L71.6055 63.4258L102.372 81.2274V63.6307C102.372 62.0859 101.435 60.2911 100.278 59.6222Z" fill="#5C84C6" fill-opacity="0.68"/>
<path d="M100.278 44.1012L89.2288 37.7078L71.6055 47.9048L102.372 65.7065V48.1097C102.372 46.5647 101.435 44.7701 100.278 44.1012Z" fill="#5C84C6" fill-opacity="0.68"/>
<path d="M100.278 44.1012L75.8162 29.9472L71.6055 32.3835L102.372 50.1851V48.1097C102.372 46.5647 101.435 44.7701 100.278 44.1012Z" fill="#5C84C6" fill-opacity="0.68"/>
<path d="M102.372 50.1853L71.6055 32.3835V42.1938L102.372 59.9952V50.1853Z" fill="#5793CE"/>
<path d="M102.372 65.7063L71.6055 47.9044V57.7147L102.372 75.5161V65.7063Z" fill="#5793CE"/>
<path d="M102.372 81.2272L71.6055 63.4256V73.2355L102.372 91.0371V81.2272Z" fill="#5793CE"/>
<path d="M102.372 96.7482L71.6055 78.9464V88.7565L102.372 106.558V96.7482Z" fill="#5793CE"/>
<path d="M102.372 112.269L71.6055 94.4674V104.277L102.372 122.079V112.269Z" fill="#5793CE"/>
<path d="M99.6585 56.4994L76.4851 43.091C75.8308 42.7125 75.3003 41.697 75.3003 40.8226V38.1955C75.3003 37.3211 75.8308 36.9194 76.4851 37.2979L99.6585 50.7063C100.313 51.0849 100.843 52.1003 100.843 52.9747V55.6019C100.843 56.4763 100.313 56.878 99.6585 56.4994Z" fill="#5C84C6" fill-opacity="0.68"/>
<g opacity="0.3">
<path d="M77.6563 42.588C77.0018 42.2093 76.4715 41.1938 76.4715 40.3194V37.6924C76.4715 37.5525 76.4895 37.4297 76.5149 37.315L76.4851 37.2978C75.8308 36.9191 75.3003 37.321 75.3003 38.1954V40.8225C75.3003 41.6969 75.8308 42.7124 76.4851 43.0911L99.6585 56.4992C100.208 56.8171 100.666 56.5797 100.8 55.979L77.6563 42.588Z" fill="#06033E"/>
</g>
<path d="M92.3867 49.2986L78.4419 41.23C78.2116 41.0968 78.0251 40.7396 78.0251 40.4321C78.0251 40.1245 78.2116 39.983 78.4419 40.1163L92.3867 48.1848C92.6168 48.3181 92.8034 48.6753 92.8034 48.9829C92.8034 49.2906 92.6168 49.4318 92.3867 49.2986Z" fill="white"/>
<path d="M99.6585 71.9247L76.4851 58.5163C75.8308 58.1377 75.3003 57.1223 75.3003 56.2479V53.6207C75.3003 52.7465 75.8308 52.3446 76.4851 52.7231L99.6585 66.1314C100.313 66.5099 100.843 67.5256 100.843 68.3999V71.0271C100.843 71.9013 100.313 72.3032 99.6585 71.9247Z" fill="#5C84C6" fill-opacity="0.68"/>
<g opacity="0.3">
<path d="M77.6563 58.0131C77.0018 57.6344 76.4715 56.6189 76.4715 55.7446V53.1176C76.4715 52.9777 76.4895 52.8546 76.5149 52.7402L76.4851 52.7229C75.8308 52.3442 75.3003 52.7461 75.3003 53.6205V56.2477C75.3003 57.1221 75.8308 58.1373 76.4851 58.5161L99.6585 71.9245C100.208 72.2425 100.666 72.0048 100.8 71.4041L77.6563 58.0131Z" fill="#06033E"/>
</g>
<path d="M92.3867 64.7238L78.4419 56.6552C78.2116 56.522 78.0251 56.1649 78.0251 55.8573C78.0251 55.5496 78.2116 55.4082 78.4419 55.5414L92.3867 63.6102C92.6168 63.7434 92.8034 64.1005 92.8034 64.4081C92.8034 64.7155 92.6168 64.857 92.3867 64.7238Z" fill="white"/>
<path d="M99.6585 87.4936L76.4851 74.0852C75.8308 73.7066 75.3003 72.6912 75.3003 71.8168V69.1896C75.3003 68.3154 75.8308 67.9135 76.4851 68.292L99.6585 81.7003C100.313 82.0788 100.843 83.0945 100.843 83.9688V86.596C100.843 87.4702 100.313 87.8721 99.6585 87.4936Z" fill="#5C84C6" fill-opacity="0.68"/>
<g opacity="0.3">
<path d="M77.6563 73.582C77.0018 73.2033 76.4715 72.1879 76.4715 71.3135V68.6865C76.4715 68.5466 76.4895 68.4235 76.5149 68.3091L76.4851 68.2918C75.8308 67.9131 75.3003 68.315 75.3003 69.1894V71.8166C75.3003 72.691 75.8308 73.7062 76.4851 74.085L99.6585 87.4932C100.208 87.8112 100.666 87.5737 100.8 86.973L77.6563 73.582Z" fill="#06033E"/>
</g>
<path d="M92.3867 80.2927L78.4419 72.2241C78.2116 72.0909 78.0251 71.7336 78.0251 71.426C78.0251 71.1184 78.2116 70.9771 78.4419 71.1103L92.3867 79.1789C92.6168 79.3121 92.8034 79.6694 92.8034 79.977C92.8034 80.2844 92.6168 80.4259 92.3867 80.2927Z" fill="#D4ECFF"/>
<path d="M99.6585 103.206L76.4851 89.7977C75.8308 89.4192 75.3003 88.4035 75.3003 87.5292V84.9022C75.3003 84.0278 75.8308 83.6261 76.4851 84.0046L99.6585 97.4128C100.313 97.7914 100.843 98.807 100.843 99.6814V102.309C100.843 103.183 100.313 103.584 99.6585 103.206Z" fill="#5C84C6" fill-opacity="0.68"/>
<g opacity="0.3">
<path d="M77.6563 89.2947C77.0018 88.916 76.4715 87.9005 76.4715 87.0261V84.3991C76.4715 84.2592 76.4895 84.1362 76.5149 84.0217L76.4851 84.0045C75.8308 83.6258 75.3003 84.0277 75.3003 84.9021V87.5291C75.3003 88.4034 75.8308 89.4189 76.4851 89.7976L99.6585 103.206C100.208 103.524 100.666 103.286 100.8 102.686L77.6563 89.2947Z" fill="#06033E"/>
</g>
<path d="M92.3867 96.0053L78.4419 87.9367C78.2116 87.8035 78.0251 87.4461 78.0251 87.1386C78.0251 86.831 78.2116 86.6897 78.4419 86.823L92.3867 94.8915C92.6168 95.0248 92.8034 95.382 92.8034 95.6896C92.8034 95.9973 92.6168 96.1385 92.3867 96.0053Z" fill="white"/>
<path d="M88.1948 93.5867L78.4419 87.9367C78.2533 87.7436 78.0251 87.446 78.0251 87.1386C78.0251 86.831 78.246 86.7735 78.4239 86.8158L88.1768 92.4658C88.4069 92.599 88.3712 92.8089 88.3712 93.1165C88.3712 93.4241 88.4248 93.7199 88.1948 93.5867Z" fill="#E20F23"/>
<path d="M99.6585 118.607L76.4851 105.199C75.8308 104.82 75.3003 103.805 75.3003 102.93V100.303C75.3003 99.429 75.8308 99.0272 76.4851 99.4058L99.6585 112.814C100.313 113.193 100.843 114.208 100.843 115.083V117.71C100.843 118.584 100.313 118.986 99.6585 118.607Z" fill="#5C84C6" fill-opacity="0.68"/>
<g opacity="0.3">
<path d="M77.6563 104.696C77.0018 104.317 76.4715 103.302 76.4715 102.427V99.8003C76.4715 99.6604 76.4895 99.5374 76.5149 99.4229L76.4851 99.4057C75.8308 99.0269 75.3003 99.4289 75.3003 100.303V102.93C75.3003 103.805 75.8308 104.82 76.4851 105.199L99.6585 118.607C100.208 118.925 100.666 118.688 100.8 118.087L77.6563 104.696Z" fill="#06033E"/>
</g>
<path d="M92.3867 111.407L78.4419 103.338C78.2116 103.205 78.0251 102.847 78.0251 102.54C78.0251 102.232 78.2116 102.091 78.4419 102.224L92.3867 110.293C92.6168 110.426 92.8034 110.783 92.8034 111.091C92.8034 111.398 92.6168 111.54 92.3867 111.407Z" fill="#D4ECFF"/>
<g opacity="0.5">
<path d="M71.6055 32.3835L74.0282 33.7853V43.5954L71.6055 42.1937V32.3835Z" fill="#5C84C6" fill-opacity="0.68"/>
</g>
<g opacity="0.5">
<path d="M71.6055 47.9044L74.0282 49.3063V59.1164L71.6055 57.7147V47.9044Z" fill="#5C84C6" fill-opacity="0.68"/>
</g>
<g opacity="0.5">
<path d="M71.6055 63.4256L74.0282 64.8273V74.6373L71.6055 73.2355V63.4256Z" fill="#5C84C6" fill-opacity="0.68"/>
</g>
<g opacity="0.5">
<path d="M71.6055 78.9464L74.0282 80.3483V90.1583L71.6055 88.7565V78.9464Z" fill="#5C84C6" fill-opacity="0.68"/>
</g>
<g opacity="0.5">
<path d="M71.6055 94.4674L74.0282 95.8692V105.679L71.6055 104.277V94.4674Z" fill="#5C84C6" fill-opacity="0.68"/>
</g>
<path d="M95.1339 50.2673C95.1339 50.5809 94.9144 50.7079 94.6434 50.5512C94.3724 50.3944 94.1528 50.0131 94.1528 49.6998C94.1528 49.3862 94.3724 49.2591 94.6434 49.4159C94.9144 49.5727 95.1339 49.9537 95.1339 50.2673Z" fill="#D4ECFF"/>
<path d="M97.2135 51.4706C97.2135 51.7842 96.9938 51.9112 96.723 51.7545C96.452 51.5977 96.2324 51.2166 96.2324 50.9031C96.2324 50.5895 96.452 50.4624 96.723 50.6192C96.9938 50.776 97.2135 51.157 97.2135 51.4706Z" fill="#FF2C9C"/>
<path d="M99.2932 52.6739C99.2932 52.9873 99.0737 53.1145 98.8027 52.9577C98.5319 52.801 98.3121 52.4199 98.3121 52.1064C98.3121 51.7928 98.5319 51.6657 98.8027 51.8225C99.0737 51.9793 99.2932 52.3603 99.2932 52.6739Z" fill="#D4ECFF"/>
<path d="M95.1339 65.7804C95.1339 66.0938 94.9144 66.2211 94.6434 66.0643C94.3724 65.9075 94.1528 65.5265 94.1528 65.2129C94.1528 64.8993 94.3724 64.7723 94.6434 64.929C94.9144 65.0858 95.1339 65.4669 95.1339 65.7804Z" fill="#FF2C9C"/>
<path d="M97.2135 66.9837C97.2135 67.2973 96.9938 67.4244 96.723 67.2676C96.452 67.1108 96.2324 66.7298 96.2324 66.4162C96.2324 66.1026 96.452 65.9756 96.723 66.1323C96.9938 66.2891 97.2135 66.6702 97.2135 66.9837Z" fill="#D4ECFF"/>
<path d="M97.2135 82.6141C97.2135 82.9277 96.9938 83.0546 96.723 82.8978C96.452 82.741 96.2324 82.36 96.2324 82.0464C96.2324 81.7328 96.452 81.6057 96.723 81.7625C96.9938 81.9193 97.2135 82.3005 97.2135 82.6141Z" fill="#FF2C9C"/>
<path d="M97.2135 98.0167C97.2135 98.3302 96.9938 98.4573 96.723 98.3005C96.452 98.1437 96.2324 97.7627 96.2324 97.4491C96.2324 97.1356 96.452 97.0085 96.723 97.1653C96.9938 97.3221 97.2135 97.7031 97.2135 98.0167Z" fill="#D4ECFF"/>
<path d="M99.2932 99.2199C99.2932 99.5335 99.0737 99.6606 98.8027 99.5038C98.5319 99.347 98.3121 98.9658 98.3121 98.6522C98.3121 98.3388 98.5319 98.2118 98.8027 98.3686C99.0737 98.5253 99.2932 98.9064 99.2932 99.2199Z" fill="#D4ECFF"/>
<path d="M97.2135 113.629C97.2135 113.943 96.9938 114.07 96.723 113.913C96.452 113.756 96.2324 113.375 96.2324 113.062C96.2324 112.748 96.452 112.621 96.723 112.778C96.9938 112.935 97.2135 113.316 97.2135 113.629Z" fill="#FF2C9C"/>
<path d="M99.2932 114.833C99.2932 115.146 99.0737 115.273 98.8027 115.117C98.5319 114.96 98.3121 114.579 98.3121 114.265C98.3121 113.951 98.5319 113.824 98.8027 113.981C99.0737 114.138 99.2932 114.519 99.2932 114.833Z" fill="#D4ECFF"/>
<path d="M109.935 119.325V49.8778L110.078 49.7952L139.039 33.0382V102.485L138.895 102.568L109.935 119.325Z" fill="#5C84C6" fill-opacity="0.68"/>
<path d="M110.508 50.2102V118.329L138.465 102.153V34.0341L110.508 50.2102Z" fill="#5C84C6" fill-opacity="0.68"/>
<path d="M131.515 64.2847L118.53 71.7982C117.657 72.3028 116.95 71.7671 116.95 70.6016V63.3861C116.95 62.2206 117.657 60.8663 118.53 60.3616L131.515 52.8481C132.388 52.3434 133.095 52.8791 133.095 54.0447V61.2602C133.095 62.4257 132.388 63.78 131.515 64.2847Z" fill="#5C84C6" fill-opacity="0.68"/>
<path d="M131.83 52.7082C131.905 52.91 131.948 53.1517 131.948 53.4319V60.6476C131.948 61.8131 131.24 63.167 130.368 63.6717L117.383 71.1854C117.275 71.2479 117.169 71.2939 117.068 71.3251C117.302 71.9624 117.867 72.1817 118.53 71.7982L131.515 64.2846C132.388 63.7798 133.095 62.4259 133.095 61.2603V54.0447C133.095 53.0233 132.552 52.486 131.83 52.7082Z" fill="#5793CE"/>
<path d="M129.144 59.9392C129.384 59.8003 129.578 59.913 129.578 60.1907V61.8342C129.578 62.1121 129.384 62.4499 129.144 62.5888C128.903 62.7278 128.709 62.6153 128.709 62.3373V60.6936C128.709 60.4159 128.903 60.0782 129.144 59.9392Z" fill="white"/>
<path d="M127.281 61.2224C127.521 61.0835 127.715 61.1962 127.715 61.4739V62.9121C127.715 63.1901 127.521 63.5276 127.281 63.6665C127.041 63.8055 126.846 63.693 126.846 63.4151V61.977C126.846 61.6993 127.041 61.3614 127.281 61.2224Z" fill="#D4ECFF"/>
<path d="M125.418 60.6957C125.658 60.5568 125.853 60.6693 125.853 60.9472V63.9899C125.853 64.2678 125.658 64.6055 125.418 64.7445C125.178 64.8834 124.983 64.7709 124.983 64.493V61.4501C124.983 61.1722 125.178 60.8347 125.418 60.6957Z" fill="#FF2C9C"/>
<path d="M123.555 60.0201C123.795 59.8811 123.99 59.9938 123.99 60.2716V65.0678C123.99 65.3457 123.795 65.6833 123.555 65.8222C123.315 65.9612 123.12 65.8487 123.12 65.5708V60.7745C123.12 60.4968 123.315 60.159 123.555 60.0201Z" fill="#D4ECFF"/>
<path d="M121.692 61.601C121.932 61.462 122.127 61.5747 122.127 61.8524V66.1458C122.127 66.4237 121.932 66.7612 121.692 66.9002C121.452 67.0391 121.258 66.9266 121.258 66.6487V62.3554C121.258 62.0776 121.452 61.7399 121.692 61.601Z" fill="#D4ECFF"/>
<path d="M119.829 64.6404C120.07 64.5015 120.264 64.614 120.264 64.8919V67.2235C120.264 67.5014 120.07 67.8391 119.829 67.9781C119.589 68.1171 119.395 68.0044 119.395 67.7264V65.3948C119.395 65.1169 119.589 64.7794 119.829 64.6404Z" fill="white"/>
<path d="M128.716 59.1089C128.716 59.382 128.908 59.4928 129.144 59.3561C129.38 59.2195 129.571 58.8873 129.571 58.6142C129.571 58.3411 129.38 58.2301 129.144 58.3668C128.908 58.5034 128.716 58.8358 128.716 59.1089Z" fill="#FF2C9C"/>
<path d="M128.716 57.5639C128.716 57.837 128.908 57.948 129.144 57.8113C129.38 57.6747 129.571 57.3423 129.571 57.0692C129.571 56.7961 129.38 56.6853 129.144 56.8219C128.908 56.9586 128.716 57.2906 128.716 57.5639Z" fill="white"/>
<path d="M29.0689 130.349L9.21261 118.86C7.99396 118.155 8.14677 116.924 9.55399 116.109L28.7268 105.016C30.134 104.202 32.2626 104.113 33.4813 104.818L53.3376 116.307C54.5563 117.013 54.4035 118.244 52.9962 119.058L33.8234 130.152C32.4162 130.966 30.2876 131.054 29.0689 130.349Z" fill="#9CB8C8"/>
<path d="M31.1445 125.674C30.1735 125.674 29.2375 125.465 28.5054 125.041H28.5049L8.64872 113.552C7.76763 113.042 7.26254 112.25 7.26196 111.378C7.26196 110.402 7.89175 109.478 8.98971 108.843L28.1627 97.7499C29.9366 96.7227 32.4649 96.6372 34.0448 97.5523L53.9019 109.041C54.7828 109.551 55.2881 110.343 55.2881 111.214C55.2881 112.19 54.6581 113.114 53.5598 113.749L34.3875 124.843C33.4357 125.394 32.2671 125.674 31.1445 125.674Z" fill="#A0BBCB"/>
<path d="M29.6326 123.083C30.5091 123.59 32.2026 123.497 33.2595 122.886L52.4323 111.792C52.9144 111.513 53.0301 111.261 53.0328 111.214C53.0261 111.2 52.9615 111.107 52.7744 110.999L32.9171 99.5094C32.0423 99.0032 30.3484 99.0952 29.2904 99.7072L10.118 110.8C9.63588 111.079 9.52094 111.331 9.51807 111.379C9.52476 111.393 9.5894 111.486 9.77644 111.594L29.6332 123.083H29.6326Z" fill="#A0BBCB"/>
<path d="M54.154 104.174V97.3082L38.7914 97.2996L33.4812 94.227C32.2625 93.5219 30.1339 93.6104 28.7267 94.4246L23.7726 97.2912L8.39606 97.2826V104.344C8.36144 104.821 8.6269 105.282 9.2125 105.621L29.0688 117.11C30.2875 117.815 32.4161 117.726 33.8233 116.912L52.9961 105.819C53.8078 105.349 54.1995 104.74 54.154 104.174Z" fill="#396CAA"/>
<path d="M31.2753 93.7547C30.3835 93.7764 29.4578 94.0016 28.7267 94.4246L23.7726 97.2912L8.39606 97.2825V104.344C8.36144 104.821 8.6269 105.282 9.2125 105.621L29.0688 117.11C29.6544 117.449 30.4504 117.602 31.2753 117.582V93.7547Z" fill="#5D91C7"/>
<path d="M29.3748 117.26C30.4259 117.711 31.9463 117.686 33.1755 117.216V109.198H29.3748V117.26Z" fill="#5793CE"/>
<path d="M29.0689 110.074L9.21261 98.5847C7.99396 97.8796 8.14677 96.6479 9.55399 95.8337L28.7268 84.7401C30.134 83.9259 32.2626 83.8375 33.4813 84.5427L53.3376 96.0317C54.5563 96.7369 54.4035 97.9683 52.9962 98.7825L33.8234 109.876C32.4162 110.69 30.2876 110.779 29.0689 110.074Z" fill="#CCE7FC"/>
<path d="M46.8506 105.986C46.8506 106.499 46.4916 107.122 46.0487 107.378C45.6057 107.635 45.2466 107.427 45.2466 106.914C45.2466 106.402 45.6057 105.779 46.0487 105.522C46.4916 105.266 46.8506 105.474 46.8506 105.986Z" fill="#D4ECFF"/>
<path d="M49.4309 104.493C49.4309 105.006 49.0719 105.629 48.629 105.885C48.1861 106.142 47.8269 105.934 47.8269 105.421C47.8269 104.909 48.1861 104.285 48.629 104.029C49.0719 103.773 49.4309 103.981 49.4309 104.493Z" fill="#D4ECFF"/>
<path d="M52.0112 103C52.0112 103.513 51.6523 104.136 51.2093 104.392C50.7664 104.649 50.4072 104.441 50.4072 103.928C50.4072 103.416 50.7664 102.792 51.2093 102.536C51.6523 102.28 52.0112 102.488 52.0112 103Z" fill="#D4ECFF"/>
<path d="M30.2431 102.951L20.9514 97.5745C20.3811 97.2446 20.4526 96.6681 21.1111 96.2871L30.083 91.096C30.7415 90.7149 31.7375 90.6733 32.3079 91.0034L41.5995 96.3796C42.1698 96.7097 42.0983 97.286 41.4398 97.6671L32.4679 102.858C31.8095 103.239 30.8134 103.281 30.2431 102.951Z" fill="#5793CE"/>
<path d="M31.1326 98.4492L29.847 97.7054C29.768 97.6598 29.778 97.58 29.8692 97.5273L31.1104 96.809C31.2016 96.7562 31.3393 96.7507 31.4183 96.7963L32.7039 97.54C32.7827 97.5856 32.7727 97.6655 32.6817 97.7182L31.4403 98.4364C31.3493 98.4891 31.2116 98.4949 31.1326 98.4492Z" fill="#D4ECFF"/>
<path d="M20.9514 97.5745L20.9776 97.5896C21.0208 97.5586 21.061 97.5266 21.1111 97.4976L30.083 92.3065C30.7415 91.9255 31.7375 91.8839 32.3079 92.2139L41.5733 97.5751C42.0989 97.198 42.1264 96.6846 41.5995 96.3796L32.3079 91.0034C31.7375 90.6733 30.7415 90.7149 30.083 91.096L21.1111 96.2871C20.4526 96.6681 20.3811 97.2444 20.9514 97.5745Z" fill="#396CAA"/>
<path d="M35.2996 164.791L22.3022 157.27L35.2992 149.75L48.2966 157.271L35.2996 164.791Z" fill="#9CB8C8"/>
<path d="M35.2997 160.134C35.1289 160.134 34.9587 160.09 34.8059 160.001L21.8083 152.481C21.5027 152.304 21.314 151.977 21.314 151.623C21.314 151.27 21.5027 150.942 21.8083 150.765L34.8053 143.246C35.1109 143.069 35.4873 143.069 35.7929 143.246L48.7905 150.765C49.0961 150.942 49.2848 151.27 49.2848 151.623C49.2848 151.977 49.0967 152.304 48.7905 152.481L35.7935 160.001C35.6407 160.09 35.4705 160.134 35.2997 160.134Z" fill="#A0BBCB"/>
<path d="M24.2783 151.623L35.2997 158L46.3205 151.623L35.2991 145.247L24.2783 151.623Z" fill="#A0BBCB"/>
<path d="M35.2997 153.267L22.3027 145.747V130.707L35.2997 138.227V153.267Z" fill="#396CAA"/>
<path d="M48.2968 145.747L35.2998 153.267V138.227L48.2968 130.707V145.747Z" fill="#7A92B6"/>
<path d="M35.2997 138.227L22.3027 130.707L35.2993 123.187L48.2963 130.707L35.2997 138.227Z" fill="#CCE7FC"/>
<path d="M180.459 84.0992L167.461 76.5788L180.458 69.0587L193.456 76.5789L180.459 84.0992Z" fill="#9CB8C8"/>
<path d="M180.459 79.4424C180.288 79.4424 180.118 79.398 179.965 79.3096L166.967 71.789C166.662 71.6121 166.473 71.2851 166.473 70.9315C166.473 70.5778 166.662 70.2507 166.967 70.0738L179.964 62.5539C180.27 62.377 180.646 62.377 180.952 62.5539L193.949 70.0738C194.255 70.2507 194.444 70.5778 194.444 70.9315C194.444 71.2851 194.255 71.6121 193.949 71.789L180.952 79.3096C180.8 79.398 180.629 79.4424 180.459 79.4424Z" fill="#A0BBCB"/>
<path d="M169.437 70.9315L180.458 77.3084L191.479 70.9315L180.458 64.5551L169.437 70.9315Z" fill="#A0BBCB"/>
<path d="M180.458 72.5756L167.461 65.0554V50.0155L180.458 57.5357V72.5756Z" fill="#396CAA"/>
<path d="M193.455 65.0554L180.458 72.5756V57.5357L193.455 50.0155V65.0554Z" fill="#7A92B6"/>
<path d="M180.458 57.5357L167.461 50.0155L180.458 42.4956L193.455 50.0157L180.458 57.5357Z" fill="#CCE7FC"/>
<path d="M175.567 130.349L155.711 118.86C154.492 118.155 154.645 116.924 156.052 116.109L175.225 105.016C176.632 104.202 178.761 104.113 179.979 104.818L199.836 116.307C201.054 117.013 200.902 118.244 199.494 119.058L180.322 130.152C178.914 130.966 176.786 131.054 175.567 130.349Z" fill="#9CB8C8"/>
<path d="M177.642 125.674C176.671 125.674 175.735 125.465 175.003 125.041H175.002L155.146 113.552C154.265 113.042 153.76 112.25 153.76 111.378C153.76 110.402 154.389 109.478 155.487 108.843L174.66 97.7499C176.434 96.7227 178.962 96.6372 180.542 97.5523L200.399 109.041C201.28 109.551 201.786 110.343 201.786 111.214C201.786 112.19 201.156 113.114 200.057 113.749L180.885 124.843C179.933 125.394 178.765 125.674 177.642 125.674Z" fill="#A0BBCB"/>
<path d="M176.13 123.083C177.007 123.59 178.7 123.497 179.757 122.886L198.93 111.792C199.412 111.513 199.528 111.261 199.53 111.214C199.524 111.2 199.459 111.107 199.272 110.999L179.415 99.5094C178.54 99.0032 176.846 99.0952 175.788 99.7072L156.615 110.8C156.133 111.079 156.018 111.331 156.016 111.379C156.022 111.393 156.087 111.486 156.274 111.594L176.131 123.083H176.13Z" fill="#A0BBCB"/>
<path d="M200.652 104.174V97.3082L185.29 97.2996L179.979 94.227C178.761 93.5219 176.632 93.6104 175.225 94.4246L170.271 97.2912L154.894 97.2826V104.344C154.86 104.821 155.125 105.282 155.711 105.621L175.567 117.11C176.786 117.815 178.914 117.726 180.322 116.912L199.494 105.819C200.306 105.349 200.698 104.74 200.652 104.174Z" fill="#396CAA"/>
<path d="M177.774 93.7547C176.882 93.7764 175.956 94.0016 175.225 94.4246L170.271 97.2912L154.894 97.2825V104.344C154.86 104.821 155.125 105.282 155.711 105.621L175.567 117.11C176.153 117.449 176.949 117.602 177.774 117.582V93.7547Z" fill="#5D91C7"/>
<path d="M175.873 117.26C176.924 117.711 178.444 117.686 179.674 117.216V109.198H175.873V117.26Z" fill="#5793CE"/>
<path d="M175.567 110.074L155.711 98.5847C154.492 97.8796 154.645 96.6479 156.052 95.8337L175.225 84.7401C176.632 83.9259 178.761 83.8375 179.979 84.5427L199.836 96.0317C201.054 96.7369 200.902 97.9683 199.494 98.7825L180.322 109.876C178.914 110.69 176.786 110.779 175.567 110.074Z" fill="#CCE7FC"/>
<path d="M193.349 105.986C193.349 106.499 192.99 107.122 192.547 107.378C192.104 107.635 191.745 107.427 191.745 106.914C191.745 106.402 192.104 105.779 192.547 105.522C192.99 105.266 193.349 105.474 193.349 105.986Z" fill="#D4ECFF"/>
<path d="M195.929 104.493C195.929 105.006 195.57 105.629 195.127 105.885C194.684 106.142 194.325 105.934 194.325 105.421C194.325 104.909 194.684 104.285 195.127 104.029C195.57 103.773 195.929 103.981 195.929 104.493Z" fill="#D4ECFF"/>
<path d="M198.509 103C198.509 103.513 198.15 104.136 197.707 104.392C197.265 104.649 196.905 104.441 196.905 103.928C196.905 103.416 197.265 102.792 197.707 102.536C198.15 102.28 198.509 102.488 198.509 103Z" fill="#D4ECFF"/>
<path d="M176.741 102.951L167.449 97.5745C166.879 97.2446 166.951 96.6681 167.609 96.2871L176.581 91.096C177.24 90.7149 178.236 90.6733 178.806 91.0034L188.098 96.3796C188.668 96.7097 188.596 97.286 187.938 97.6671L178.966 102.858C178.308 103.239 177.311 103.281 176.741 102.951Z" fill="#5793CE"/>
<path d="M177.631 98.4492L176.345 97.7054C176.266 97.6598 176.276 97.58 176.367 97.5273L177.608 96.809C177.7 96.7562 177.837 96.7507 177.916 96.7963L179.202 97.54C179.281 97.5856 179.271 97.6655 179.18 97.7182L177.938 98.4364C177.847 98.4891 177.71 98.4949 177.631 98.4492Z" fill="#D4ECFF"/>
<path d="M167.449 97.5745L167.476 97.5896C167.519 97.5586 167.559 97.5266 167.609 97.4976L176.581 92.3065C177.24 91.9255 178.236 91.8839 178.806 92.2139L188.071 97.5751C188.597 97.198 188.624 96.6846 188.098 96.3796L178.806 91.0034C178.236 90.6733 177.24 90.7149 176.581 91.096L167.609 96.2871C166.951 96.6681 166.879 97.2444 167.449 97.5745Z" fill="#396CAA"/>
<path d="M175.104 164.791L162.106 157.27L175.103 149.75L188.101 157.271L175.104 164.791Z" fill="#9CB8C8"/>
<path d="M175.104 160.134C174.933 160.134 174.763 160.09 174.61 160.001L161.612 152.481C161.307 152.304 161.118 151.977 161.118 151.623C161.118 151.27 161.307 150.942 161.612 150.765L174.609 143.246C174.915 143.069 175.291 143.069 175.597 143.246L188.594 150.765C188.9 150.942 189.089 151.27 189.089 151.623C189.089 151.977 188.9 152.304 188.594 152.481L175.597 160.001C175.445 160.09 175.274 160.134 175.104 160.134Z" fill="#A0BBCB"/>
<path d="M164.082 151.623L175.104 158L186.124 151.623L175.103 145.247L164.082 151.623Z" fill="#A0BBCB"/>
<path d="M175.103 153.267L162.106 145.747V130.707L175.103 138.227V153.267Z" fill="#396CAA"/>
<path d="M188.1 145.747L175.103 153.267V138.227L188.1 130.707V145.747Z" fill="#7A92B6"/>
<path d="M175.103 138.227L162.106 130.707L175.103 123.187L188.1 130.707L175.103 138.227Z" fill="#CCE7FC"/>
<path d="M102.605 181.141L82.7483 169.652C81.5296 168.947 81.6824 167.715 83.0896 166.901L102.262 155.807C103.67 154.993 105.798 154.905 107.017 155.61L126.873 167.099C128.092 167.804 127.939 169.036 126.532 169.85L107.359 180.944C105.952 181.758 103.823 181.846 102.605 181.141Z" fill="#9CB8C8"/>
<path d="M104.68 176.465C103.709 176.465 102.773 176.256 102.041 175.832H102.041L82.1844 164.343C81.3033 163.834 80.7982 163.041 80.7976 162.17C80.7976 161.194 81.4274 160.27 82.5254 159.635L101.698 148.542C103.472 147.514 106.001 147.429 107.58 148.344L127.438 159.833C128.318 160.343 128.824 161.135 128.824 162.006C128.824 162.982 128.194 163.906 127.095 164.541L107.923 175.635C106.971 176.185 105.803 176.465 104.68 176.465Z" fill="#A0BBCB"/>
<path d="M103.168 173.875C104.044 174.381 105.738 174.289 106.795 173.677L125.968 162.584C126.45 162.305 126.566 162.053 126.568 162.005C126.562 161.992 126.497 161.899 126.31 161.79L106.453 150.301C105.578 149.795 103.884 149.887 102.826 150.499L83.6534 161.592C83.1713 161.871 83.0563 162.123 83.0535 162.17C83.0602 162.184 83.1248 162.277 83.3118 162.386L103.169 173.875H103.168Z" fill="#A0BBCB"/>
<path d="M127.69 154.966V148.1L112.327 148.091L107.017 145.019C105.798 144.314 103.67 144.402 102.262 145.216L97.3082 148.083L81.9317 148.074V155.136C81.8971 155.613 82.1625 156.074 82.7481 156.412L102.604 167.901C103.823 168.607 105.952 168.518 107.359 167.704L126.532 156.61C127.343 156.141 127.735 155.532 127.69 154.966Z" fill="#396CAA"/>
<path d="M104.811 144.546C103.919 144.568 102.993 144.793 102.262 145.216L97.3082 148.083L81.9317 148.074V155.136C81.8971 155.613 82.1625 156.074 82.7481 156.412L102.604 167.901C103.19 168.24 103.986 168.394 104.811 168.374V144.546Z" fill="#5D91C7"/>
<path d="M102.91 168.051C103.962 168.503 105.482 168.478 106.711 168.008V159.99H102.91V168.051Z" fill="#5793CE"/>
<path d="M102.605 160.865L82.7483 149.376C81.5296 148.671 81.6824 147.44 83.0896 146.625L102.262 135.532C103.67 134.718 105.798 134.629 107.017 135.334L126.873 146.823C128.092 147.529 127.939 148.76 126.532 149.574L107.359 160.668C105.952 161.482 103.823 161.57 102.605 160.865Z" fill="#CCE7FC"/>
<path d="M120.386 156.778C120.386 157.291 120.027 157.914 119.584 158.17C119.141 158.426 118.782 158.219 118.782 157.706C118.782 157.194 119.141 156.57 119.584 156.314C120.027 156.058 120.386 156.265 120.386 156.778Z" fill="#D4ECFF"/>
<path d="M122.967 155.285C122.967 155.797 122.608 156.421 122.165 156.677C121.722 156.933 121.363 156.725 121.363 156.213C121.363 155.7 121.722 155.077 122.165 154.821C122.608 154.565 122.967 154.772 122.967 155.285Z" fill="#D4ECFF"/>
<path d="M125.547 153.792C125.547 154.304 125.188 154.928 124.745 155.184C124.302 155.44 123.943 155.233 123.943 154.72C123.943 154.208 124.302 153.584 124.745 153.328C125.188 153.072 125.547 153.279 125.547 153.792Z" fill="#D4ECFF"/>
<path d="M103.779 153.742L94.4871 148.366C93.9168 148.036 93.9883 147.46 94.6468 147.079L103.619 141.888C104.277 141.507 105.273 141.465 105.843 141.795L115.135 147.171C115.705 147.501 115.634 148.078 114.975 148.459L106.004 153.65C105.345 154.031 104.349 154.072 103.779 153.742Z" fill="#5793CE"/>
<path d="M104.668 149.241L103.383 148.497C103.304 148.451 103.314 148.372 103.405 148.319L104.646 147.601C104.737 147.548 104.875 147.542 104.954 147.588L106.24 148.332C106.318 148.377 106.308 148.457 106.217 148.51L104.976 149.228C104.885 149.281 104.747 149.287 104.668 149.241Z" fill="#D4ECFF"/>
<path d="M94.4871 148.366L94.5133 148.381C94.5565 148.35 94.5967 148.318 94.6468 148.289L103.619 143.098C104.277 142.717 105.273 142.676 105.843 143.006L115.109 148.367C115.635 147.99 115.662 147.476 115.135 147.171L105.843 141.795C105.273 141.465 104.277 141.507 103.619 141.888L94.6468 147.079C93.9883 147.46 93.9168 148.036 94.4871 148.366Z" fill="#396CAA"/>
<path d="M33.8653 84.0992L20.8679 76.5788L33.8649 69.0587L46.8622 76.5789L33.8653 84.0992Z" fill="#9CB8C8"/>
<path d="M33.8654 79.4424C33.6946 79.4424 33.5244 79.398 33.3716 79.3096L20.374 71.789C20.0684 71.6121 19.8796 71.2851 19.8796 70.9315C19.8796 70.5778 20.0684 70.2507 20.374 70.0738L33.371 62.5539C33.6766 62.377 34.053 62.377 34.3586 62.5539L47.3561 70.0738C47.6618 70.2507 47.8505 70.5778 47.8505 70.9315C47.8505 71.2851 47.6623 71.6121 47.3561 71.789L34.3592 79.3096C34.2064 79.398 34.0362 79.4424 33.8654 79.4424Z" fill="#A0BBCB"/>
<path d="M22.844 70.9315L33.8653 77.3084L44.8861 70.9315L33.8648 64.5551L22.844 70.9315Z" fill="#A0BBCB"/>
<path d="M33.8651 72.5756L20.8682 65.0554V50.0155L33.8651 57.5357V72.5756Z" fill="#396CAA"/>
<path d="M46.8622 65.0554L33.8652 72.5756V57.5357L46.8622 50.0155V65.0554Z" fill="#7A92B6"/>
<path d="M33.8651 57.5357L20.8682 50.0155L33.8647 42.4956L46.8617 50.0157L33.8651 57.5357Z" fill="#CCE7FC"/>
<defs>
<linearGradient id="paint0_linear_53_999" x1="-105.539" y1="352.521" x2="-68.1197" y2="364.104" gradientUnits="userSpaceOnUse">
<stop stop-color="#3919BB"/>
<stop offset="0.5" stop-color="#4F10DB"/>
<stop offset="1" stop-color="#6507FA"/>
</linearGradient>
<linearGradient id="paint1_linear_53_999" x1="-105.539" y1="352.521" x2="-68.1197" y2="364.104" gradientUnits="userSpaceOnUse">
<stop stop-color="#3919BB"/>
<stop offset="0.5" stop-color="#4F10DB"/>
<stop offset="1" stop-color="#6507FA"/>
</linearGradient>
</defs>
</svg>
