<svg width="60" height="60" viewBox="0 0 60 60" fill="none" xmlns="http://www.w3.org/2000/svg">
<path opacity="0.21" fill-rule="evenodd" clip-rule="evenodd" d="M0 30V37C0 49.7025 10.2975 60 23 60H30H37C49.7025 60 60 49.7025 60 37V30V23C60 10.2975 49.7025 0 37 0H30H23C10.2975 0 0 10.2975 0 23V30Z" fill="#F1E2CD"/>
<path fill-rule="evenodd" clip-rule="evenodd" d="M29.535 17H35.4637C38.1137 17 40.213 17 41.8552 17.2197C43.545 17.4466 44.9133 17.9233 45.9932 18.9973C47.0716 20.0728 47.5503 21.4355 47.7781 23.1184C47.9987 24.7553 47.9987 26.8445 47.9987 29.4837V32.4359C47.9987 32.7215 47.8848 32.9954 47.682 33.1974C47.4792 33.3994 47.2042 33.5128 46.9174 33.5128C46.6306 33.5128 46.3555 33.3994 46.1527 33.1974C45.9499 32.9954 45.836 32.7215 45.836 32.4359V32.0769H19.1627V32.4359C19.1627 35.1742 19.1656 37.1198 19.3646 38.5959C19.5592 40.039 19.9254 40.8718 20.5353 41.4792C21.1452 42.0866 21.9814 42.4513 23.4319 42.6451C24.914 42.8433 26.8662 42.8462 29.6158 42.8462H33.9412C34.228 42.8462 34.503 42.9596 34.7058 43.1616C34.9086 43.3635 35.0225 43.6375 35.0225 43.9231C35.0225 44.2087 34.9086 44.4826 34.7058 44.6846C34.503 44.8865 34.228 45 33.9412 45H29.535C26.885 45 24.7857 45 23.1435 44.7803C21.4537 44.5534 20.0855 44.0767 19.0055 43.0027C17.9271 41.9272 17.4484 40.5645 17.2206 38.8816C17 37.2447 17 35.1555 17 32.5163V29.4837C17 26.8445 17 24.7538 17.2206 23.1184C17.4484 21.4355 17.9271 20.0728 19.0055 18.9973C20.0855 17.9233 21.4537 17.4466 23.1435 17.2197C24.7872 17 26.885 17 29.535 17ZM19.1627 29.9231H45.836V29.5641C45.836 26.8258 45.8331 24.8816 45.6342 23.4041C45.4395 21.961 45.0733 21.1282 44.4634 20.5208C43.8535 19.9134 43.0173 19.5487 41.5668 19.3549C40.0861 19.1567 38.1325 19.1538 35.383 19.1538H29.6158C26.8662 19.1538 24.914 19.1567 23.4304 19.3549C21.9814 19.5487 21.1452 19.9134 20.5353 20.5208C19.9254 21.1282 19.5592 21.961 19.3646 23.4055C19.1656 24.8816 19.1627 26.8258 19.1627 29.5641V29.9231ZM23.8486 22.0256C24.1353 22.0256 24.4104 22.1391 24.6132 22.3411C24.816 22.543 24.9299 22.8169 24.9299 23.1026V25.9744C24.9299 26.26 24.816 26.5339 24.6132 26.7359C24.4104 26.9378 24.1353 27.0513 23.8486 27.0513C23.5618 27.0513 23.2867 26.9378 23.0839 26.7359C22.8811 26.5339 22.7672 26.26 22.7672 25.9744V23.1026C22.7672 22.8169 22.8811 22.543 23.0839 22.3411C23.2867 22.1391 23.5618 22.0256 23.8486 22.0256ZM28.174 22.0256C28.4607 22.0256 28.7358 22.1391 28.9386 22.3411C29.1414 22.543 29.2553 22.8169 29.2553 23.1026V25.9744C29.2553 26.26 29.1414 26.5339 28.9386 26.7359C28.7358 26.9378 28.4607 27.0513 28.174 27.0513C27.8872 27.0513 27.6121 26.9378 27.4093 26.7359C27.2065 26.5339 27.0926 26.26 27.0926 25.9744V23.1026C27.0926 22.8169 27.2065 22.543 27.4093 22.3411C27.6121 22.1391 27.8872 22.0256 28.174 22.0256ZM33.5807 24.5385C33.5807 24.2528 33.6946 23.9789 33.8974 23.777C34.1002 23.575 34.3753 23.4615 34.6621 23.4615H41.1502C41.437 23.4615 41.712 23.575 41.9148 23.777C42.1176 23.9789 42.2315 24.2528 42.2315 24.5385C42.2315 24.8241 42.1176 25.098 41.9148 25.3C41.712 25.5019 41.437 25.6154 41.1502 25.6154H34.6621C34.3753 25.6154 34.1002 25.5019 33.8974 25.3C33.6946 25.098 33.5807 24.8241 33.5807 24.5385ZM36.7224 37.8248C37.2833 35.6753 39.4964 34.2308 41.8783 34.2308C43.7194 34.2308 45.3963 35.0636 46.3565 36.4062C46.4389 36.5214 46.4976 36.6516 46.5295 36.7894C46.5613 36.9273 46.5655 37.07 46.542 37.2095C46.5184 37.3489 46.4675 37.4824 46.3921 37.6023C46.3168 37.7222 46.2184 37.8261 46.1027 37.9081C45.9871 37.9901 45.8563 38.0487 45.7179 38.0804C45.5795 38.112 45.4362 38.1163 45.2961 38.0928C45.1561 38.0693 45.0221 38.0186 44.9017 37.9436C44.7813 37.8685 44.677 37.7706 44.5946 37.6554C44.0756 36.9303 43.0836 36.3846 41.8783 36.3846C40.484 36.3846 39.446 37.0767 38.9947 37.9354C39.1539 38.0152 39.2908 38.133 39.3932 38.2782C39.4957 38.4235 39.5605 38.5917 39.5819 38.7679C39.6033 38.9441 39.5806 39.1229 39.5159 39.2883C39.4512 39.4537 39.3464 39.6006 39.2109 39.7159L38.3704 40.4338C38.1744 40.6011 37.9248 40.693 37.6668 40.693C37.4087 40.693 37.1591 40.6011 36.9632 40.4338L36.1212 39.7159C35.9596 39.5785 35.8423 39.3967 35.7838 39.1932C35.7254 38.9898 35.7284 38.7737 35.7926 38.5719C35.8567 38.3702 35.9791 38.1918 36.1445 38.0589C36.3098 37.926 36.5108 37.8446 36.7224 37.8248ZM23.8486 34.9487C24.1353 34.9487 24.4104 35.0622 24.6132 35.2641C24.816 35.4661 24.9299 35.74 24.9299 36.0256V38.8974C24.9299 39.1831 24.816 39.457 24.6132 39.6589C24.4104 39.8609 24.1353 39.9744 23.8486 39.9744C23.5618 39.9744 23.2867 39.8609 23.0839 39.6589C22.8811 39.457 22.7672 39.1831 22.7672 38.8974V36.0256C22.7672 35.74 22.8811 35.4661 23.0839 35.2641C23.2867 35.0622 23.5618 34.9487 23.8486 34.9487ZM28.174 34.9487C28.4607 34.9487 28.7358 35.0622 28.9386 35.2641C29.1414 35.4661 29.2553 35.74 29.2553 36.0256V38.8974C29.2553 39.1831 29.1414 39.457 28.9386 39.6589C28.7358 39.8609 28.4607 39.9744 28.174 39.9744C27.8872 39.9744 27.6121 39.8609 27.4093 39.6589C27.2065 39.457 27.0926 39.1831 27.0926 38.8974V36.0256C27.0926 35.74 27.2065 35.4661 27.4093 35.2641C27.6121 35.0622 27.8872 34.9487 28.174 34.9487ZM45.3718 38.7969C45.5677 38.6297 45.8173 38.5378 46.0754 38.5378C46.3334 38.5378 46.583 38.6297 46.779 38.7969L47.621 39.5149C47.7825 39.6523 47.8999 39.8341 47.9583 40.0375C48.0167 40.241 48.0137 40.4571 47.9496 40.6588C47.8854 40.8606 47.763 41.039 47.5977 41.1719C47.4323 41.3048 47.2313 41.3862 47.0197 41.4059C46.4589 43.5555 44.2457 45 41.8639 45C40.0227 45 38.3459 44.1672 37.3856 42.8246C37.3033 42.7094 37.2445 42.5792 37.2127 42.4413C37.1808 42.3035 37.1766 42.1608 37.2002 42.0213C37.2237 41.8818 37.2746 41.7484 37.35 41.6285C37.4254 41.5086 37.5237 41.4047 37.6394 41.3227C37.7551 41.2406 37.8858 41.1821 38.0242 41.1504C38.1626 41.1187 38.306 41.1145 38.446 41.138C38.586 41.1614 38.7201 41.2121 38.8404 41.2872C38.9608 41.3622 39.0651 41.4602 39.1475 41.5754C39.6665 42.3005 40.6585 42.8462 41.8639 42.8462C43.2581 42.8462 44.2962 42.1541 44.7475 41.2954C44.5883 41.2156 44.4514 41.0978 44.3489 40.9525C44.2465 40.8073 44.1816 40.6391 44.1602 40.4628C44.1388 40.2866 44.1615 40.1079 44.2262 39.9425C44.2909 39.7771 44.3957 39.6302 44.5312 39.5149L45.3718 38.7969Z" fill="#599FD5"/>
</svg>
