<svg width="65" height="50" viewBox="0 0 65 50" fill="none" xmlns="http://www.w3.org/2000/svg">
<path d="M64.3333 32.0013H1V48.7929H64.3333V32.0013Z" fill="#00E096" stroke="black" stroke-linejoin="round"/>
<path d="M50.875 43.6263C53.0611 43.6263 54.8333 42.1805 54.8333 40.3971C54.8333 38.6137 53.0611 37.1679 50.875 37.1679C48.6889 37.1679 46.9166 38.6137 46.9166 40.3971C46.9166 42.1805 48.6889 43.6263 50.875 43.6263Z" fill="white"/>
<path d="M1 32.001L8.97742 1H56.4491L64.3333 32.001" stroke="black" stroke-linejoin="round"/>
<path d="M24.7595 15.243C21.3672 15.243 18.4166 17.1631 18.4166 19.747C18.4166 22.9593 21.7332 24.251 25.854 24.251C26.5608 24.251 27.2147 24.251 27.8799 24.251" stroke="black" stroke-linecap="round" stroke-linejoin="round"/>
<path d="M40.5944 15.243C43.9145 15.243 46.9167 16.5005 46.9167 19.747C46.9167 22.9593 43.5761 24.251 39.4555 24.251C38.7486 24.251 38.0521 24.251 37.3962 24.251" stroke="black" stroke-linecap="round" stroke-linejoin="round"/>
<path d="M40.5943 15.2433C40.5943 11.3892 37.4533 8.75125 32.6664 8.75125C27.8797 8.75125 24.7594 11.3252 24.7594 15.2433" stroke="black" stroke-linecap="round" stroke-linejoin="round"/>
<path d="M26.3334 24.2513H39" stroke="black"/>
</svg>
