<svg width="60" height="60" viewBox="0 0 60 60" fill="none" xmlns="http://www.w3.org/2000/svg">
<path opacity="0.21" fill-rule="evenodd" clip-rule="evenodd" d="M0 30V37C0 49.7025 10.2975 60 23 60H30H37C49.7025 60 60 49.7025 60 37V30V23C60 10.2975 49.7025 0 37 0H30H23C10.2975 0 0 10.2975 0 23V30Z" fill="#EFC386"/>
<path d="M26.3595 44.1616H20.2833C20.0658 44.1616 19.8572 44.0752 19.7034 43.9214C19.5496 43.7676 19.4633 43.559 19.4633 43.3416V37.1916C19.4633 36.9741 19.5496 36.7655 19.7034 36.6117C19.8572 36.4579 20.0658 36.3716 20.2833 36.3716H26.3595C26.5769 36.3716 26.7855 36.4579 26.9393 36.6117C27.0931 36.7655 27.1795 36.9741 27.1795 37.1916V43.3416C27.1795 43.559 27.0931 43.7676 26.9393 43.9214C26.7855 44.0752 26.5769 44.1616 26.3595 44.1616ZM21.1033 42.5216H25.5395V38.0116H21.1033V42.5216Z" fill="#EA9010"/>
<path d="M34.42 41.1194C33.5695 41.1226 32.7371 40.8734 32.0284 40.4032C31.3196 39.933 30.7663 39.2631 30.4386 38.4783C30.1109 37.6934 30.0234 36.829 30.1874 35.9944C30.3513 35.1598 30.7593 34.3927 31.3595 33.7901C31.9598 33.1875 32.7254 32.7767 33.5593 32.6096C34.3932 32.4424 35.258 32.5266 36.0441 32.8513C36.8302 33.176 37.5023 33.7267 37.9751 34.4337C38.448 35.1406 38.7004 35.972 38.7004 36.8226C38.7015 37.3857 38.5916 37.9436 38.3771 38.4644C38.1626 38.9851 37.8476 39.4585 37.4501 39.8575C37.0526 40.2565 36.5805 40.5733 36.0606 40.7898C35.5407 41.0063 34.9832 41.1183 34.42 41.1194V41.1194ZM34.42 34.1658C33.8939 34.1625 33.3786 34.3156 32.9395 34.6055C32.5005 34.8955 32.1574 35.3093 31.9538 35.7944C31.7502 36.2796 31.6952 36.8143 31.7959 37.3307C31.8965 37.8472 32.1483 38.3221 32.5192 38.6953C32.8901 39.0685 33.3634 39.3232 33.8792 39.427C34.395 39.5309 34.9301 39.4792 35.4165 39.2787C35.9029 39.0781 36.3188 38.7375 36.6115 38.3003C36.9042 37.863 37.0604 37.3487 37.0604 36.8226C37.0615 36.4747 36.9941 36.1301 36.8619 35.8084C36.7298 35.4866 36.5356 35.194 36.2905 34.9473C36.0453 34.7006 35.7539 34.5046 35.433 34.3705C35.112 34.2364 34.7678 34.1668 34.42 34.1658V34.1658Z" fill="#EA9010"/>
<path d="M25.5804 33.395H17.897C17.7517 33.3948 17.6091 33.3559 17.4837 33.2825C17.3584 33.209 17.2548 33.1035 17.1836 32.9768C17.1116 32.8522 17.0737 32.7108 17.0737 32.5668C17.0737 32.4229 17.1116 32.2815 17.1836 32.1568L21.0294 25.7444C21.1025 25.6239 21.2054 25.5243 21.3282 25.4552C21.451 25.386 21.5896 25.3497 21.7305 25.3497C21.8714 25.3497 22.01 25.386 22.1328 25.4552C22.2556 25.5243 22.3585 25.6239 22.4316 25.7444L26.2774 32.1568C26.3494 32.2815 26.3872 32.4229 26.3872 32.5668C26.3872 32.7108 26.3494 32.8522 26.2774 32.9768C26.2076 33.1011 26.1066 33.205 25.9844 33.2784C25.8621 33.3517 25.7229 33.3919 25.5804 33.395V33.395ZM19.3402 31.755H24.1372L21.7428 27.7616L19.3402 31.755Z" fill="#EA9010"/>
<path d="M28.4094 48.77C23.1696 48.77 14.8794 47.581 14.7728 44.3912L11.0582 16.831C11.0158 16.6135 11.0615 16.3881 11.1853 16.2044C11.3091 16.0206 11.5008 15.8935 11.7183 15.8511C11.9358 15.8087 12.1612 15.8544 12.3449 15.9782C12.5287 16.102 12.6558 16.2937 12.6982 16.5112C13.1082 18.0938 19.2992 20.3078 28.4422 20.3078C37.5852 20.3078 43.768 18.0938 44.178 16.5112C44.2204 16.2937 44.3474 16.102 44.5312 15.9782C44.715 15.8544 44.9404 15.8087 45.1579 15.8511C45.3754 15.8935 45.5671 16.0206 45.6909 16.2044C45.8147 16.3881 45.8604 16.6135 45.818 16.831L42.0378 44.3912C42.0378 45.4736 41.0374 46.4002 39.1596 47.1464C38.3262 47.4639 37.4712 47.7214 36.6012 47.9172C33.9099 48.4996 31.1629 48.7856 28.4094 48.77V48.77ZM13.018 19.0614L16.38 44.26C16.38 44.26 16.38 44.3338 16.38 44.3666C16.38 45.3342 21.0458 47.171 28.3766 47.171C31.0063 47.1852 33.6297 46.9103 36.1994 46.351C36.9891 46.1628 37.7646 45.9189 38.52 45.6212C40.037 45.0226 40.3732 44.4814 40.3732 44.3256V44.26L43.768 19.1024C40.6028 20.9884 34.2232 21.9888 28.3766 21.9888C22.53 21.9888 16.175 20.9474 13.018 19.0614Z" fill="#EA9010"/>
<path d="M28.4094 21.9478C20.644 21.9478 11.9274 20.1848 11.0746 16.9294C11.0746 16.8884 11.0746 16.8556 11.0746 16.8228V16.4866C11.0708 16.4512 11.0708 16.4154 11.0746 16.38C11.0746 12.7556 20.2422 10.23 28.475 10.23C36.7078 10.23 45.8016 12.7556 45.8016 16.38V16.4866L45.7524 16.8228C45.7557 16.8582 45.7557 16.8939 45.7524 16.9294C44.8832 20.1848 36.1666 21.9478 28.4094 21.9478ZM12.6736 16.5522C13.182 18.1348 19.3484 20.3078 28.4094 20.3078C37.4704 20.3078 43.6286 18.1348 44.137 16.5522V16.3308C44.055 14.74 37.5852 11.87 28.4094 11.87C19.2336 11.87 12.7638 14.74 12.649 16.3308L12.6736 16.5522Z" fill="#EA9010"/>
<path d="M45.8426 33.2884C41.9394 33.2884 33.395 29.4262 28.0486 26.8022L28.7702 25.3262C36.1502 28.9506 44.8422 32.3126 46.3264 31.6812C46.2116 31.4434 45.6622 30.7054 43.0464 29.2868L42.9152 29.2048L43.7352 27.778L43.8582 27.8518C46.4904 29.3032 47.745 30.4184 47.9582 31.468C48.0001 31.687 47.9924 31.9127 47.9357 32.1284C47.8789 32.3441 47.7745 32.5443 47.6302 32.7144C47.3904 32.9319 47.1068 33.0957 46.7985 33.1947C46.4902 33.2937 46.1642 33.3256 45.8426 33.2884V33.2884Z" fill="#EA9010"/>
<path d="M28.4094 27.86C28.0575 27.86 27.7134 27.7556 27.4208 27.5601C27.1282 27.3646 26.9001 27.0867 26.7655 26.7615C26.6308 26.4364 26.5955 26.0786 26.6642 25.7334C26.7329 25.3882 26.9023 25.0712 27.1512 24.8223C27.4 24.5735 27.7171 24.404 28.0623 24.3354C28.4074 24.2667 28.7652 24.3019 29.0904 24.4366C29.4155 24.5713 29.6934 24.7994 29.8889 25.092C30.0844 25.3846 30.1888 25.7286 30.1888 26.0806C30.1866 26.5518 29.9985 27.0032 29.6652 27.3364C29.332 27.6696 28.8807 27.8578 28.4094 27.86V27.86ZM28.4094 25.9412C28.3904 25.94 28.3714 25.9428 28.3535 25.9493C28.3357 25.9558 28.3193 25.9659 28.3055 25.979C28.2917 25.992 28.2807 26.0078 28.2731 26.0253C28.2656 26.0427 28.2618 26.0615 28.2618 26.0806C28.2618 26.2364 28.5488 26.2364 28.5488 26.0806C28.5511 26.0609 28.5493 26.041 28.5433 26.0222C28.5373 26.0033 28.5274 25.9859 28.5143 25.9712C28.5011 25.9565 28.4849 25.9447 28.4668 25.9367C28.4488 25.9287 28.4292 25.9246 28.4094 25.9248V25.9412Z" fill="#EA9010"/>
</svg>
