<svg width="99" height="95" viewBox="0 0 99 95" fill="none" xmlns="http://www.w3.org/2000/svg">
<rect y="9" width="3" height="86" rx="1.5" fill="#DAB2FF"/>
<rect x="8" y="53" width="3" height="42" rx="1.5" fill="#A855F7" fill-opacity="0.63"/>
<rect x="16" y="37" width="3" height="58" rx="1.5" fill="#A855F7" fill-opacity="0.63"/>
<rect x="24" y="71" width="3" height="24" rx="1.5" fill="#A855F7" fill-opacity="0.63"/>
<rect x="32" y="32" width="3" height="63" rx="1.5" fill="#A855F7" fill-opacity="0.63"/>
<rect x="40" y="46" width="3" height="49" rx="1.5" fill="#A855F7" fill-opacity="0.63"/>
<rect x="48" y="14" width="3" height="81" rx="1.5" fill="#A855F7" fill-opacity="0.63"/>
<rect x="56" y="5" width="3" height="90" rx="1.5" fill="#A855F7" fill-opacity="0.63"/>
<rect x="64" y="58" width="3" height="37" rx="1.5" fill="#A855F7" fill-opacity="0.63"/>
<rect x="72" y="26" width="3" height="69" rx="1.5" fill="#A855F7" fill-opacity="0.63"/>
<rect x="80" y="68" width="3" height="27" rx="1.5" fill="#A855F7" fill-opacity="0.63"/>
<rect x="88" width="3" height="95" rx="1.5" fill="#A855F7" fill-opacity="0.63"/>
<rect x="96" y="56" width="3" height="39" rx="1.5" fill="#A855F7" fill-opacity="0.63"/>
</svg>
