<svg width="461" height="461" viewBox="0 0 461 461" fill="none" xmlns="http://www.w3.org/2000/svg">
<path d="M292.593 24.7305C293.525 25.5078 294.457 26.2851 295.417 27.086C296.4 27.8942 297.384 28.7024 298.397 29.5352C320.518 48.6799 334.227 76.1092 337.417 105.086C339.21 139.083 331.197 168.741 309.417 195.086C308.821 195.835 308.226 196.584 307.612 197.355C302.895 203.077 297.278 207.58 291.417 212.086C290.245 212.999 290.245 212.999 289.05 213.93C263.835 232.607 231.62 239.12 200.866 234.828C170.493 230.061 143.12 213.255 124.605 188.735C109.462 167.711 102.008 143.797 102.042 117.961C102.042 117.281 102.042 116.602 102.043 115.901C102.077 104.804 103.09 94.6796 106.417 84.086C106.767 82.9 107.118 81.7141 107.479 80.4922C116.681 52.1204 136.991 27.708 163.387 13.8006C205.042 -7.2776 255.521 -4.65345 292.593 24.7305Z" fill="#DC323C"/>
<path d="M217.829 252.956C220.048 252.961 222.268 252.956 224.487 252.949C233.839 252.945 243.094 253.338 252.417 254.086C251.343 256.238 250.263 258.385 249.163 260.523C248.731 261.369 248.299 262.215 247.854 263.086C247.42 263.932 246.986 264.777 246.538 265.648C243.185 272.938 243.231 282.373 245.171 290.082C248.177 297.829 252.952 303.929 258.417 310.086C257.473 310.172 256.53 310.259 255.557 310.348C244.122 311.599 232.245 313.856 224.417 323.086C217.226 333.313 215.261 342.706 216.417 355.086C218.042 363.842 222.665 370.381 229.417 376.086C236.924 380.72 243.434 383.037 252.167 383.648C253.337 383.732 254.508 383.816 255.714 383.902C256.606 383.963 257.498 384.024 258.417 384.086C258.053 384.559 257.69 385.032 257.315 385.52C254.532 389.181 251.798 392.876 249.167 396.648C248.687 397.33 248.208 398.012 247.714 398.715C243.578 406.275 243.555 414.707 244.417 423.086C245.454 426.428 246.699 429.453 248.225 432.598C249.281 434.802 249.872 436.723 250.417 439.086C222.574 439.133 194.732 439.168 166.889 439.19C153.961 439.2 141.033 439.214 128.105 439.237C116.834 439.257 105.564 439.27 94.2939 439.274C88.3282 439.277 82.3626 439.283 76.397 439.297C70.7771 439.311 65.1573 439.315 59.5373 439.312C57.4795 439.313 55.4216 439.317 53.3638 439.324C37.6303 439.38 25.533 439.028 12.2293 429.898C4.09727 421.766 0.13243 411.169 0 399.756C0.00607269 398.911 0.0121454 398.066 0.0184021 397.195C0.0155319 396.288 0.0126617 395.381 0.00970459 394.447C0.00767789 392.541 0.0131092 390.635 0.0257263 388.729C0.0417245 385.857 0.0258684 382.986 0.00668335 380.113C-0.0240484 353.804 7.95899 332.975 26.4168 314.086C27.0627 313.378 27.7085 312.671 28.3739 311.941C38.7038 300.891 52.0823 292.964 65.4168 286.086C66.1276 285.718 66.8384 285.349 67.5706 284.97C113.49 261.486 166.61 252.808 217.829 252.956Z" fill="#DC323C"/>
<path d="M352.417 235.086C357.161 236.755 359.639 238.919 362.417 243.086C364.234 246.881 364.655 249.851 364.612 254.043C364.602 255.711 364.602 255.711 364.593 257.412C364.567 259.138 364.567 259.138 364.542 260.898C364.533 262.068 364.524 263.238 364.514 264.443C364.491 267.324 364.458 270.205 364.417 273.086C365.447 273.202 366.477 273.318 367.538 273.438C371.211 274.052 374.08 274.983 377.479 276.461C378.46 276.881 379.441 277.301 380.452 277.734C383.479 279.114 386.451 280.579 389.417 282.086C390.15 281.329 390.15 281.329 390.898 280.557C393.125 278.267 395.365 275.989 397.604 273.711C398.758 272.52 398.758 272.52 399.934 271.305C400.685 270.544 401.436 269.784 402.21 269C402.896 268.298 403.582 267.597 404.289 266.874C408.479 263.353 412.741 262.579 418.069 262.703C423.212 263.542 427.016 266.46 430.354 270.336C432.395 275.619 432.957 280.163 431.417 285.648C426.816 293.557 419.909 299.726 413.417 306.086C414.14 307.662 414.14 307.662 414.878 309.27C415.516 310.687 416.154 312.105 416.792 313.523C417.109 314.211 417.426 314.899 417.753 315.607C420.014 320.672 421.404 325.637 422.417 331.086C423.173 331.07 423.929 331.055 424.708 331.038C428.153 330.976 431.597 330.937 435.042 330.898C436.232 330.873 437.421 330.848 438.647 330.822C449.691 330.73 449.691 330.73 454.417 334.086C458.301 338.186 460.157 341.796 460.792 347.398C460.325 351.987 459.089 355.327 456.417 359.086C451.498 363.001 447.852 364.215 441.655 364.184C440.537 364.18 439.419 364.177 438.266 364.174C437.099 364.165 435.932 364.157 434.729 364.148C433.55 364.144 432.372 364.139 431.157 364.135C428.244 364.123 425.33 364.107 422.417 364.086C422.237 364.868 422.058 365.65 421.873 366.456C420.454 372.413 418.919 377.836 416.229 383.336C415.699 384.434 415.17 385.533 414.624 386.664C414.026 387.863 414.026 387.863 413.417 389.086C413.886 389.529 414.355 389.972 414.838 390.428C416.982 392.467 419.105 394.526 421.229 396.586C421.967 397.282 422.705 397.978 423.466 398.695C428.733 403.844 431.766 408.071 432.737 415.555C432.116 422.015 429.328 425.917 424.417 430.086C419.679 432.661 414.544 432.573 409.417 431.086C404.17 428.107 400.212 424.12 396.042 419.836C395.401 419.186 394.76 418.537 394.1 417.867C392.535 416.278 390.974 414.684 389.417 413.086C387.841 413.809 387.841 413.809 386.233 414.547C384.815 415.185 383.397 415.823 381.979 416.461C381.292 416.778 380.604 417.095 379.895 417.422C374.831 419.683 369.866 421.073 364.417 422.086C364.438 422.801 364.459 423.517 364.48 424.254C364.564 427.531 364.616 430.808 364.667 434.086C364.7 435.211 364.734 436.337 364.768 437.496C364.851 444.541 364.292 449.137 360.417 455.086C355.179 459.255 351.094 460.633 344.417 460.086C339.144 458.276 335.472 455.851 332.417 451.086C331.338 447.848 331.303 445.508 331.319 442.105C331.324 440.36 331.324 440.36 331.329 438.58C331.341 436.758 331.341 436.758 331.354 434.898C331.359 433.672 331.363 432.445 331.368 431.182C331.38 428.15 331.396 425.118 331.417 422.086C330.84 421.971 330.264 421.855 329.67 421.736C324.922 420.742 320.572 419.527 316.104 417.586C315.118 417.163 314.132 416.74 313.116 416.305C310.851 415.282 308.634 414.205 306.417 413.086C305.774 413.744 305.774 413.744 305.119 414.415C303.161 416.415 301.195 418.407 299.229 420.398C298.556 421.089 297.882 421.779 297.188 422.49C291.798 427.933 287.579 431.523 279.761 432.148C274.517 432.009 270.686 430.389 267.042 426.648C264.671 422.91 263.128 420.205 263.104 415.711C263.088 414.981 263.071 414.252 263.054 413.5C264.168 406.096 269.478 401.663 274.604 396.711C275.354 395.975 276.103 395.239 276.876 394.48C278.716 392.675 280.563 390.878 282.417 389.086C281.935 388.073 281.453 387.06 280.956 386.016C280.318 384.664 279.68 383.313 279.042 381.961C278.725 381.296 278.408 380.631 278.081 379.945C275.604 374.682 273.417 370.003 273.417 364.086C272.701 364.107 271.986 364.128 271.249 364.149C267.972 364.233 264.695 364.285 261.417 364.336C260.291 364.369 259.166 364.403 258.007 364.438C250.951 364.52 246.394 363.924 240.417 360.086C235.774 355.205 235.06 351.119 235.136 344.59C235.692 339.636 238.44 336.947 242.042 333.773C245.831 331.081 247.879 330.967 252.518 330.988C253.73 330.992 254.942 330.995 256.19 330.998C257.461 331.006 258.732 331.015 260.042 331.023C261.321 331.028 262.599 331.032 263.917 331.037C267.084 331.049 270.25 331.065 273.417 331.086C273.532 330.059 273.646 329.031 273.764 327.973C274.389 324.254 275.354 321.34 276.854 317.898C277.286 316.894 277.718 315.89 278.163 314.855C279.417 312.086 279.417 312.086 280.639 309.973C281.651 307.519 281.308 306.564 280.417 304.086C278.963 302.269 278.963 302.269 277.108 300.59C276.444 299.949 275.779 299.307 275.095 298.647C273.688 297.318 272.282 295.99 270.876 294.662C266.725 290.656 263.906 287.738 263.116 281.84C263.089 276.832 263.511 273.348 266.417 269.086C270.43 265.039 273.984 262.955 279.729 262.836C280.837 262.797 280.837 262.797 281.968 262.758C290.069 263.843 294.76 270.299 299.938 275.988C300.572 276.655 301.205 277.321 301.858 278.008C302.422 278.622 302.986 279.237 303.567 279.87C305.407 281.355 305.407 281.355 307.971 280.848C310.73 279.988 313.247 278.895 315.854 277.648C325.665 273.086 325.665 273.086 331.417 273.086C331.385 271.906 331.385 271.906 331.353 270.703C331.27 267.122 331.218 263.542 331.167 259.961C331.133 258.723 331.1 257.486 331.065 256.211C330.943 244.828 330.943 244.828 335.417 240.086C341.116 235.065 344.953 234.454 352.417 235.086ZM314.604 318.898C306.06 329.296 303.323 340.832 304.417 354.086C306.625 366.286 312.839 376.308 322.917 383.586C334.236 390.378 345.512 392.784 358.417 389.961C369.604 386.867 379.072 380.063 385.241 370.156C391.205 358.805 393.308 348.068 389.792 335.586C385.639 323.273 378.981 314.337 367.354 308.211C348.558 299.662 328.692 303.869 314.604 318.898Z" fill="#DC323C"/>
</svg>
