<svg width="27" height="27" viewBox="0 0 27 27" fill="none" xmlns="http://www.w3.org/2000/svg">
<path d="M17.145 25.0538H16.9987C12.0037 25.0538 9.59621 23.085 9.17996 18.675C9.13496 18.2138 9.47246 17.7975 9.94496 17.7525C10.395 17.7075 10.8225 18.0563 10.8675 18.5175C11.1937 22.05 12.8587 23.3663 17.01 23.3663H17.1562C21.735 23.3663 23.355 21.7463 23.355 17.1675V9.83254C23.355 5.25379 21.735 3.63379 17.1562 3.63379H17.01C12.8362 3.63379 11.1712 4.97254 10.8675 8.57254C10.8112 9.03379 10.4175 9.38254 9.94496 9.33754C9.47246 9.30379 9.13496 8.88754 9.16871 8.42629C9.55121 3.94879 11.97 1.94629 16.9987 1.94629H17.145C22.6687 1.94629 25.0312 4.30879 25.0312 9.83254V17.1675C25.0312 22.6913 22.6687 25.0538 17.145 25.0538Z" fill="white"/>
<path d="M16.875 14.3438H4.07251C3.61126 14.3438 3.22876 13.9612 3.22876 13.5C3.22876 13.0388 3.61126 12.6562 4.07251 12.6562H16.875C17.3363 12.6562 17.7188 13.0388 17.7188 13.5C17.7188 13.9612 17.3363 14.3438 16.875 14.3438Z" fill="white"/>
<path d="M6.58124 18.1123C6.36749 18.1123 6.15375 18.0336 5.985 17.8648L2.21625 14.0961C1.89 13.7698 1.89 13.2298 2.21625 12.9036L5.985 9.13482C6.31125 8.80857 6.85125 8.80857 7.1775 9.13482C7.50375 9.46107 7.50375 10.0011 7.1775 10.3273L4.00499 13.4998L7.1775 16.6723C7.50375 16.9986 7.50375 17.5386 7.1775 17.8648C7.02 18.0336 6.79499 18.1123 6.58124 18.1123Z" fill="white"/>
</svg>
