<svg width="60" height="65" viewBox="0 0 60 65" fill="none" xmlns="http://www.w3.org/2000/svg">
<path d="M0.114843 65H12.7543V41.9172C12.7543 32.7222 12.2753 23.662 20.2647 17.1367C21.6379 16.0152 23.2116 15.003 24.8443 14.2726C29.4676 12.205 34.1709 12.4422 39.1324 12.4422H58V0.0129525H39.6819C35.0051 0.0129525 30.3463 -0.174897 25.7602 0.880167C22.4955 1.63124 19.3007 2.89688 16.4179 4.55921C7.63221 9.62553 1.61142 18.5986 0.350401 28.4226C-0.262336 33.1967 0.114843 38.1749 0.114843 42.9825V65Z" fill="#A3EE80"/>
<path d="M60 50.1421C60 52.0622 59.7308 53.8709 59.1925 55.5684C58.6542 57.238 57.9193 58.6989 56.9876 59.9512C56.0766 61.2034 54.9896 62.1912 53.7267 62.9147C52.4845 63.6382 51.1491 64 49.7205 64H20V55.4432H49.7205C50.2795 55.4432 50.7971 55.3179 51.2733 55.0675C51.7702 54.7892 52.1946 54.4136 52.5466 53.9405C52.9193 53.4396 53.2091 52.8692 53.4161 52.2291C53.6232 51.5891 53.7267 50.8934 53.7267 50.1421C53.7267 49.3908 53.6232 48.6951 53.4161 48.0551C53.2091 47.3872 52.9193 46.8168 52.5466 46.3437C52.1946 45.8428 51.7702 45.4532 51.2733 45.175C50.7971 44.8967 50.2795 44.7575 49.7205 44.7575H30.2484C28.8406 44.7575 27.5155 44.3958 26.2733 43.6723C25.0311 42.9488 23.9441 41.9609 23.0124 40.7087C22.0807 39.4287 21.3458 37.9399 20.8075 36.2425C20.2692 34.545 20 32.7362 20 30.8162C20 28.9517 20.2692 27.1847 20.8075 25.5151C21.3458 23.8176 22.0807 22.3428 23.0124 21.0906C23.9441 19.8384 25.0311 18.8505 26.2733 18.127C27.5155 17.3757 28.8406 17 30.2484 17H57.6708V25.4316H30.2484C29.7101 25.4316 29.1925 25.5847 28.6957 25.8908C28.2195 26.169 27.8054 26.5586 27.4534 27.0595C27.1014 27.5326 26.8219 28.103 26.6149 28.7709C26.4079 29.4109 26.3043 30.0927 26.3043 30.8162C26.3043 31.5675 26.4079 32.2771 26.6149 32.9449C26.8219 33.585 27.1014 34.1554 27.4534 34.6563C27.8054 35.1294 28.2195 35.505 28.6957 35.7833C29.1925 36.0616 29.7101 36.2007 30.2484 36.2007H49.7205C51.1491 36.2007 52.4845 36.5764 53.7267 37.3277C54.9896 38.0512 56.0766 39.053 56.9876 40.333C57.9193 41.5853 58.6542 43.0601 59.1925 44.7575C59.7308 46.455 60 48.2498 60 50.1421Z" fill="white"/>
<path d="M0 0V16C3.03569 8.80428 8.95585 3.2157 16.3144 0.599321L18 0H0Z" fill="white"/>
</svg>
