<svg width="177" height="71" viewBox="0 0 177 71" fill="none" xmlns="http://www.w3.org/2000/svg">
<path d="M3.204 12.052C3.708 11.956 4.26 11.872 4.86 11.8C5.484 11.728 6.108 11.668 6.732 11.62C7.356 11.572 7.98 11.536 8.604 11.512C9.228 11.488 9.816 11.476 10.368 11.476C11.568 11.476 12.72 11.596 13.824 11.836C14.952 12.076 15.936 12.472 16.776 13.024C17.64 13.576 18.324 14.296 18.828 15.184C19.356 16.072 19.62 17.164 19.62 18.46C19.62 19.468 19.464 20.38 19.152 21.196C18.84 22.012 18.408 22.732 17.856 23.356C17.304 23.98 16.644 24.508 15.876 24.94C15.132 25.348 14.316 25.66 13.428 25.876L15.3 27.136L22.068 37H17.928L10.44 26.38L6.804 25.876V37H3.204V12.052ZM10.476 14.572C10.14 14.572 9.792 14.572 9.432 14.572C9.096 14.572 8.76 14.584 8.424 14.608C8.088 14.632 7.776 14.656 7.488 14.68C7.2 14.704 6.972 14.74 6.804 14.788V23.5H9.756C10.62 23.5 11.412 23.416 12.132 23.248C12.876 23.056 13.512 22.78 14.04 22.42C14.592 22.036 15.024 21.544 15.336 20.944C15.648 20.344 15.804 19.612 15.804 18.748C15.804 17.452 15.348 16.432 14.436 15.688C13.524 14.944 12.204 14.572 10.476 14.572ZM26.7235 11.8H41.9515V14.896H30.3235V22.564H40.9435V25.66H30.3235V33.904H42.1315V37H26.7235V11.8ZM65.6021 35.92C64.8101 36.496 63.8021 36.892 62.5781 37.108C61.3541 37.348 60.0581 37.468 58.6901 37.468C57.0821 37.468 55.5461 37.216 54.0821 36.712C52.6421 36.184 51.3701 35.392 50.2661 34.336C49.1621 33.256 48.2861 31.9 47.6381 30.268C46.9901 28.612 46.6661 26.656 46.6661 24.4C46.6661 22.048 47.0261 20.044 47.7461 18.388C48.4661 16.732 49.4021 15.388 50.5541 14.356C51.7061 13.3 53.0021 12.532 54.4421 12.052C55.8821 11.572 57.3101 11.332 58.7261 11.332C60.3101 11.332 61.6061 11.416 62.6141 11.584C63.6221 11.752 64.4741 11.968 65.1701 12.232L64.3781 15.328C63.2021 14.776 61.4141 14.5 59.0141 14.5C57.9341 14.5 56.8781 14.68 55.8461 15.04C54.8381 15.376 53.9261 15.94 53.1101 16.732C52.3181 17.5 51.6821 18.52 51.2021 19.792C50.7221 21.04 50.4821 22.576 50.4821 24.4C50.4821 26.032 50.7101 27.472 51.1661 28.72C51.6221 29.944 52.2461 30.976 53.0381 31.816C53.8541 32.632 54.8021 33.256 55.8821 33.688C56.9861 34.096 58.1861 34.3 59.4821 34.3C60.6581 34.3 61.6781 34.192 62.5421 33.976C63.4061 33.76 64.1381 33.484 64.7381 33.148L65.6021 35.92ZM82.4754 30.412H72.5034L69.8394 37H66.3114L76.6794 11.44H78.5514L88.9554 37H85.2114L82.4754 30.412ZM73.5834 27.388H81.4314L78.5154 20.224L77.5434 16.372H77.4714L76.4994 20.296L73.5834 27.388ZM104.815 30.376C104.815 29.392 104.491 28.612 103.843 28.036C103.195 27.46 102.379 26.968 101.395 26.56C100.411 26.128 99.3546 25.732 98.2266 25.372C97.0986 24.988 96.0426 24.508 95.0586 23.932C94.0746 23.356 93.2586 22.612 92.6106 21.7C91.9626 20.788 91.6386 19.6 91.6386 18.136C91.6386 16.096 92.3826 14.452 93.8706 13.204C95.3826 11.956 97.5306 11.332 100.315 11.332C101.923 11.332 103.399 11.452 104.743 11.692C106.087 11.932 107.143 12.244 107.911 12.628L106.795 15.652C106.195 15.34 105.295 15.064 104.095 14.824C102.895 14.56 101.575 14.428 100.135 14.428C98.5026 14.428 97.2786 14.776 96.4626 15.472C95.6466 16.168 95.2386 16.972 95.2386 17.884C95.2386 18.82 95.5626 19.576 96.2106 20.152C96.8586 20.728 97.6746 21.244 98.6586 21.7C99.6426 22.132 100.699 22.552 101.827 22.96C102.955 23.368 104.011 23.872 104.995 24.472C105.979 25.072 106.795 25.816 107.443 26.704C108.091 27.568 108.415 28.684 108.415 30.052C108.415 31.18 108.199 32.2 107.767 33.112C107.335 34.024 106.711 34.804 105.895 35.452C105.079 36.1 104.095 36.604 102.943 36.964C101.791 37.3 100.483 37.468 99.0186 37.468C97.0506 37.468 95.3826 37.312 94.0146 37C92.6706 36.712 91.6506 36.4 90.9546 36.064L92.1426 32.932C92.7426 33.244 93.6426 33.568 94.8426 33.904C96.0666 34.216 97.4106 34.372 98.8746 34.372C99.7146 34.372 100.495 34.3 101.215 34.156C101.935 33.988 102.559 33.748 103.087 33.436C103.639 33.1 104.059 32.68 104.347 32.176C104.659 31.672 104.815 31.072 104.815 30.376ZM131.421 14.968H122.925V37H119.325V14.968H110.829V11.8H131.421V14.968ZM135.321 11.8H150.549V14.896H138.921V22.564H149.541V25.66H138.921V33.904H150.729V37H135.321V11.8ZM156.38 12.052C156.884 11.956 157.436 11.872 158.036 11.8C158.66 11.728 159.284 11.668 159.908 11.62C160.532 11.572 161.156 11.536 161.78 11.512C162.404 11.488 162.992 11.476 163.544 11.476C164.744 11.476 165.896 11.596 167 11.836C168.128 12.076 169.112 12.472 169.952 13.024C170.816 13.576 171.5 14.296 172.004 15.184C172.532 16.072 172.796 17.164 172.796 18.46C172.796 19.468 172.64 20.38 172.328 21.196C172.016 22.012 171.584 22.732 171.032 23.356C170.48 23.98 169.82 24.508 169.052 24.94C168.308 25.348 167.492 25.66 166.604 25.876L168.476 27.136L175.244 37H171.104L163.616 26.38L159.98 25.876V37H156.38V12.052ZM163.652 14.572C163.316 14.572 162.968 14.572 162.608 14.572C162.272 14.572 161.936 14.584 161.6 14.608C161.264 14.632 160.952 14.656 160.664 14.68C160.376 14.704 160.148 14.74 159.98 14.788V23.5H162.932C163.796 23.5 164.588 23.416 165.308 23.248C166.052 23.056 166.688 22.78 167.216 22.42C167.768 22.036 168.2 21.544 168.512 20.944C168.824 20.344 168.98 19.612 168.98 18.748C168.98 17.452 168.524 16.432 167.612 15.688C166.7 14.944 165.38 14.572 163.652 14.572Z" fill="#A3EE80"/>
<path d="M1.175 64.125V60.875L15.55 60.9C16.2833 60.9 16.8417 60.7333 17.225 60.4C17.625 60.05 17.825 59.4917 17.825 58.725C17.825 57.9583 17.625 57.4083 17.225 57.075C16.8417 56.725 16.2833 56.55 15.55 56.55H6.6C4.75 56.55 3.30833 56.1083 2.275 55.225C1.25833 54.325 0.75 53.0083 0.75 51.275C0.75 49.5417 1.25833 48.2333 2.275 47.35C3.30833 46.45 4.75 46 6.6 46H20.65V49.25L7.025 49.225C6.30833 49.225 5.75 49.3917 5.35 49.725C4.95 50.0417 4.75 50.5583 4.75 51.275C4.75 51.9917 4.95 52.5167 5.35 52.85C5.75 53.1667 6.30833 53.325 7.025 53.325H15.975C17.825 53.325 19.2583 53.7833 20.275 54.7C21.3083 55.6 21.825 56.9417 21.825 58.725C21.825 60.4917 21.3083 61.8333 20.275 62.75C19.2583 63.6667 17.825 64.125 15.975 64.125H1.175ZM31.8041 64V57.625L22.3291 46.125H27.2791L33.8041 54.225L40.3041 46.125H45.2541L35.8291 57.6V64H31.8041ZM47.6289 64V46.125H51.6789L64.3289 58.975V46.125H68.3289V64H64.2789L51.6289 51.125V64H47.6289ZM81.6482 64.125C78.3482 64.125 75.8232 63.3667 74.0732 61.85C72.3232 60.3167 71.4482 58.05 71.4482 55.05C71.4482 52.0667 72.3232 49.8083 74.0732 48.275C75.8232 46.7417 78.3482 45.9833 81.6482 46L90.6482 46.05V49.25H81.9232C79.7566 49.25 78.1482 49.7083 77.0982 50.625C76.0482 51.5417 75.5232 53.0167 75.5232 55.05C75.5232 57.0833 76.0482 58.5667 77.0982 59.5C78.1482 60.4167 79.7566 60.875 81.9232 60.875H90.8982V64.125H81.6482Z" fill="white"/>
</svg>
