<svg width="238" height="77" viewBox="0 0 238 77" fill="none" xmlns="http://www.w3.org/2000/svg">
<path d="M72.377 75.8483V75.9733H72.502H77.4048H77.5298V75.8483V68.125L88.9816 54.2316L89.1502 54.027H88.8851H82.8557H82.7958L82.7583 54.0736L74.938 63.7846L67.0874 54.0735L67.0499 54.027H66.9902H60.9607H60.6951L60.8644 54.2317L72.377 68.1554V75.8483ZM90.8915 75.8483V75.9733H91.0165H95.8889H96.0139V75.8483V60.5257L111.209 75.936L111.245 75.9733H111.298H116.231H116.356V75.8483V54.152V54.027H116.231H111.358H111.233V54.152V69.4447L96.0387 54.0642L96.002 54.027H95.9498H91.0165H90.8915V54.152V75.8483ZM122.384 73.3328L122.385 73.3333C124.547 75.2007 127.656 76.125 131.693 76.125H142.961H143.086V76V72.0552V71.9302H142.961H132.028C129.404 71.9302 127.48 71.3765 126.234 70.2924C124.992 69.1922 124.358 67.4332 124.358 64.985C124.358 62.5363 124.992 60.788 126.233 59.7083C127.48 58.624 129.403 58.0701 132.028 58.0701H142.656H142.781V57.9451V54.061V53.9367L142.657 53.936L131.694 53.8753L131.694 53.8753C127.657 53.855 124.547 54.7793 122.384 56.6675C120.218 58.5587 119.144 61.3386 119.144 64.985C119.144 68.6513 120.218 71.4415 122.384 73.3328Z" fill="white" stroke="white" stroke-width="0.25"/>
<path d="M64.1647 12.052C64.6687 11.956 65.2207 11.872 65.8207 11.8C66.4447 11.728 67.0687 11.668 67.6927 11.62C68.3167 11.572 68.9407 11.536 69.5647 11.512C70.1887 11.488 70.7767 11.476 71.3287 11.476C72.5287 11.476 73.6807 11.596 74.7847 11.836C75.9127 12.076 76.8967 12.472 77.7367 13.024C78.6007 13.576 79.2847 14.296 79.7887 15.184C80.3167 16.072 80.5807 17.164 80.5807 18.46C80.5807 19.468 80.4247 20.38 80.1127 21.196C79.8007 22.012 79.3687 22.732 78.8167 23.356C78.2647 23.98 77.6047 24.508 76.8367 24.94C76.0927 25.348 75.2767 25.66 74.3887 25.876L76.2607 27.136L83.0287 37H78.8887L71.4007 26.38L67.7647 25.876V37H64.1647V12.052ZM71.4367 14.572C71.1007 14.572 70.7527 14.572 70.3927 14.572C70.0567 14.572 69.7207 14.584 69.3847 14.608C69.0487 14.632 68.7367 14.656 68.4487 14.68C68.1607 14.704 67.9327 14.74 67.7647 14.788V23.5H70.7167C71.5807 23.5 72.3727 23.416 73.0927 23.248C73.8367 23.056 74.4727 22.78 75.0007 22.42C75.5527 22.036 75.9847 21.544 76.2967 20.944C76.6087 20.344 76.7647 19.612 76.7647 18.748C76.7647 17.452 76.3087 16.432 75.3967 15.688C74.4847 14.944 73.1647 14.572 71.4367 14.572ZM87.6842 11.8H102.912V14.896H91.2842V22.564H101.904V25.66H91.2842V33.904H103.092V37H87.6842V11.8ZM126.563 35.92C125.771 36.496 124.763 36.892 123.539 37.108C122.315 37.348 121.019 37.468 119.651 37.468C118.043 37.468 116.507 37.216 115.043 36.712C113.603 36.184 112.331 35.392 111.227 34.336C110.123 33.256 109.247 31.9 108.599 30.268C107.951 28.612 107.627 26.656 107.627 24.4C107.627 22.048 107.987 20.044 108.707 18.388C109.427 16.732 110.363 15.388 111.515 14.356C112.667 13.3 113.963 12.532 115.403 12.052C116.843 11.572 118.271 11.332 119.687 11.332C121.271 11.332 122.567 11.416 123.575 11.584C124.583 11.752 125.435 11.968 126.131 12.232L125.339 15.328C124.163 14.776 122.375 14.5 119.975 14.5C118.895 14.5 117.839 14.68 116.807 15.04C115.799 15.376 114.887 15.94 114.071 16.732C113.279 17.5 112.643 18.52 112.163 19.792C111.683 21.04 111.443 22.576 111.443 24.4C111.443 26.032 111.671 27.472 112.127 28.72C112.583 29.944 113.207 30.976 113.999 31.816C114.815 32.632 115.763 33.256 116.843 33.688C117.947 34.096 119.147 34.3 120.443 34.3C121.619 34.3 122.639 34.192 123.503 33.976C124.367 33.76 125.099 33.484 125.699 33.148L126.563 35.92ZM143.436 30.412H133.464L130.8 37H127.272L137.64 11.44H139.512L149.916 37H146.172L143.436 30.412ZM134.544 27.388H142.392L139.476 20.224L138.504 16.372H138.432L137.46 20.296L134.544 27.388ZM165.775 30.376C165.775 29.392 165.451 28.612 164.803 28.036C164.155 27.46 163.339 26.968 162.355 26.56C161.371 26.128 160.315 25.732 159.187 25.372C158.059 24.988 157.003 24.508 156.019 23.932C155.035 23.356 154.219 22.612 153.571 21.7C152.923 20.788 152.599 19.6 152.599 18.136C152.599 16.096 153.343 14.452 154.831 13.204C156.343 11.956 158.491 11.332 161.275 11.332C162.883 11.332 164.359 11.452 165.703 11.692C167.047 11.932 168.103 12.244 168.871 12.628L167.755 15.652C167.155 15.34 166.255 15.064 165.055 14.824C163.855 14.56 162.535 14.428 161.095 14.428C159.463 14.428 158.239 14.776 157.423 15.472C156.607 16.168 156.199 16.972 156.199 17.884C156.199 18.82 156.523 19.576 157.171 20.152C157.819 20.728 158.635 21.244 159.619 21.7C160.603 22.132 161.659 22.552 162.787 22.96C163.915 23.368 164.971 23.872 165.955 24.472C166.939 25.072 167.755 25.816 168.403 26.704C169.051 27.568 169.375 28.684 169.375 30.052C169.375 31.18 169.159 32.2 168.727 33.112C168.295 34.024 167.671 34.804 166.855 35.452C166.039 36.1 165.055 36.604 163.903 36.964C162.751 37.3 161.443 37.468 159.979 37.468C158.011 37.468 156.343 37.312 154.975 37C153.631 36.712 152.611 36.4 151.915 36.064L153.103 32.932C153.703 33.244 154.603 33.568 155.803 33.904C157.027 34.216 158.371 34.372 159.835 34.372C160.675 34.372 161.455 34.3 162.175 34.156C162.895 33.988 163.519 33.748 164.047 33.436C164.599 33.1 165.019 32.68 165.307 32.176C165.619 31.672 165.775 31.072 165.775 30.376ZM192.381 14.968H183.885V37H180.285V14.968H171.789V11.8H192.381V14.968ZM196.282 11.8H211.51V14.896H199.882V22.564H210.502V25.66H199.882V33.904H211.69V37H196.282V11.8ZM217.34 12.052C217.844 11.956 218.396 11.872 218.996 11.8C219.62 11.728 220.244 11.668 220.868 11.62C221.492 11.572 222.116 11.536 222.74 11.512C223.364 11.488 223.952 11.476 224.504 11.476C225.704 11.476 226.856 11.596 227.96 11.836C229.088 12.076 230.072 12.472 230.912 13.024C231.776 13.576 232.46 14.296 232.964 15.184C233.492 16.072 233.756 17.164 233.756 18.46C233.756 19.468 233.6 20.38 233.288 21.196C232.976 22.012 232.544 22.732 231.992 23.356C231.44 23.98 230.78 24.508 230.012 24.94C229.268 25.348 228.452 25.66 227.564 25.876L229.436 27.136L236.204 37H232.064L224.576 26.38L220.94 25.876V37H217.34V12.052ZM224.612 14.572C224.276 14.572 223.928 14.572 223.568 14.572C223.232 14.572 222.896 14.584 222.56 14.608C222.224 14.632 221.912 14.656 221.624 14.68C221.336 14.704 221.108 14.74 220.94 14.788V23.5H223.892C224.756 23.5 225.548 23.416 226.268 23.248C227.012 23.056 227.648 22.78 228.176 22.42C228.728 22.036 229.16 21.544 229.472 20.944C229.784 20.344 229.94 19.612 229.94 18.748C229.94 17.452 229.484 16.432 228.572 15.688C227.66 14.944 226.34 14.572 224.612 14.572Z" fill="#A3EE80"/>
<path d="M0.114843 77H12.7543V53.9172C12.7543 44.7222 12.2753 35.662 20.2647 29.1367C21.6379 28.0152 23.2116 27.003 24.8443 26.2726C29.4676 24.205 34.1709 24.4422 39.1324 24.4422H58V12.013H39.6819C35.0051 12.013 30.3463 11.8251 25.7602 12.8802C22.4955 13.6312 19.3007 14.8969 16.4179 16.5592C7.63221 21.6255 1.61142 30.5986 0.350401 40.4226C-0.262336 45.1967 0.114843 50.1749 0.114843 54.9825V77Z" fill="#A3EE80"/>
<path d="M60 62.1421C60 64.0622 59.7308 65.8709 59.1925 67.5684C58.6542 69.238 57.9193 70.6989 56.9876 71.9512C56.0766 73.2034 54.9896 74.1912 53.7267 74.9147C52.4845 75.6382 51.1491 76 49.7205 76H20V67.4432H49.7205C50.2795 67.4432 50.7971 67.3179 51.2733 67.0675C51.7702 66.7892 52.1946 66.4136 52.5466 65.9405C52.9193 65.4396 53.2091 64.8692 53.4161 64.2291C53.6232 63.5891 53.7267 62.8934 53.7267 62.1421C53.7267 61.3908 53.6232 60.6951 53.4161 60.0551C53.2091 59.3872 52.9193 58.8168 52.5466 58.3437C52.1946 57.8428 51.7702 57.4532 51.2733 57.175C50.7971 56.8967 50.2795 56.7575 49.7205 56.7575H30.2484C28.8406 56.7575 27.5155 56.3958 26.2733 55.6723C25.0311 54.9488 23.9441 53.9609 23.0124 52.7087C22.0807 51.4287 21.3458 49.9399 20.8075 48.2425C20.2692 46.545 20 44.7362 20 42.8162C20 40.9517 20.2692 39.1847 20.8075 37.5151C21.3458 35.8176 22.0807 34.3428 23.0124 33.0906C23.9441 31.8384 25.0311 30.8505 26.2733 30.127C27.5155 29.3757 28.8406 29 30.2484 29H57.6708V37.4316H30.2484C29.7101 37.4316 29.1925 37.5847 28.6957 37.8908C28.2195 38.169 27.8054 38.5586 27.4534 39.0595C27.1014 39.5326 26.8219 40.103 26.6149 40.7709C26.4079 41.4109 26.3043 42.0927 26.3043 42.8162C26.3043 43.5675 26.4079 44.2771 26.6149 44.9449C26.8219 45.585 27.1014 46.1554 27.4534 46.6563C27.8054 47.1294 28.2195 47.505 28.6957 47.7833C29.1925 48.0616 29.7101 48.2007 30.2484 48.2007H49.7205C51.1491 48.2007 52.4845 48.5764 53.7267 49.3277C54.9896 50.0512 56.0766 51.053 56.9876 52.333C57.9193 53.5853 58.6542 55.0601 59.1925 56.7575C59.7308 58.455 60 60.2498 60 62.1421Z" fill="white"/>
<path d="M0 12V28C3.03569 20.8043 8.95585 15.2157 16.3144 12.5993L18 12H0Z" fill="white"/>
</svg>
