<svg width="23" height="24" viewBox="0 0 23 24" fill="none" xmlns="http://www.w3.org/2000/svg">
<path d="M22 23L16 16.7143M10 19.8571C8.8181 19.8571 7.64778 19.6133 6.55585 19.1394C5.46392 18.6656 4.47177 17.9711 3.63604 17.0956C2.80031 16.2201 2.13738 15.1807 1.68508 14.0367C1.23279 12.8928 1 11.6667 1 10.4286C1 9.19039 1.23279 7.96434 1.68508 6.82041C2.13738 5.67649 2.80031 4.63709 3.63604 3.76156C4.47177 2.88604 5.46392 2.19154 6.55585 1.71771C7.64778 1.24388 8.8181 1 10 1C12.3869 1 14.6761 1.99336 16.364 3.76156C18.0518 5.52976 19 7.92796 19 10.4286C19 12.9292 18.0518 15.3274 16.364 17.0956C14.6761 18.8638 12.3869 19.8571 10 19.8571Z" stroke="white" stroke-opacity="0.53" stroke-width="1.5"/>
</svg>
