<svg width="21" height="21" viewBox="0 0 21 21" fill="none" xmlns="http://www.w3.org/2000/svg">
<path d="M7.875 19.2501H13.125C17.5 19.2501 19.25 17.5001 19.25 13.1251V7.87506C19.25 3.50006 17.5 1.75006 13.125 1.75006H7.875C3.5 1.75006 1.75 3.50006 1.75 7.87506V13.1251C1.75 17.5001 3.5 19.2501 7.875 19.2501Z" stroke="white" stroke-width="1.5" stroke-linecap="round" stroke-linejoin="round"/>
<path d="M15.3125 10.5001C15.3125 13.1601 13.16 15.3126 10.5 15.3126C7.84 15.3126 6.22124 12.6351 6.22124 12.6351M6.22124 12.6351H8.39125M6.22124 12.6351V15.0413M5.6875 10.5001C5.6875 7.84006 7.8225 5.68756 10.5 5.68756C13.7113 5.68756 15.3125 8.36506 15.3125 8.36506M15.3125 8.36506V5.95881M15.3125 8.36506H13.1775" stroke="white" stroke-width="1.5" stroke-linecap="round" stroke-linejoin="round"/>
</svg>
