<svg width="35" height="29" viewBox="0 0 35 29" fill="none" xmlns="http://www.w3.org/2000/svg">
<path d="M32.8213 13.3749V4.53569C32.8213 3.59797 32.4487 2.69865 31.7857 2.03558C31.1226 1.37251 30.2233 1 29.2856 1H4.53569C3.59797 1 2.69865 1.37251 2.03558 2.03558C1.37251 2.69865 1 3.59797 1 4.53569V15.1428C1 16.0805 1.37251 16.9798 2.03558 17.6429C2.69865 18.306 3.59797 18.6785 4.53569 18.6785H16.9106" stroke="white" stroke-width="2" stroke-linecap="round" stroke-linejoin="round"/>
<path d="M32.6074 20.2999C33.4807 20.8374 33.4259 22.1438 32.5278 22.2463L27.9897 22.7608L25.9549 26.848C25.5519 27.6595 24.3055 27.2617 24.0987 26.2576L21.8801 15.4454C21.705 14.5969 22.4687 14.063 23.2059 14.5173L32.6074 20.2999V20.2999Z" stroke="white" stroke-width="2"/>
<path d="M16.9106 9.85625L16.9278 9.8374" stroke="white" stroke-width="2" stroke-linecap="round" stroke-linejoin="round"/>
<path d="M23.982 9.85625L23.9991 9.8374" stroke="white" stroke-width="2" stroke-linecap="round" stroke-linejoin="round"/>
<path d="M9.83923 9.85625L9.85636 9.8374" stroke="white" stroke-width="2" stroke-linecap="round" stroke-linejoin="round"/>
</svg>
