<svg width="24" height="24" viewBox="0 0 24 24" fill="none" xmlns="http://www.w3.org/2000/svg">
<path d="M17.2046 12.0058L8.7126 3.27877C8.6426 3.20844 8.5874 3.12494 8.5499 3.03311C8.5125 2.94128 8.4937 2.84293 8.4945 2.74377C8.4953 2.6446 8.5158 2.54659 8.5547 2.45539C8.5937 2.36419 8.6503 2.28163 8.7214 2.21247C8.7925 2.14331 8.8766 2.08894 8.9688 2.05249C9.061 2.01604 9.1596 1.99825 9.2587 2.00014C9.3579 2.00202 9.4557 2.02356 9.5464 2.06349C9.6372 2.10342 9.7192 2.16095 9.7876 2.23277L18.7876 11.4828C18.9238 11.6228 19 11.8104 19 12.0058C19 12.2011 18.9238 12.3888 18.7876 12.5288L9.7876 21.7788C9.7192 21.8506 9.6372 21.9081 9.5464 21.948C9.4557 21.988 9.3579 22.0095 9.2587 22.0114C9.1596 22.0133 9.061 21.9955 8.9688 21.959C8.8766 21.9226 8.7925 21.8682 8.7214 21.7991C8.6503 21.7299 8.5937 21.6473 8.5547 21.5561C8.5158 21.4649 8.4953 21.3669 8.4945 21.2678C8.4937 21.1686 8.5125 21.0703 8.5499 20.9784C8.5874 20.8866 8.6426 20.8031 8.7126 20.7328L17.2046 12.0058Z" fill="white"/>
</svg>
